STARTFONT 2.1
FONT -HP-Gothic-Bold-R-Normal--8-58-100-100-C-80-JISX0208.1990-0
SIZE 5 100 100
FONTBOUNDINGBOX 8 8 0 -2

STARTPROPERTIES 23
FONTNAME_REGISTRY ""
FOUNDRY "HP"
FAMILY_NAME "Gothic"
WEIGHT_NAME "Bold"
SLANT "R"
SETWIDTH_NAME "Normal"
ADD_STYLE_NAME ""
PIXEL_SIZE 8
POINT_SIZE 58
RESOLUTION_X 100
RESOLUTION_Y 100
SPACING "C"
AVERAGE_WIDTH 80
CHARSET_REGISTRY "JISX0208.1990"
CHARSET_ENCODING "0"
COPYRIGHT "Copyright (c) 1994 Hewlett-Packard Company. Copyright 1994 by Bridge Inc."
_HP_ASXVERSION "@(#) ASX 3.00 $Revision: 13.9 $ gotB08k"
WEIGHT 10
X_HEIGHT 6
QUAD_WIDTH 8
DEFAULT_CHAR 8751
FONT_DESCENT 2
FONT_ASCENT 6
ENDPROPERTIES

CHARS 6963

STARTCHAR jisx0208_2121
ENCODING 8481
SWIDTH 960 0
DWIDTH 8 0
BBX 8 8 0 -2
BITMAP
00
00
00
00
00
00
00
00
ENDCHAR

STARTCHAR jisx0208_2122
ENCODING 8482
SWIDTH 960 0
DWIDTH 8 0
BBX 8 8 0 -2
BITMAP
00
00
00
00
00
00
C0
60
ENDCHAR

STARTCHAR jisx0208_2123
ENCODING 8483
SWIDTH 960 0
DWIDTH 8 0
BBX 8 8 0 -2
BITMAP
00
00
00
00
00
60
B0
60
ENDCHAR

STARTCHAR jisx0208_2124
ENCODING 8484
SWIDTH 960 0
DWIDTH 8 0
BBX 8 8 0 -2
BITMAP
00
00
00
00
00
70
30
60
ENDCHAR

STARTCHAR jisx0208_2125
ENCODING 8485
SWIDTH 960 0
DWIDTH 8 0
BBX 8 8 0 -2
BITMAP
00
00
00
00
00
60
60
00
ENDCHAR

STARTCHAR jisx0208_2126
ENCODING 8486
SWIDTH 960 0
DWIDTH 8 0
BBX 8 8 0 -2
BITMAP
00
00
00
1C
1C
00
00
00
ENDCHAR

STARTCHAR jisx0208_2127
ENCODING 8487
SWIDTH 960 0
DWIDTH 8 0
BBX 8 8 0 -2
BITMAP
00
00
1C
00
00
1C
00
00
ENDCHAR

STARTCHAR jisx0208_2128
ENCODING 8488
SWIDTH 960 0
DWIDTH 8 0
BBX 8 8 0 -2
BITMAP
00
00
1C
00
00
1C
0C
18
ENDCHAR

STARTCHAR jisx0208_2129
ENCODING 8489
SWIDTH 960 0
DWIDTH 8 0
BBX 8 8 0 -2
BITMAP
1C
36
0C
18
00
00
1C
00
ENDCHAR

STARTCHAR jisx0208_212A
ENCODING 8490
SWIDTH 960 0
DWIDTH 8 0
BBX 8 8 0 -2
BITMAP
18
18
18
18
00
00
1C
00
ENDCHAR

STARTCHAR jisx0208_212B
ENCODING 8491
SWIDTH 960 0
DWIDTH 8 0
BBX 8 8 0 -2
BITMAP
B0
B0
00
00
00
00
00
00
ENDCHAR

STARTCHAR jisx0208_212C
ENCODING 8492
SWIDTH 960 0
DWIDTH 8 0
BBX 8 8 0 -2
BITMAP
00
60
B0
60
00
00
00
00
ENDCHAR

STARTCHAR jisx0208_212D
ENCODING 8493
SWIDTH 960 0
DWIDTH 8 0
BBX 8 8 0 -2
BITMAP
0C
18
00
00
00
00
00
00
ENDCHAR

STARTCHAR jisx0208_212E
ENCODING 8494
SWIDTH 960 0
DWIDTH 8 0
BBX 8 8 0 -2
BITMAP
18
0C
00
00
00
00
00
00
ENDCHAR

STARTCHAR jisx0208_212F
ENCODING 8495
SWIDTH 960 0
DWIDTH 8 0
BBX 8 8 0 -2
BITMAP
36
36
00
00
00
00
00
00
ENDCHAR

STARTCHAR jisx0208_2130
ENCODING 8496
SWIDTH 960 0
DWIDTH 8 0
BBX 8 8 0 -2
BITMAP
18
2C
00
00
00
00
00
00
ENDCHAR

STARTCHAR jisx0208_2131
ENCODING 8497
SWIDTH 960 0
DWIDTH 8 0
BBX 8 8 0 -2
BITMAP
FF
00
00
00
00
00
00
00
ENDCHAR

STARTCHAR jisx0208_2132
ENCODING 8498
SWIDTH 960 0
DWIDTH 8 0
BBX 8 8 0 -2
BITMAP
00
00
00
00
00
00
00
FF
ENDCHAR

STARTCHAR jisx0208_2133
ENCODING 8499
SWIDTH 960 0
DWIDTH 8 0
BBX 8 8 0 -2
BITMAP
00
00
30
18
0C
06
06
00
ENDCHAR

STARTCHAR jisx0208_2134
ENCODING 8500
SWIDTH 960 0
DWIDTH 8 0
BBX 8 8 0 -2
BITMAP
00
07
30
18
0C
06
06
00
ENDCHAR

STARTCHAR jisx0208_2135
ENCODING 8501
SWIDTH 960 0
DWIDTH 8 0
BBX 8 8 0 -2
BITMAP
00
00
30
18
0C
06
0E
00
ENDCHAR

STARTCHAR jisx0208_2136
ENCODING 8502
SWIDTH 960 0
DWIDTH 8 0
BBX 8 8 0 -2
BITMAP
00
07
30
18
0C
06
0E
00
ENDCHAR

STARTCHAR jisx0208_2137
ENCODING 8503
SWIDTH 960 0
DWIDTH 8 0
BBX 8 8 0 -2
BITMAP
00
00
16
16
2C
2C
00
00
ENDCHAR

STARTCHAR jisx0208_2138
ENCODING 8504
SWIDTH 960 0
DWIDTH 8 0
BBX 8 8 0 -2
BITMAP
1C
36
63
C1
7F
18
18
FF
ENDCHAR

STARTCHAR jisx0208_2139
ENCODING 8505
SWIDTH 960 0
DWIDTH 8 0
BBX 8 8 0 -2
BITMAP
30
30
3F
63
C6
2C
18
0C
ENDCHAR

STARTCHAR jisx0208_213A
ENCODING 8506
SWIDTH 960 0
DWIDTH 8 0
BBX 8 8 0 -2
BITMAP
01
03
76
DC
D6
B3
E0
C0
ENDCHAR

STARTCHAR jisx0208_213B
ENCODING 8507
SWIDTH 960 0
DWIDTH 8 0
BBX 8 8 0 -2
BITMAP
00
3C
66
C3
C3
C3
66
3C
ENDCHAR

STARTCHAR jisx0208_213C
ENCODING 8508
SWIDTH 960 0
DWIDTH 8 0
BBX 8 8 0 -2
BITMAP
00
00
00
7F
00
00
00
00
ENDCHAR

STARTCHAR jisx0208_213D
ENCODING 8509
SWIDTH 960 0
DWIDTH 8 0
BBX 8 8 0 -2
BITMAP
00
00
00
FF
00
00
00
00
ENDCHAR

STARTCHAR jisx0208_213E
ENCODING 8510
SWIDTH 960 0
DWIDTH 8 0
BBX 8 8 0 -2
BITMAP
00
00
00
1C
00
00
00
00
ENDCHAR

STARTCHAR jisx0208_213F
ENCODING 8511
SWIDTH 960 0
DWIDTH 8 0
BBX 8 8 0 -2
BITMAP
01
03
06
0C
18
30
60
C0
ENDCHAR

STARTCHAR jisx0208_2140
ENCODING 8512
SWIDTH 960 0
DWIDTH 8 0
BBX 8 8 0 -2
BITMAP
C0
60
30
18
0C
06
03
01
ENDCHAR

STARTCHAR jisx0208_2141
ENCODING 8513
SWIDTH 960 0
DWIDTH 8 0
BBX 8 8 0 -2
BITMAP
00
00
00
79
CF
00
00
00
ENDCHAR

STARTCHAR jisx0208_2142
ENCODING 8514
SWIDTH 960 0
DWIDTH 8 0
BBX 8 8 0 -2
BITMAP
36
36
36
36
36
36
36
36
ENDCHAR

STARTCHAR jisx0208_2143
ENCODING 8515
SWIDTH 960 0
DWIDTH 8 0
BBX 8 8 0 -2
BITMAP
18
18
18
18
18
18
18
18
ENDCHAR

STARTCHAR jisx0208_2144
ENCODING 8516
SWIDTH 960 0
DWIDTH 8 0
BBX 8 8 0 -2
BITMAP
00
00
00
DB
DB
00
00
00
ENDCHAR

STARTCHAR jisx0208_2145
ENCODING 8517
SWIDTH 960 0
DWIDTH 8 0
BBX 8 8 0 -2
BITMAP
00
00
00
66
66
00
00
00
ENDCHAR

STARTCHAR jisx0208_2146
ENCODING 8518
SWIDTH 960 0
DWIDTH 8 0
BBX 8 8 0 -2
BITMAP
03
06
07
00
00
00
00
00
ENDCHAR

STARTCHAR jisx0208_2147
ENCODING 8519
SWIDTH 960 0
DWIDTH 8 0
BBX 8 8 0 -2
BITMAP
70
30
60
00
00
00
00
00
ENDCHAR

STARTCHAR jisx0208_2148
ENCODING 8520
SWIDTH 960 0
DWIDTH 8 0
BBX 8 8 0 -2
BITMAP
0D
1B
1B
00
00
00
00
00
ENDCHAR

STARTCHAR jisx0208_2149
ENCODING 8521
SWIDTH 960 0
DWIDTH 8 0
BBX 8 8 0 -2
BITMAP
DC
6C
D8
00
00
00
00
00
ENDCHAR

STARTCHAR jisx0208_214A
ENCODING 8522
SWIDTH 960 0
DWIDTH 8 0
BBX 8 8 0 -2
BITMAP
01
03
06
06
06
06
03
01
ENDCHAR

STARTCHAR jisx0208_214B
ENCODING 8523
SWIDTH 960 0
DWIDTH 8 0
BBX 8 8 0 -2
BITMAP
C0
60
30
30
30
30
60
C0
ENDCHAR

STARTCHAR jisx0208_214C
ENCODING 8524
SWIDTH 960 0
DWIDTH 8 0
BBX 8 8 0 -2
BITMAP
01
07
06
06
06
06
07
01
ENDCHAR

STARTCHAR jisx0208_214D
ENCODING 8525
SWIDTH 960 0
DWIDTH 8 0
BBX 8 8 0 -2
BITMAP
C0
70
30
30
30
30
70
C0
ENDCHAR

STARTCHAR jisx0208_214E
ENCODING 8526
SWIDTH 960 0
DWIDTH 8 0
BBX 8 8 0 -2
BITMAP
07
06
06
06
06
06
06
07
ENDCHAR

STARTCHAR jisx0208_214F
ENCODING 8527
SWIDTH 960 0
DWIDTH 8 0
BBX 8 8 0 -2
BITMAP
F0
30
30
30
30
30
30
F0
ENDCHAR

STARTCHAR jisx0208_2150
ENCODING 8528
SWIDTH 960 0
DWIDTH 8 0
BBX 8 8 0 -2
BITMAP
03
03
03
06
03
03
03
03
ENDCHAR

STARTCHAR jisx0208_2151
ENCODING 8529
SWIDTH 960 0
DWIDTH 8 0
BBX 8 8 0 -2
BITMAP
E0
60
60
30
60
60
60
E0
ENDCHAR

STARTCHAR jisx0208_2152
ENCODING 8530
SWIDTH 960 0
DWIDTH 8 0
BBX 8 8 0 -2
BITMAP
01
03
03
06
06
03
03
01
ENDCHAR

STARTCHAR jisx0208_2153
ENCODING 8531
SWIDTH 960 0
DWIDTH 8 0
BBX 8 8 0 -2
BITMAP
C0
60
60
30
30
60
60
C0
ENDCHAR

STARTCHAR jisx0208_2154
ENCODING 8532
SWIDTH 960 0
DWIDTH 8 0
BBX 8 8 0 -2
BITMAP
05
0B
0B
16
16
0B
0B
05
ENDCHAR

STARTCHAR jisx0208_2155
ENCODING 8533
SWIDTH 960 0
DWIDTH 8 0
BBX 8 8 0 -2
BITMAP
B0
58
58
2C
2C
58
58
B0
ENDCHAR

STARTCHAR jisx0208_2156
ENCODING 8534
SWIDTH 960 0
DWIDTH 8 0
BBX 8 8 0 -2
BITMAP
07
06
06
06
06
06
06
06
ENDCHAR

STARTCHAR jisx0208_2157
ENCODING 8535
SWIDTH 960 0
DWIDTH 8 0
BBX 8 8 0 -2
BITMAP
30
30
30
30
30
30
30
F0
ENDCHAR

STARTCHAR jisx0208_2158
ENCODING 8536
SWIDTH 960 0
DWIDTH 8 0
BBX 8 8 0 -2
BITMAP
0F
0D
0B
0B
0B
0B
0B
0F
ENDCHAR

STARTCHAR jisx0208_2159
ENCODING 8537
SWIDTH 960 0
DWIDTH 8 0
BBX 8 8 0 -2
BITMAP
78
58
58
58
58
D8
D8
F8
ENDCHAR

STARTCHAR jisx0208_215A
ENCODING 8538
SWIDTH 960 0
DWIDTH 8 0
BBX 8 8 0 -2
BITMAP
07
07
06
06
06
06
07
07
ENDCHAR

STARTCHAR jisx0208_215B
ENCODING 8539
SWIDTH 960 0
DWIDTH 8 0
BBX 8 8 0 -2
BITMAP
F0
70
30
30
30
30
70
F0
ENDCHAR

STARTCHAR jisx0208_215C
ENCODING 8540
SWIDTH 960 0
DWIDTH 8 0
BBX 8 8 0 -2
BITMAP
00
18
18
7E
18
18
00
00
ENDCHAR

STARTCHAR jisx0208_215D
ENCODING 8541
SWIDTH 960 0
DWIDTH 8 0
BBX 8 8 0 -2
BITMAP
00
00
00
7E
00
00
00
00
ENDCHAR

STARTCHAR jisx0208_215E
ENCODING 8542
SWIDTH 960 0
DWIDTH 8 0
BBX 8 8 0 -2
BITMAP
00
18
7E
18
00
7E
00
00
ENDCHAR

STARTCHAR jisx0208_215F
ENCODING 8543
SWIDTH 960 0
DWIDTH 8 0
BBX 8 8 0 -2
BITMAP
00
66
2C
18
2C
66
00
00
ENDCHAR

STARTCHAR jisx0208_2160
ENCODING 8544
SWIDTH 960 0
DWIDTH 8 0
BBX 8 8 0 -2
BITMAP
00
1C
00
7F
00
1C
00
00
ENDCHAR

STARTCHAR jisx0208_2161
ENCODING 8545
SWIDTH 960 0
DWIDTH 8 0
BBX 8 8 0 -2
BITMAP
00
00
7E
00
7E
00
00
00
ENDCHAR

STARTCHAR jisx0208_2162
ENCODING 8546
SWIDTH 960 0
DWIDTH 8 0
BBX 8 8 0 -2
BITMAP
00
0C
7E
18
7E
30
00
00
ENDCHAR

STARTCHAR jisx0208_2163
ENCODING 8547
SWIDTH 960 0
DWIDTH 8 0
BBX 8 8 0 -2
BITMAP
00
07
1C
70
1C
07
00
00
ENDCHAR

STARTCHAR jisx0208_2164
ENCODING 8548
SWIDTH 960 0
DWIDTH 8 0
BBX 8 8 0 -2
BITMAP
00
70
1C
07
1C
70
00
00
ENDCHAR

STARTCHAR jisx0208_2165
ENCODING 8549
SWIDTH 960 0
DWIDTH 8 0
BBX 8 8 0 -2
BITMAP
1F
70
1F
00
7F
00
7F
00
ENDCHAR

STARTCHAR jisx0208_2166
ENCODING 8550
SWIDTH 960 0
DWIDTH 8 0
BBX 8 8 0 -2
BITMAP
7C
07
7C
00
7F
00
7F
00
ENDCHAR

STARTCHAR jisx0208_2167
ENCODING 8551
SWIDTH 960 0
DWIDTH 8 0
BBX 8 8 0 -2
BITMAP
00
00
77
DD
DD
77
00
00
ENDCHAR

STARTCHAR jisx0208_2168
ENCODING 8552
SWIDTH 960 0
DWIDTH 8 0
BBX 8 8 0 -2
BITMAP
00
18
18
00
00
66
66
00
ENDCHAR

STARTCHAR jisx0208_2169
ENCODING 8553
SWIDTH 960 0
DWIDTH 8 0
BBX 8 8 0 -2
BITMAP
0F
03
05
7D
CC
CC
CC
78
ENDCHAR

STARTCHAR jisx0208_216A
ENCODING 8554
SWIDTH 960 0
DWIDTH 8 0
BBX 8 8 0 -2
BITMAP
3C
66
66
66
3C
18
7E
18
ENDCHAR

STARTCHAR jisx0208_216B
ENCODING 8555
SWIDTH 960 0
DWIDTH 8 0
BBX 8 8 0 -2
BITMAP
60
B0
60
00
00
00
00
00
ENDCHAR

STARTCHAR jisx0208_216C
ENCODING 8556
SWIDTH 960 0
DWIDTH 8 0
BBX 8 8 0 -2
BITMAP
60
C0
00
00
00
00
00
00
ENDCHAR

STARTCHAR jisx0208_216D
ENCODING 8557
SWIDTH 960 0
DWIDTH 8 0
BBX 8 8 0 -2
BITMAP
58
B0
00
00
00
00
00
00
ENDCHAR

STARTCHAR jisx0208_216E
ENCODING 8558
SWIDTH 960 0
DWIDTH 8 0
BBX 8 8 0 -2
BITMAP
60
AF
59
18
18
19
0F
00
ENDCHAR

STARTCHAR jisx0208_216F
ENCODING 8559
SWIDTH 960 0
DWIDTH 8 0
BBX 8 8 0 -2
BITMAP
00
66
2C
7E
18
7E
18
00
ENDCHAR

STARTCHAR jisx0208_2170
ENCODING 8560
SWIDTH 960 0
DWIDTH 8 0
BBX 8 8 0 -2
BITMAP
18
3C
56
38
1C
56
3C
18
ENDCHAR

STARTCHAR jisx0208_2171
ENCODING 8561
SWIDTH 960 0
DWIDTH 8 0
BBX 8 8 0 -2
BITMAP
00
0C
3C
6E
58
56
3C
30
ENDCHAR

STARTCHAR jisx0208_2172
ENCODING 8562
SWIDTH 960 0
DWIDTH 8 0
BBX 8 8 0 -2
BITMAP
00
1E
18
7E
18
7B
6E
00
ENDCHAR

STARTCHAR jisx0208_2173
ENCODING 8563
SWIDTH 960 0
DWIDTH 8 0
BBX 8 8 0 -2
BITMAP
00
63
B6
6C
1B
35
63
00
ENDCHAR

STARTCHAR jisx0208_2174
ENCODING 8564
SWIDTH 960 0
DWIDTH 8 0
BBX 8 8 0 -2
BITMAP
00
1B
7F
36
36
7F
36
00
ENDCHAR

STARTCHAR jisx0208_2175
ENCODING 8565
SWIDTH 960 0
DWIDTH 8 0
BBX 8 8 0 -2
BITMAP
00
18
2C
18
2B
66
3B
00
ENDCHAR

STARTCHAR jisx0208_2176
ENCODING 8566
SWIDTH 960 0
DWIDTH 8 0
BBX 8 8 0 -2
BITMAP
00
18
56
3C
3C
56
18
00
ENDCHAR

STARTCHAR jisx0208_2177
ENCODING 8567
SWIDTH 960 0
DWIDTH 8 0
BBX 8 8 0 -2
BITMAP
3E
63
DD
B5
B5
DB
60
3E
ENDCHAR

STARTCHAR jisx0208_2178
ENCODING 8568
SWIDTH 960 0
DWIDTH 8 0
BBX 8 8 0 -2
BITMAP
1E
30
1C
36
36
1C
06
3C
ENDCHAR

STARTCHAR jisx0208_2179
ENCODING 8569
SWIDTH 960 0
DWIDTH 8 0
BBX 8 8 0 -2
BITMAP
1C
1C
1C
F7
63
36
7F
63
ENDCHAR

STARTCHAR jisx0208_217A
ENCODING 8570
SWIDTH 960 0
DWIDTH 8 0
BBX 8 8 0 -2
BITMAP
1C
1C
1C
FF
7F
3E
7F
63
ENDCHAR

STARTCHAR jisx0208_217B
ENCODING 8571
SWIDTH 960 0
DWIDTH 8 0
BBX 8 8 0 -2
BITMAP
3C
66
C3
C3
C3
66
3C
00
ENDCHAR

STARTCHAR jisx0208_217C
ENCODING 8572
SWIDTH 960 0
DWIDTH 8 0
BBX 8 8 0 -2
BITMAP
3C
7E
FF
FF
FF
7E
3C
00
ENDCHAR

STARTCHAR jisx0208_217D
ENCODING 8573
SWIDTH 960 0
DWIDTH 8 0
BBX 8 8 0 -2
BITMAP
3E
63
DD
B5
B5
DD
63
3E
ENDCHAR

STARTCHAR jisx0208_217E
ENCODING 8574
SWIDTH 960 0
DWIDTH 8 0
BBX 8 8 0 -2
BITMAP
1C
36
63
C1
C1
63
36
1C
ENDCHAR

STARTCHAR jisx0208_2221
ENCODING 8737
SWIDTH 960 0
DWIDTH 8 0
BBX 8 8 0 -2
BITMAP
1C
3E
7F
FF
FF
7F
3E
1C
ENDCHAR

STARTCHAR jisx0208_2222
ENCODING 8738
SWIDTH 960 0
DWIDTH 8 0
BBX 8 8 0 -2
BITMAP
00
7F
63
63
63
63
7F
00
ENDCHAR

STARTCHAR jisx0208_2223
ENCODING 8739
SWIDTH 960 0
DWIDTH 8 0
BBX 8 8 0 -2
BITMAP
00
7F
7F
7F
7F
7F
7F
00
ENDCHAR

STARTCHAR jisx0208_2224
ENCODING 8740
SWIDTH 960 0
DWIDTH 8 0
BBX 8 8 0 -2
BITMAP
00
1C
1C
36
63
63
FF
00
ENDCHAR

STARTCHAR jisx0208_2225
ENCODING 8741
SWIDTH 960 0
DWIDTH 8 0
BBX 8 8 0 -2
BITMAP
00
1C
1C
3E
7F
7F
FF
00
ENDCHAR

STARTCHAR jisx0208_2226
ENCODING 8742
SWIDTH 960 0
DWIDTH 8 0
BBX 8 8 0 -2
BITMAP
00
FF
63
63
36
1C
1C
00
ENDCHAR

STARTCHAR jisx0208_2227
ENCODING 8743
SWIDTH 960 0
DWIDTH 8 0
BBX 8 8 0 -2
BITMAP
00
FF
7F
7F
3E
1C
1C
00
ENDCHAR

STARTCHAR jisx0208_2228
ENCODING 8744
SWIDTH 960 0
DWIDTH 8 0
BBX 8 8 0 -2
BITMAP
DB
66
2C
DB
2C
66
DB
00
ENDCHAR

STARTCHAR jisx0208_2229
ENCODING 8745
SWIDTH 960 0
DWIDTH 8 0
BBX 8 8 0 -2
BITMAP
00
FF
00
FF
18
18
18
00
ENDCHAR

STARTCHAR jisx0208_222A
ENCODING 8746
SWIDTH 960 0
DWIDTH 8 0
BBX 8 8 0 -2
BITMAP
00
06
03
FF
03
06
00
00
ENDCHAR

STARTCHAR jisx0208_222B
ENCODING 8747
SWIDTH 960 0
DWIDTH 8 0
BBX 8 8 0 -2
BITMAP
00
30
60
FF
60
30
00
00
ENDCHAR

STARTCHAR jisx0208_222C
ENCODING 8748
SWIDTH 960 0
DWIDTH 8 0
BBX 8 8 0 -2
BITMAP
18
3C
56
18
18
18
18
18
ENDCHAR

STARTCHAR jisx0208_222D
ENCODING 8749
SWIDTH 960 0
DWIDTH 8 0
BBX 8 8 0 -2
BITMAP
18
18
18
18
18
56
3C
18
ENDCHAR

STARTCHAR jisx0208_222E
ENCODING 8750
SWIDTH 960 0
DWIDTH 8 0
BBX 8 8 0 -2
BITMAP
00
7F
7F
00
7F
7F
00
00
ENDCHAR

STARTCHAR jisx0208_222F
ENCODING 8751
SWIDTH 960 0
DWIDTH 8 0
BBX 8 8 0 -2
BITMAP
00
63
00
00
00
00
63
00
ENDCHAR

STARTCHAR jisx0208_223A
ENCODING 8762
SWIDTH 960 0
DWIDTH 8 0
BBX 8 8 0 -2
BITMAP
00
3F
60
7F
60
3F
00
00
ENDCHAR

STARTCHAR jisx0208_223B
ENCODING 8763
SWIDTH 960 0
DWIDTH 8 0
BBX 8 8 0 -2
BITMAP
00
7E
03
7F
03
7E
00
00
ENDCHAR

STARTCHAR jisx0208_223C
ENCODING 8764
SWIDTH 960 0
DWIDTH 8 0
BBX 8 8 0 -2
BITMAP
00
3F
60
60
3F
00
7F
00
ENDCHAR

STARTCHAR jisx0208_223D
ENCODING 8765
SWIDTH 960 0
DWIDTH 8 0
BBX 8 8 0 -2
BITMAP
00
7E
03
03
7E
00
7F
00
ENDCHAR

STARTCHAR jisx0208_223E
ENCODING 8766
SWIDTH 960 0
DWIDTH 8 0
BBX 8 8 0 -2
BITMAP
00
00
3F
60
60
3F
00
00
ENDCHAR

STARTCHAR jisx0208_223F
ENCODING 8767
SWIDTH 960 0
DWIDTH 8 0
BBX 8 8 0 -2
BITMAP
00
00
7E
03
03
7E
00
00
ENDCHAR

STARTCHAR jisx0208_2240
ENCODING 8768
SWIDTH 960 0
DWIDTH 8 0
BBX 8 8 0 -2
BITMAP
00
36
36
36
36
36
1C
00
ENDCHAR

STARTCHAR jisx0208_2241
ENCODING 8769
SWIDTH 960 0
DWIDTH 8 0
BBX 8 8 0 -2
BITMAP
00
1C
36
36
36
36
36
00
ENDCHAR

STARTCHAR jisx0208_224A
ENCODING 8778
SWIDTH 960 0
DWIDTH 8 0
BBX 8 8 0 -2
BITMAP
00
18
18
2C
2C
66
66
00
ENDCHAR

STARTCHAR jisx0208_224B
ENCODING 8779
SWIDTH 960 0
DWIDTH 8 0
BBX 8 8 0 -2
BITMAP
00
66
66
2C
2C
18
18
00
ENDCHAR

STARTCHAR jisx0208_224C
ENCODING 8780
SWIDTH 960 0
DWIDTH 8 0
BBX 8 8 0 -2
BITMAP
00
00
00
7F
03
00
00
00
ENDCHAR

STARTCHAR jisx0208_224D
ENCODING 8781
SWIDTH 960 0
DWIDTH 8 0
BBX 8 8 0 -2
BITMAP
00
06
FF
01
FF
06
00
00
ENDCHAR

STARTCHAR jisx0208_224E
ENCODING 8782
SWIDTH 960 0
DWIDTH 8 0
BBX 8 8 0 -2
BITMAP
00
36
7F
C1
7F
36
00
00
ENDCHAR

STARTCHAR jisx0208_224F
ENCODING 8783
SWIDTH 960 0
DWIDTH 8 0
BBX 8 8 0 -2
BITMAP
00
66
7E
2C
2C
18
18
00
ENDCHAR

STARTCHAR jisx0208_2250
ENCODING 8784
SWIDTH 960 0
DWIDTH 8 0
BBX 8 8 0 -2
BITMAP
00
3E
06
3E
06
06
3E
00
ENDCHAR

STARTCHAR jisx0208_225C
ENCODING 8796
SWIDTH 960 0
DWIDTH 8 0
BBX 8 8 0 -2
BITMAP
00
03
06
0C
18
30
7F
00
ENDCHAR

STARTCHAR jisx0208_225D
ENCODING 8797
SWIDTH 960 0
DWIDTH 8 0
BBX 8 8 0 -2
BITMAP
00
18
18
18
18
18
7E
00
ENDCHAR

STARTCHAR jisx0208_225E
ENCODING 8798
SWIDTH 960 0
DWIDTH 8 0
BBX 8 8 0 -2
BITMAP
3E
63
C1
00
00
00
00
00
ENDCHAR

STARTCHAR jisx0208_225F
ENCODING 8799
SWIDTH 960 0
DWIDTH 8 0
BBX 8 8 0 -2
BITMAP
00
3C
06
1E
36
36
1C
00
ENDCHAR

STARTCHAR jisx0208_2260
ENCODING 8800
SWIDTH 960 0
DWIDTH 8 0
BBX 8 8 0 -2
BITMAP
00
FF
76
76
3C
3C
18
00
ENDCHAR

STARTCHAR jisx0208_2261
ENCODING 8801
SWIDTH 960 0
DWIDTH 8 0
BBX 8 8 0 -2
BITMAP
00
7F
00
7F
00
7F
00
00
ENDCHAR

STARTCHAR jisx0208_2262
ENCODING 8802
SWIDTH 960 0
DWIDTH 8 0
BBX 8 8 0 -2
BITMAP
70
00
7F
00
7F
00
07
00
ENDCHAR

STARTCHAR jisx0208_2263
ENCODING 8803
SWIDTH 960 0
DWIDTH 8 0
BBX 8 8 0 -2
BITMAP
00
1B
36
6C
6C
36
1B
00
ENDCHAR

STARTCHAR jisx0208_2264
ENCODING 8804
SWIDTH 960 0
DWIDTH 8 0
BBX 8 8 0 -2
BITMAP
00
6C
36
1B
1B
36
6C
00
ENDCHAR

STARTCHAR jisx0208_2265
ENCODING 8805
SWIDTH 960 0
DWIDTH 8 0
BBX 8 8 0 -2
BITMAP
0F
0C
0C
18
58
B0
30
00
ENDCHAR

STARTCHAR jisx0208_2266
ENCODING 8806
SWIDTH 960 0
DWIDTH 8 0
BBX 8 8 0 -2
BITMAP
00
00
77
CD
D9
77
00
00
ENDCHAR

STARTCHAR jisx0208_2267
ENCODING 8807
SWIDTH 960 0
DWIDTH 8 0
BBX 8 8 0 -2
BITMAP
00
00
77
DC
DC
77
00
00
ENDCHAR

STARTCHAR jisx0208_2268
ENCODING 8808
SWIDTH 960 0
DWIDTH 8 0
BBX 8 8 0 -2
BITMAP
00
66
66
00
00
18
18
00
ENDCHAR

STARTCHAR jisx0208_2269
ENCODING 8809
SWIDTH 960 0
DWIDTH 8 0
BBX 8 8 0 -2
BITMAP
0C
16
18
18
0C
0C
2C
18
ENDCHAR

STARTCHAR jisx0208_226A
ENCODING 8810
SWIDTH 960 0
DWIDTH 8 0
BBX 8 8 0 -2
BITMAP
36
5B
6C
6C
36
36
B6
6C
ENDCHAR

STARTCHAR jisx0208_2272
ENCODING 8818
SWIDTH 960 0
DWIDTH 8 0
BBX 8 8 0 -2
BITMAP
18
2C
18
2C
2C
7E
66
00
ENDCHAR

STARTCHAR jisx0208_2273
ENCODING 8819
SWIDTH 960 0
DWIDTH 8 0
BBX 8 8 0 -2
BITMAP
00
66
AC
58
2B
55
CB
00
ENDCHAR

STARTCHAR jisx0208_2274
ENCODING 8820
SWIDTH 960 0
DWIDTH 8 0
BBX 8 8 0 -2
BITMAP
0C
2C
3E
6C
2C
3E
6C
30
ENDCHAR

STARTCHAR jisx0208_2275
ENCODING 8821
SWIDTH 960 0
DWIDTH 8 0
BBX 8 8 0 -2
BITMAP
30
30
30
3C
36
36
2C
38
ENDCHAR

STARTCHAR jisx0208_2276
ENCODING 8822
SWIDTH 960 0
DWIDTH 8 0
BBX 8 8 0 -2
BITMAP
18
1C
16
1B
1B
16
78
70
ENDCHAR

STARTCHAR jisx0208_2277
ENCODING 8823
SWIDTH 960 0
DWIDTH 8 0
BBX 8 8 0 -2
BITMAP
18
7E
18
3C
18
18
18
3C
ENDCHAR

STARTCHAR jisx0208_2278
ENCODING 8824
SWIDTH 960 0
DWIDTH 8 0
BBX 8 8 0 -2
BITMAP
18
7E
18
3C
18
18
7E
18
ENDCHAR

STARTCHAR jisx0208_2279
ENCODING 8825
SWIDTH 960 0
DWIDTH 8 0
BBX 8 8 0 -2
BITMAP
3F
76
76
36
16
16
16
16
ENDCHAR

STARTCHAR jisx0208_227E
ENCODING 8830
SWIDTH 960 0
DWIDTH 8 0
BBX 8 8 0 -2
BITMAP
3E
63
C1
C1
C1
C1
63
3E
ENDCHAR

STARTCHAR jisx0208_2330
ENCODING 9008
SWIDTH 960 0
DWIDTH 8 0
BBX 8 8 0 -2
BITMAP
00
3C
66
66
66
66
3C
00
ENDCHAR

STARTCHAR jisx0208_2331
ENCODING 9009
SWIDTH 960 0
DWIDTH 8 0
BBX 8 8 0 -2
BITMAP
00
18
38
18
18
18
18
00
ENDCHAR

STARTCHAR jisx0208_2332
ENCODING 9010
SWIDTH 960 0
DWIDTH 8 0
BBX 8 8 0 -2
BITMAP
00
3C
66
06
3C
60
7E
00
ENDCHAR

STARTCHAR jisx0208_2333
ENCODING 9011
SWIDTH 960 0
DWIDTH 8 0
BBX 8 8 0 -2
BITMAP
00
3C
66
1C
06
66
3C
00
ENDCHAR

STARTCHAR jisx0208_2334
ENCODING 9012
SWIDTH 960 0
DWIDTH 8 0
BBX 8 8 0 -2
BITMAP
00
06
0E
16
36
7F
06
00
ENDCHAR

STARTCHAR jisx0208_2335
ENCODING 9013
SWIDTH 960 0
DWIDTH 8 0
BBX 8 8 0 -2
BITMAP
00
7E
60
7C
06
06
7C
00
ENDCHAR

STARTCHAR jisx0208_2336
ENCODING 9014
SWIDTH 960 0
DWIDTH 8 0
BBX 8 8 0 -2
BITMAP
00
3E
60
7C
66
66
3C
00
ENDCHAR

STARTCHAR jisx0208_2337
ENCODING 9015
SWIDTH 960 0
DWIDTH 8 0
BBX 8 8 0 -2
BITMAP
00
7E
06
0C
18
18
18
00
ENDCHAR

STARTCHAR jisx0208_2338
ENCODING 9016
SWIDTH 960 0
DWIDTH 8 0
BBX 8 8 0 -2
BITMAP
00
3C
66
3C
66
66
3C
00
ENDCHAR

STARTCHAR jisx0208_2339
ENCODING 9017
SWIDTH 960 0
DWIDTH 8 0
BBX 8 8 0 -2
BITMAP
00
3C
66
66
3E
06
7C
00
ENDCHAR

STARTCHAR jisx0208_2341
ENCODING 9025
SWIDTH 960 0
DWIDTH 8 0
BBX 8 8 0 -2
BITMAP
00
18
2C
2C
66
7E
66
00
ENDCHAR

STARTCHAR jisx0208_2342
ENCODING 9026
SWIDTH 960 0
DWIDTH 8 0
BBX 8 8 0 -2
BITMAP
00
7C
66
7C
66
66
7C
00
ENDCHAR

STARTCHAR jisx0208_2343
ENCODING 9027
SWIDTH 960 0
DWIDTH 8 0
BBX 8 8 0 -2
BITMAP
00
3C
66
60
60
66
3C
00
ENDCHAR

STARTCHAR jisx0208_2344
ENCODING 9028
SWIDTH 960 0
DWIDTH 8 0
BBX 8 8 0 -2
BITMAP
00
7C
66
66
66
66
7C
00
ENDCHAR

STARTCHAR jisx0208_2345
ENCODING 9029
SWIDTH 960 0
DWIDTH 8 0
BBX 8 8 0 -2
BITMAP
00
7E
60
7C
60
60
7E
00
ENDCHAR

STARTCHAR jisx0208_2346
ENCODING 9030
SWIDTH 960 0
DWIDTH 8 0
BBX 8 8 0 -2
BITMAP
00
3F
30
3E
30
30
30
00
ENDCHAR

STARTCHAR jisx0208_2347
ENCODING 9031
SWIDTH 960 0
DWIDTH 8 0
BBX 8 8 0 -2
BITMAP
00
3C
66
60
6E
66
3E
00
ENDCHAR

STARTCHAR jisx0208_2348
ENCODING 9032
SWIDTH 960 0
DWIDTH 8 0
BBX 8 8 0 -2
BITMAP
00
66
66
7E
66
66
66
00
ENDCHAR

STARTCHAR jisx0208_2349
ENCODING 9033
SWIDTH 960 0
DWIDTH 8 0
BBX 8 8 0 -2
BITMAP
00
3C
18
18
18
18
3C
00
ENDCHAR

STARTCHAR jisx0208_234A
ENCODING 9034
SWIDTH 960 0
DWIDTH 8 0
BBX 8 8 0 -2
BITMAP
00
06
06
06
06
36
1C
00
ENDCHAR

STARTCHAR jisx0208_234B
ENCODING 9035
SWIDTH 960 0
DWIDTH 8 0
BBX 8 8 0 -2
BITMAP
00
66
6C
58
78
6C
66
00
ENDCHAR

STARTCHAR jisx0208_234C
ENCODING 9036
SWIDTH 960 0
DWIDTH 8 0
BBX 8 8 0 -2
BITMAP
00
30
30
30
30
30
3F
00
ENDCHAR

STARTCHAR jisx0208_234D
ENCODING 9037
SWIDTH 960 0
DWIDTH 8 0
BBX 8 8 0 -2
BITMAP
00
63
63
77
77
5B
5B
00
ENDCHAR

STARTCHAR jisx0208_234E
ENCODING 9038
SWIDTH 960 0
DWIDTH 8 0
BBX 8 8 0 -2
BITMAP
00
66
76
56
56
6E
66
00
ENDCHAR

STARTCHAR jisx0208_234F
ENCODING 9039
SWIDTH 960 0
DWIDTH 8 0
BBX 8 8 0 -2
BITMAP
00
3E
63
63
63
63
3E
00
ENDCHAR

STARTCHAR jisx0208_2350
ENCODING 9040
SWIDTH 960 0
DWIDTH 8 0
BBX 8 8 0 -2
BITMAP
00
3E
33
33
3E
30
30
00
ENDCHAR

STARTCHAR jisx0208_2351
ENCODING 9041
SWIDTH 960 0
DWIDTH 8 0
BBX 8 8 0 -2
BITMAP
00
3E
63
63
6B
67
3F
00
ENDCHAR

STARTCHAR jisx0208_2352
ENCODING 9042
SWIDTH 960 0
DWIDTH 8 0
BBX 8 8 0 -2
BITMAP
00
7C
66
66
7C
66
66
00
ENDCHAR

STARTCHAR jisx0208_2353
ENCODING 9043
SWIDTH 960 0
DWIDTH 8 0
BBX 8 8 0 -2
BITMAP
00
3E
60
3C
06
66
3C
00
ENDCHAR

STARTCHAR jisx0208_2354
ENCODING 9044
SWIDTH 960 0
DWIDTH 8 0
BBX 8 8 0 -2
BITMAP
00
7E
18
18
18
18
18
00
ENDCHAR

STARTCHAR jisx0208_2355
ENCODING 9045
SWIDTH 960 0
DWIDTH 8 0
BBX 8 8 0 -2
BITMAP
00
66
66
66
66
66
3C
00
ENDCHAR

STARTCHAR jisx0208_2356
ENCODING 9046
SWIDTH 960 0
DWIDTH 8 0
BBX 8 8 0 -2
BITMAP
00
66
66
66
2C
2C
18
00
ENDCHAR

STARTCHAR jisx0208_2357
ENCODING 9047
SWIDTH 960 0
DWIDTH 8 0
BBX 8 8 0 -2
BITMAP
00
DB
DB
AB
AB
66
66
00
ENDCHAR

STARTCHAR jisx0208_2358
ENCODING 9048
SWIDTH 960 0
DWIDTH 8 0
BBX 8 8 0 -2
BITMAP
00
66
2C
18
18
2C
66
00
ENDCHAR

STARTCHAR jisx0208_2359
ENCODING 9049
SWIDTH 960 0
DWIDTH 8 0
BBX 8 8 0 -2
BITMAP
00
66
66
2C
18
18
18
00
ENDCHAR

STARTCHAR jisx0208_235A
ENCODING 9050
SWIDTH 960 0
DWIDTH 8 0
BBX 8 8 0 -2
BITMAP
00
3E
06
0C
18
30
3E
00
ENDCHAR

STARTCHAR jisx0208_2361
ENCODING 9057
SWIDTH 960 0
DWIDTH 8 0
BBX 8 8 0 -2
BITMAP
00
00
3C
06
3E
66
3E
00
ENDCHAR

STARTCHAR jisx0208_2362
ENCODING 9058
SWIDTH 960 0
DWIDTH 8 0
BBX 8 8 0 -2
BITMAP
00
60
7C
66
66
66
7C
00
ENDCHAR

STARTCHAR jisx0208_2363
ENCODING 9059
SWIDTH 960 0
DWIDTH 8 0
BBX 8 8 0 -2
BITMAP
00
00
3C
66
60
66
3C
00
ENDCHAR

STARTCHAR jisx0208_2364
ENCODING 9060
SWIDTH 960 0
DWIDTH 8 0
BBX 8 8 0 -2
BITMAP
00
06
3E
66
66
66
3E
00
ENDCHAR

STARTCHAR jisx0208_2365
ENCODING 9061
SWIDTH 960 0
DWIDTH 8 0
BBX 8 8 0 -2
BITMAP
00
00
3C
66
7E
60
3E
00
ENDCHAR

STARTCHAR jisx0208_2366
ENCODING 9062
SWIDTH 960 0
DWIDTH 8 0
BBX 8 8 0 -2
BITMAP
00
1E
18
3E
18
18
18
00
ENDCHAR

STARTCHAR jisx0208_2367
ENCODING 9063
SWIDTH 960 0
DWIDTH 8 0
BBX 8 8 0 -2
BITMAP
00
00
3E
66
66
3E
06
7C
ENDCHAR

STARTCHAR jisx0208_2368
ENCODING 9064
SWIDTH 960 0
DWIDTH 8 0
BBX 8 8 0 -2
BITMAP
00
60
7C
66
66
66
66
00
ENDCHAR

STARTCHAR jisx0208_2369
ENCODING 9065
SWIDTH 960 0
DWIDTH 8 0
BBX 8 8 0 -2
BITMAP
18
00
18
18
18
18
18
00
ENDCHAR

STARTCHAR jisx0208_236A
ENCODING 9066
SWIDTH 960 0
DWIDTH 8 0
BBX 8 8 0 -2
BITMAP
0C
00
0C
0C
0C
0C
0C
38
ENDCHAR

STARTCHAR jisx0208_236B
ENCODING 9067
SWIDTH 960 0
DWIDTH 8 0
BBX 8 8 0 -2
BITMAP
00
30
36
2C
38
2C
36
00
ENDCHAR

STARTCHAR jisx0208_236C
ENCODING 9068
SWIDTH 960 0
DWIDTH 8 0
BBX 8 8 0 -2
BITMAP
00
18
18
18
18
18
1C
00
ENDCHAR

STARTCHAR jisx0208_236D
ENCODING 9069
SWIDTH 960 0
DWIDTH 8 0
BBX 8 8 0 -2
BITMAP
00
00
EE
DB
DB
DB
DB
00
ENDCHAR

STARTCHAR jisx0208_236E
ENCODING 9070
SWIDTH 960 0
DWIDTH 8 0
BBX 8 8 0 -2
BITMAP
00
00
7C
66
66
66
66
00
ENDCHAR

STARTCHAR jisx0208_236F
ENCODING 9071
SWIDTH 960 0
DWIDTH 8 0
BBX 8 8 0 -2
BITMAP
00
00
3C
66
66
66
3C
00
ENDCHAR

STARTCHAR jisx0208_2370
ENCODING 9072
SWIDTH 960 0
DWIDTH 8 0
BBX 8 8 0 -2
BITMAP
00
00
7C
66
66
66
7C
60
ENDCHAR

STARTCHAR jisx0208_2371
ENCODING 9073
SWIDTH 960 0
DWIDTH 8 0
BBX 8 8 0 -2
BITMAP
00
00
3E
66
66
66
3E
06
ENDCHAR

STARTCHAR jisx0208_2372
ENCODING 9074
SWIDTH 960 0
DWIDTH 8 0
BBX 8 8 0 -2
BITMAP
00
00
2E
38
30
30
30
00
ENDCHAR

STARTCHAR jisx0208_2373
ENCODING 9075
SWIDTH 960 0
DWIDTH 8 0
BBX 8 8 0 -2
BITMAP
00
00
3E
60
3C
06
7C
00
ENDCHAR

STARTCHAR jisx0208_2374
ENCODING 9076
SWIDTH 960 0
DWIDTH 8 0
BBX 8 8 0 -2
BITMAP
00
18
3E
18
18
18
0E
00
ENDCHAR

STARTCHAR jisx0208_2375
ENCODING 9077
SWIDTH 960 0
DWIDTH 8 0
BBX 8 8 0 -2
BITMAP
00
00
66
66
66
66
3E
00
ENDCHAR

STARTCHAR jisx0208_2376
ENCODING 9078
SWIDTH 960 0
DWIDTH 8 0
BBX 8 8 0 -2
BITMAP
00
00
66
66
2C
2C
18
00
ENDCHAR

STARTCHAR jisx0208_2377
ENCODING 9079
SWIDTH 960 0
DWIDTH 8 0
BBX 8 8 0 -2
BITMAP
00
00
5B
5B
5B
36
36
00
ENDCHAR

STARTCHAR jisx0208_2378
ENCODING 9080
SWIDTH 960 0
DWIDTH 8 0
BBX 8 8 0 -2
BITMAP
00
00
66
2C
18
2C
66
00
ENDCHAR

STARTCHAR jisx0208_2379
ENCODING 9081
SWIDTH 960 0
DWIDTH 8 0
BBX 8 8 0 -2
BITMAP
00
00
66
66
2C
18
18
70
ENDCHAR

STARTCHAR jisx0208_237A
ENCODING 9082
SWIDTH 960 0
DWIDTH 8 0
BBX 8 8 0 -2
BITMAP
00
00
3E
0C
18
30
3E
00
ENDCHAR

STARTCHAR jisx0208_2421
ENCODING 9249
SWIDTH 960 0
DWIDTH 8 0
BBX 8 8 0 -2
BITMAP
00
18
7E
18
3E
6B
5B
36
ENDCHAR

STARTCHAR jisx0208_2422
ENCODING 9250
SWIDTH 960 0
DWIDTH 8 0
BBX 8 8 0 -2
BITMAP
30
7E
30
3F
6D
AD
D9
77
ENDCHAR

STARTCHAR jisx0208_2423
ENCODING 9251
SWIDTH 960 0
DWIDTH 8 0
BBX 8 8 0 -2
BITMAP
00
00
00
66
63
63
5B
30
ENDCHAR

STARTCHAR jisx0208_2424
ENCODING 9252
SWIDTH 960 0
DWIDTH 8 0
BBX 8 8 0 -2
BITMAP
00
C0
C6
C3
C3
C3
DB
70
ENDCHAR

STARTCHAR jisx0208_2425
ENCODING 9253
SWIDTH 960 0
DWIDTH 8 0
BBX 8 8 0 -2
BITMAP
00
00
3C
00
7C
06
06
3C
ENDCHAR

STARTCHAR jisx0208_2426
ENCODING 9254
SWIDTH 960 0
DWIDTH 8 0
BBX 8 8 0 -2
BITMAP
3E
00
7E
03
03
03
06
1C
ENDCHAR

STARTCHAR jisx0208_2427
ENCODING 9255
SWIDTH 960 0
DWIDTH 8 0
BBX 8 8 0 -2
BITMAP
00
00
3C
00
3C
18
2C
6F
ENDCHAR

STARTCHAR jisx0208_2428
ENCODING 9256
SWIDTH 960 0
DWIDTH 8 0
BBX 8 8 0 -2
BITMAP
3C
00
7E
0C
18
2C
6C
C7
ENDCHAR

STARTCHAR jisx0208_2429
ENCODING 9257
SWIDTH 960 0
DWIDTH 8 0
BBX 8 8 0 -2
BITMAP
00
00
18
7B
1B
3E
5B
36
ENDCHAR

STARTCHAR jisx0208_242A
ENCODING 9258
SWIDTH 960 0
DWIDTH 8 0
BBX 8 8 0 -2
BITMAP
30
36
FB
30
3E
73
B3
6E
ENDCHAR

STARTCHAR jisx0208_242B
ENCODING 9259
SWIDTH 960 0
DWIDTH 8 0
BBX 8 8 0 -2
BITMAP
30
30
FB
6D
6D
6B
CC
B8
ENDCHAR

STARTCHAR jisx0208_242C
ENCODING 9260
SWIDTH 960 0
DWIDTH 8 0
BBX 8 8 0 -2
BITMAP
33
30
FB
6D
6D
6B
CC
B8
ENDCHAR

STARTCHAR jisx0208_242D
ENCODING 9261
SWIDTH 960 0
DWIDTH 8 0
BBX 8 8 0 -2
BITMAP
0C
7F
0C
7F
06
7F
60
3E
ENDCHAR

STARTCHAR jisx0208_242E
ENCODING 9262
SWIDTH 960 0
DWIDTH 8 0
BBX 8 8 0 -2
BITMAP
0B
7F
0C
7F
06
7F
60
3E
ENDCHAR

STARTCHAR jisx0208_242F
ENCODING 9263
SWIDTH 960 0
DWIDTH 8 0
BBX 8 8 0 -2
BITMAP
06
0C
18
30
30
18
0C
06
ENDCHAR

STARTCHAR jisx0208_2430
ENCODING 9264
SWIDTH 960 0
DWIDTH 8 0
BBX 8 8 0 -2
BITMAP
06
0C
1B
30
30
18
0C
06
ENDCHAR

STARTCHAR jisx0208_2431
ENCODING 9265
SWIDTH 960 0
DWIDTH 8 0
BBX 8 8 0 -2
BITMAP
C6
C6
BF
C6
C6
C6
C6
DC
ENDCHAR

STARTCHAR jisx0208_2432
ENCODING 9266
SWIDTH 960 0
DWIDTH 8 0
BBX 8 8 0 -2
BITMAP
C7
C6
BF
C6
C6
C6
C6
DC
ENDCHAR

STARTCHAR jisx0208_2433
ENCODING 9267
SWIDTH 960 0
DWIDTH 8 0
BBX 8 8 0 -2
BITMAP
00
3E
00
00
00
60
60
3F
ENDCHAR

STARTCHAR jisx0208_2434
ENCODING 9268
SWIDTH 960 0
DWIDTH 8 0
BBX 8 8 0 -2
BITMAP
03
3E
00
00
00
60
60
3F
ENDCHAR

STARTCHAR jisx0208_2435
ENCODING 9269
SWIDTH 960 0
DWIDTH 8 0
BBX 8 8 0 -2
BITMAP
0C
7F
06
06
3F
63
60
3E
ENDCHAR

STARTCHAR jisx0208_2436
ENCODING 9270
SWIDTH 960 0
DWIDTH 8 0
BBX 8 8 0 -2
BITMAP
0B
7F
06
06
3F
63
60
3E
ENDCHAR

STARTCHAR jisx0208_2437
ENCODING 9271
SWIDTH 960 0
DWIDTH 8 0
BBX 8 8 0 -2
BITMAP
60
60
60
60
60
63
66
3C
ENDCHAR

STARTCHAR jisx0208_2438
ENCODING 9272
SWIDTH 960 0
DWIDTH 8 0
BBX 8 8 0 -2
BITMAP
60
67
60
60
60
63
66
3C
ENDCHAR

STARTCHAR jisx0208_2439
ENCODING 9273
SWIDTH 960 0
DWIDTH 8 0
BBX 8 8 0 -2
BITMAP
0C
FF
1C
2C
2C
1C
0C
38
ENDCHAR

STARTCHAR jisx0208_243A
ENCODING 9274
SWIDTH 960 0
DWIDTH 8 0
BBX 8 8 0 -2
BITMAP
0B
FF
1C
2C
2C
1C
0C
38
ENDCHAR

STARTCHAR jisx0208_243B
ENCODING 9275
SWIDTH 960 0
DWIDTH 8 0
BBX 8 8 0 -2
BITMAP
66
66
FF
66
66
6E
60
3F
ENDCHAR

STARTCHAR jisx0208_243C
ENCODING 9276
SWIDTH 960 0
DWIDTH 8 0
BBX 8 8 0 -2
BITMAP
67
66
FF
66
66
6E
60
3F
ENDCHAR

STARTCHAR jisx0208_243D
ENCODING 9277
SWIDTH 960 0
DWIDTH 8 0
BBX 8 8 0 -2
BITMAP
3E
0C
18
FF
0C
18
18
0E
ENDCHAR

STARTCHAR jisx0208_243E
ENCODING 9278
SWIDTH 960 0
DWIDTH 8 0
BBX 8 8 0 -2
BITMAP
3E
0B
18
FF
0C
18
18
0E
ENDCHAR

STARTCHAR jisx0208_243F
ENCODING 9279
SWIDTH 960 0
DWIDTH 8 0
BBX 8 8 0 -2
BITMAP
60
F8
60
6F
60
C0
D8
DF
ENDCHAR

STARTCHAR jisx0208_2440
ENCODING 9280
SWIDTH 960 0
DWIDTH 8 0
BBX 8 8 0 -2
BITMAP
63
F8
60
6F
60
C0
D8
DF
ENDCHAR

STARTCHAR jisx0208_2441
ENCODING 9281
SWIDTH 960 0
DWIDTH 8 0
BBX 8 8 0 -2
BITMAP
30
FE
30
5E
73
63
03
3E
ENDCHAR

STARTCHAR jisx0208_2442
ENCODING 9282
SWIDTH 960 0
DWIDTH 8 0
BBX 8 8 0 -2
BITMAP
33
FE
30
5E
73
63
03
3E
ENDCHAR

STARTCHAR jisx0208_2443
ENCODING 9283
SWIDTH 960 0
DWIDTH 8 0
BBX 8 8 0 -2
BITMAP
00
00
00
7E
03
03
03
1E
ENDCHAR

STARTCHAR jisx0208_2444
ENCODING 9284
SWIDTH 960 0
DWIDTH 8 0
BBX 8 8 0 -2
BITMAP
00
FE
03
03
03
06
3C
00
ENDCHAR

STARTCHAR jisx0208_2445
ENCODING 9285
SWIDTH 960 0
DWIDTH 8 0
BBX 8 8 0 -2
BITMAP
03
FE
03
03
03
06
3C
00
ENDCHAR

STARTCHAR jisx0208_2446
ENCODING 9286
SWIDTH 960 0
DWIDTH 8 0
BBX 8 8 0 -2
BITMAP
00
FF
18
30
30
30
30
1C
ENDCHAR

STARTCHAR jisx0208_2447
ENCODING 9287
SWIDTH 960 0
DWIDTH 8 0
BBX 8 8 0 -2
BITMAP
00
FF
18
37
30
30
30
1C
ENDCHAR

STARTCHAR jisx0208_2448
ENCODING 9288
SWIDTH 960 0
DWIDTH 8 0
BBX 8 8 0 -2
BITMAP
30
30
37
1C
30
60
60
3F
ENDCHAR

STARTCHAR jisx0208_2449
ENCODING 9289
SWIDTH 960 0
DWIDTH 8 0
BBX 8 8 0 -2
BITMAP
33
30
37
1C
30
60
60
3F
ENDCHAR

STARTCHAR jisx0208_244A
ENCODING 9290
SWIDTH 960 0
DWIDTH 8 0
BBX 8 8 0 -2
BITMAP
60
F7
61
66
C6
DE
B7
1D
ENDCHAR

STARTCHAR jisx0208_244B
ENCODING 9291
SWIDTH 960 0
DWIDTH 8 0
BBX 8 8 0 -2
BITMAP
C0
DF
C0
C0
C0
D8
DF
C0
ENDCHAR

STARTCHAR jisx0208_244C
ENCODING 9292
SWIDTH 960 0
DWIDTH 8 0
BBX 8 8 0 -2
BITMAP
0C
5E
6B
6D
D9
B7
AD
67
ENDCHAR

STARTCHAR jisx0208_244D
ENCODING 9293
SWIDTH 960 0
DWIDTH 8 0
BBX 8 8 0 -2
BITMAP
30
30
EF
39
31
77
AD
37
ENDCHAR

STARTCHAR jisx0208_244E
ENCODING 9294
SWIDTH 960 0
DWIDTH 8 0
BBX 8 8 0 -2
BITMAP
00
3E
5B
D9
D9
D9
73
0E
ENDCHAR

STARTCHAR jisx0208_244F
ENCODING 9295
SWIDTH 960 0
DWIDTH 8 0
BBX 8 8 0 -2
BITMAP
C6
C6
BF
C6
C6
DE
B7
DD
ENDCHAR

STARTCHAR jisx0208_2450
ENCODING 9296
SWIDTH 960 0
DWIDTH 8 0
BBX 8 8 0 -2
BITMAP
C7
C6
BF
C6
C6
DE
B7
DD
ENDCHAR

STARTCHAR jisx0208_2451
ENCODING 9297
SWIDTH 960 0
DWIDTH 8 0
BBX 8 8 0 -2
BITMAP
C7
C7
BF
C6
C6
DE
B7
DD
ENDCHAR

STARTCHAR jisx0208_2452
ENCODING 9298
SWIDTH 960 0
DWIDTH 8 0
BBX 8 8 0 -2
BITMAP
00
F6
36
67
C5
C6
CC
78
ENDCHAR

STARTCHAR jisx0208_2453
ENCODING 9299
SWIDTH 960 0
DWIDTH 8 0
BBX 8 8 0 -2
BITMAP
03
F6
36
67
C5
C6
CC
78
ENDCHAR

STARTCHAR jisx0208_2454
ENCODING 9300
SWIDTH 960 0
DWIDTH 8 0
BBX 8 8 0 -2
BITMAP
03
F7
36
67
C5
C6
CC
78
ENDCHAR

STARTCHAR jisx0208_2455
ENCODING 9301
SWIDTH 960 0
DWIDTH 8 0
BBX 8 8 0 -2
BITMAP
18
0C
00
18
5B
6D
CD
38
ENDCHAR

STARTCHAR jisx0208_2456
ENCODING 9302
SWIDTH 960 0
DWIDTH 8 0
BBX 8 8 0 -2
BITMAP
18
0B
00
18
5B
6D
CD
38
ENDCHAR

STARTCHAR jisx0208_2457
ENCODING 9303
SWIDTH 960 0
DWIDTH 8 0
BBX 8 8 0 -2
BITMAP
1B
0B
00
18
5B
6D
CD
38
ENDCHAR

STARTCHAR jisx0208_2458
ENCODING 9304
SWIDTH 960 0
DWIDTH 8 0
BBX 8 8 0 -2
BITMAP
00
00
38
6C
C6
03
01
00
ENDCHAR

STARTCHAR jisx0208_2459
ENCODING 9305
SWIDTH 960 0
DWIDTH 8 0
BBX 8 8 0 -2
BITMAP
00
07
38
6C
C6
03
01
00
ENDCHAR

STARTCHAR jisx0208_245A
ENCODING 9306
SWIDTH 960 0
DWIDTH 8 0
BBX 8 8 0 -2
BITMAP
00
03
3B
6C
C6
03
01
00
ENDCHAR

STARTCHAR jisx0208_245B
ENCODING 9307
SWIDTH 960 0
DWIDTH 8 0
BBX 8 8 0 -2
BITMAP
C0
BF
C6
BF
C6
DE
B7
DD
ENDCHAR

STARTCHAR jisx0208_245C
ENCODING 9308
SWIDTH 960 0
DWIDTH 8 0
BBX 8 8 0 -2
BITMAP
C3
BF
C6
BF
C6
DE
B7
DD
ENDCHAR

STARTCHAR jisx0208_245D
ENCODING 9309
SWIDTH 960 0
DWIDTH 8 0
BBX 8 8 0 -2
BITMAP
C3
BF
C6
BF
C6
DE
B7
DD
ENDCHAR

STARTCHAR jisx0208_245E
ENCODING 9310
SWIDTH 960 0
DWIDTH 8 0
BBX 8 8 0 -2
BITMAP
0C
7F
0C
7F
0C
3C
6E
3B
ENDCHAR

STARTCHAR jisx0208_245F
ENCODING 9311
SWIDTH 960 0
DWIDTH 8 0
BBX 8 8 0 -2
BITMAP
3C
0C
1B
7B
D7
B3
E6
0C
ENDCHAR

STARTCHAR jisx0208_2460
ENCODING 9312
SWIDTH 960 0
DWIDTH 8 0
BBX 8 8 0 -2
BITMAP
30
FB
71
B0
B0
63
63
3E
ENDCHAR

STARTCHAR jisx0208_2461
ENCODING 9313
SWIDTH 960 0
DWIDTH 8 0
BBX 8 8 0 -2
BITMAP
0C
5E
6B
6D
ED
B9
BB
66
ENDCHAR

STARTCHAR jisx0208_2462
ENCODING 9314
SWIDTH 960 0
DWIDTH 8 0
BBX 8 8 0 -2
BITMAP
30
FC
30
FC
33
33
33
1E
ENDCHAR

STARTCHAR jisx0208_2463
ENCODING 9315
SWIDTH 960 0
DWIDTH 8 0
BBX 8 8 0 -2
BITMAP
00
0C
2C
3F
73
16
18
18
ENDCHAR

STARTCHAR jisx0208_2464
ENCODING 9316
SWIDTH 960 0
DWIDTH 8 0
BBX 8 8 0 -2
BITMAP
6C
5F
75
B1
37
18
18
18
ENDCHAR

STARTCHAR jisx0208_2465
ENCODING 9317
SWIDTH 960 0
DWIDTH 8 0
BBX 8 8 0 -2
BITMAP
00
00
0C
5E
6B
6B
5E
0C
ENDCHAR

STARTCHAR jisx0208_2466
ENCODING 9318
SWIDTH 960 0
DWIDTH 8 0
BBX 8 8 0 -2
BITMAP
0C
DF
AD
ED
CD
AD
DF
0C
ENDCHAR

STARTCHAR jisx0208_2467
ENCODING 9319
SWIDTH 960 0
DWIDTH 8 0
BBX 8 8 0 -2
BITMAP
00
00
0C
0F
0C
3C
6E
3B
ENDCHAR

STARTCHAR jisx0208_2468
ENCODING 9320
SWIDTH 960 0
DWIDTH 8 0
BBX 8 8 0 -2
BITMAP
18
18
1F
18
18
7C
D6
7B
ENDCHAR

STARTCHAR jisx0208_2469
ENCODING 9321
SWIDTH 960 0
DWIDTH 8 0
BBX 8 8 0 -2
BITMAP
38
0C
60
5E
73
63
03
1E
ENDCHAR

STARTCHAR jisx0208_246A
ENCODING 9322
SWIDTH 960 0
DWIDTH 8 0
BBX 8 8 0 -2
BITMAP
63
63
5B
73
63
03
06
1C
ENDCHAR

STARTCHAR jisx0208_246B
ENCODING 9323
SWIDTH 960 0
DWIDTH 8 0
BBX 8 8 0 -2
BITMAP
7E
0C
18
3E
63
DB
2B
1E
ENDCHAR

STARTCHAR jisx0208_246C
ENCODING 9324
SWIDTH 960 0
DWIDTH 8 0
BBX 8 8 0 -2
BITMAP
30
30
EF
3B
33
73
B3
33
ENDCHAR

STARTCHAR jisx0208_246D
ENCODING 9325
SWIDTH 960 0
DWIDTH 8 0
BBX 8 8 0 -2
BITMAP
7E
0C
18
3E
63
C3
03
3E
ENDCHAR

STARTCHAR jisx0208_246E
ENCODING 9326
SWIDTH 960 0
DWIDTH 8 0
BBX 8 8 0 -2
BITMAP
00
00
30
6E
3B
33
73
2E
ENDCHAR

STARTCHAR jisx0208_246F
ENCODING 9327
SWIDTH 960 0
DWIDTH 8 0
BBX 8 8 0 -2
BITMAP
30
30
EF
39
31
71
B1
37
ENDCHAR

STARTCHAR jisx0208_2470
ENCODING 9328
SWIDTH 960 0
DWIDTH 8 0
BBX 8 8 0 -2
BITMAP
3C
0C
3F
59
D9
B7
AD
67
ENDCHAR

STARTCHAR jisx0208_2471
ENCODING 9329
SWIDTH 960 0
DWIDTH 8 0
BBX 8 8 0 -2
BITMAP
3C
18
3C
66
36
3C
77
DD
ENDCHAR

STARTCHAR jisx0208_2472
ENCODING 9330
SWIDTH 960 0
DWIDTH 8 0
BBX 8 8 0 -2
BITMAP
18
FE
30
77
DC
2C
60
3F
ENDCHAR

STARTCHAR jisx0208_2473
ENCODING 9331
SWIDTH 960 0
DWIDTH 8 0
BBX 8 8 0 -2
BITMAP
18
18
30
30
78
5B
DB
CE
ENDCHAR

STARTCHAR jisx0208_2521
ENCODING 9505
SWIDTH 960 0
DWIDTH 8 0
BBX 8 8 0 -2
BITMAP
00
00
7F
03
16
18
18
30
ENDCHAR

STARTCHAR jisx0208_2522
ENCODING 9506
SWIDTH 960 0
DWIDTH 8 0
BBX 8 8 0 -2
BITMAP
00
FF
03
16
18
18
30
60
ENDCHAR

STARTCHAR jisx0208_2523
ENCODING 9507
SWIDTH 960 0
DWIDTH 8 0
BBX 8 8 0 -2
BITMAP
00
00
06
0C
1C
6C
0C
0C
ENDCHAR

STARTCHAR jisx0208_2524
ENCODING 9508
SWIDTH 960 0
DWIDTH 8 0
BBX 8 8 0 -2
BITMAP
03
06
0C
3C
EC
0C
0C
0C
ENDCHAR

STARTCHAR jisx0208_2525
ENCODING 9509
SWIDTH 960 0
DWIDTH 8 0
BBX 8 8 0 -2
BITMAP
00
00
18
7E
66
66
0C
18
ENDCHAR

STARTCHAR jisx0208_2526
ENCODING 9510
SWIDTH 960 0
DWIDTH 8 0
BBX 8 8 0 -2
BITMAP
18
18
7F
63
63
03
06
1C
ENDCHAR

STARTCHAR jisx0208_2527
ENCODING 9511
SWIDTH 960 0
DWIDTH 8 0
BBX 8 8 0 -2
BITMAP
00
00
00
7E
18
18
7E
00
ENDCHAR

STARTCHAR jisx0208_2528
ENCODING 9512
SWIDTH 960 0
DWIDTH 8 0
BBX 8 8 0 -2
BITMAP
00
7F
18
18
18
18
FF
00
ENDCHAR

STARTCHAR jisx0208_2529
ENCODING 9513
SWIDTH 960 0
DWIDTH 8 0
BBX 8 8 0 -2
BITMAP
00
00
0C
7F
1C
2C
6C
1C
ENDCHAR

STARTCHAR jisx0208_252A
ENCODING 9514
SWIDTH 960 0
DWIDTH 8 0
BBX 8 8 0 -2
BITMAP
06
06
FF
0E
16
36
E6
0E
ENDCHAR

STARTCHAR jisx0208_252B
ENCODING 9515
SWIDTH 960 0
DWIDTH 8 0
BBX 8 8 0 -2
BITMAP
30
30
FF
33
33
33
63
CE
ENDCHAR

STARTCHAR jisx0208_252C
ENCODING 9516
SWIDTH 960 0
DWIDTH 8 0
BBX 8 8 0 -2
BITMAP
33
30
FF
33
33
33
63
CE
ENDCHAR

STARTCHAR jisx0208_252D
ENCODING 9517
SWIDTH 960 0
DWIDTH 8 0
BBX 8 8 0 -2
BITMAP
18
18
FF
18
FF
0C
0C
0C
ENDCHAR

STARTCHAR jisx0208_252E
ENCODING 9518
SWIDTH 960 0
DWIDTH 8 0
BBX 8 8 0 -2
BITMAP
1B
18
FF
18
FF
0C
0C
0C
ENDCHAR

STARTCHAR jisx0208_252F
ENCODING 9519
SWIDTH 960 0
DWIDTH 8 0
BBX 8 8 0 -2
BITMAP
30
3F
63
C3
06
0C
18
70
ENDCHAR

STARTCHAR jisx0208_2530
ENCODING 9520
SWIDTH 960 0
DWIDTH 8 0
BBX 8 8 0 -2
BITMAP
33
3F
63
C3
06
0C
18
70
ENDCHAR

STARTCHAR jisx0208_2531
ENCODING 9521
SWIDTH 960 0
DWIDTH 8 0
BBX 8 8 0 -2
BITMAP
30
30
3F
66
C6
06
0C
38
ENDCHAR

STARTCHAR jisx0208_2532
ENCODING 9522
SWIDTH 960 0
DWIDTH 8 0
BBX 8 8 0 -2
BITMAP
33
30
3F
66
C6
06
0C
38
ENDCHAR

STARTCHAR jisx0208_2533
ENCODING 9523
SWIDTH 960 0
DWIDTH 8 0
BBX 8 8 0 -2
BITMAP
00
7F
03
03
03
03
7F
00
ENDCHAR

STARTCHAR jisx0208_2534
ENCODING 9524
SWIDTH 960 0
DWIDTH 8 0
BBX 8 8 0 -2
BITMAP
03
7F
03
03
03
03
7F
00
ENDCHAR

STARTCHAR jisx0208_2535
ENCODING 9525
SWIDTH 960 0
DWIDTH 8 0
BBX 8 8 0 -2
BITMAP
36
36
FF
36
36
06
0C
38
ENDCHAR

STARTCHAR jisx0208_2536
ENCODING 9526
SWIDTH 960 0
DWIDTH 8 0
BBX 8 8 0 -2
BITMAP
37
36
FF
36
36
06
0C
38
ENDCHAR

STARTCHAR jisx0208_2537
ENCODING 9527
SWIDTH 960 0
DWIDTH 8 0
BBX 8 8 0 -2
BITMAP
00
60
33
C3
63
06
0C
78
ENDCHAR

STARTCHAR jisx0208_2538
ENCODING 9528
SWIDTH 960 0
DWIDTH 8 0
BBX 8 8 0 -2
BITMAP
03
60
33
C3
63
06
0C
78
ENDCHAR

STARTCHAR jisx0208_2539
ENCODING 9529
SWIDTH 960 0
DWIDTH 8 0
BBX 8 8 0 -2
BITMAP
00
7E
06
06
0C
16
33
E1
ENDCHAR

STARTCHAR jisx0208_253A
ENCODING 9530
SWIDTH 960 0
DWIDTH 8 0
BBX 8 8 0 -2
BITMAP
03
7E
06
06
0C
16
33
E1
ENDCHAR

STARTCHAR jisx0208_253B
ENCODING 9531
SWIDTH 960 0
DWIDTH 8 0
BBX 8 8 0 -2
BITMAP
30
30
3F
F3
36
30
30
3F
ENDCHAR

STARTCHAR jisx0208_253C
ENCODING 9532
SWIDTH 960 0
DWIDTH 8 0
BBX 8 8 0 -2
BITMAP
33
30
3F
F3
36
30
30
3F
ENDCHAR

STARTCHAR jisx0208_253D
ENCODING 9533
SWIDTH 960 0
DWIDTH 8 0
BBX 8 8 0 -2
BITMAP
00
C3
63
63
06
06
0C
38
ENDCHAR

STARTCHAR jisx0208_253E
ENCODING 9534
SWIDTH 960 0
DWIDTH 8 0
BBX 8 8 0 -2
BITMAP
03
C0
63
63
06
06
0C
38
ENDCHAR

STARTCHAR jisx0208_253F
ENCODING 9535
SWIDTH 960 0
DWIDTH 8 0
BBX 8 8 0 -2
BITMAP
30
3F
63
C3
16
0C
16
70
ENDCHAR

STARTCHAR jisx0208_2540
ENCODING 9536
SWIDTH 960 0
DWIDTH 8 0
BBX 8 8 0 -2
BITMAP
33
3F
63
C3
16
0C
16
70
ENDCHAR

STARTCHAR jisx0208_2541
ENCODING 9537
SWIDTH 960 0
DWIDTH 8 0
BBX 8 8 0 -2
BITMAP
07
7C
0C
FF
0C
0C
18
70
ENDCHAR

STARTCHAR jisx0208_2542
ENCODING 9538
SWIDTH 960 0
DWIDTH 8 0
BBX 8 8 0 -2
BITMAP
07
7B
0C
FF
0C
0C
18
70
ENDCHAR

STARTCHAR jisx0208_2543
ENCODING 9539
SWIDTH 960 0
DWIDTH 8 0
BBX 8 8 0 -2
BITMAP
00
00
00
56
56
06
0C
38
ENDCHAR

STARTCHAR jisx0208_2544
ENCODING 9540
SWIDTH 960 0
DWIDTH 8 0
BBX 8 8 0 -2
BITMAP
00
33
DB
63
03
06
0C
38
ENDCHAR

STARTCHAR jisx0208_2545
ENCODING 9541
SWIDTH 960 0
DWIDTH 8 0
BBX 8 8 0 -2
BITMAP
03
33
DB
63
03
06
0C
38
ENDCHAR

STARTCHAR jisx0208_2546
ENCODING 9542
SWIDTH 960 0
DWIDTH 8 0
BBX 8 8 0 -2
BITMAP
00
7F
00
FF
0C
0C
18
70
ENDCHAR

STARTCHAR jisx0208_2547
ENCODING 9543
SWIDTH 960 0
DWIDTH 8 0
BBX 8 8 0 -2
BITMAP
03
7E
00
FF
0C
0C
18
70
ENDCHAR

STARTCHAR jisx0208_2548
ENCODING 9544
SWIDTH 960 0
DWIDTH 8 0
BBX 8 8 0 -2
BITMAP
30
30
30
3C
37
30
30
30
ENDCHAR

STARTCHAR jisx0208_2549
ENCODING 9545
SWIDTH 960 0
DWIDTH 8 0
BBX 8 8 0 -2
BITMAP
37
30
30
3C
37
30
30
30
ENDCHAR

STARTCHAR jisx0208_254A
ENCODING 9546
SWIDTH 960 0
DWIDTH 8 0
BBX 8 8 0 -2
BITMAP
0C
0C
FF
0C
0C
0C
18
70
ENDCHAR

STARTCHAR jisx0208_254B
ENCODING 9547
SWIDTH 960 0
DWIDTH 8 0
BBX 8 8 0 -2
BITMAP
00
7E
00
00
00
00
FF
00
ENDCHAR

STARTCHAR jisx0208_254C
ENCODING 9548
SWIDTH 960 0
DWIDTH 8 0
BBX 8 8 0 -2
BITMAP
00
7F
03
03
36
0E
1B
F0
ENDCHAR

STARTCHAR jisx0208_254D
ENCODING 9549
SWIDTH 960 0
DWIDTH 8 0
BBX 8 8 0 -2
BITMAP
3C
00
7E
0C
37
D9
18
18
ENDCHAR

STARTCHAR jisx0208_254E
ENCODING 9550
SWIDTH 960 0
DWIDTH 8 0
BBX 8 8 0 -2
BITMAP
00
03
03
06
06
0C
18
70
ENDCHAR

STARTCHAR jisx0208_254F
ENCODING 9551
SWIDTH 960 0
DWIDTH 8 0
BBX 8 8 0 -2
BITMAP
00
00
36
33
63
61
C1
00
ENDCHAR

STARTCHAR jisx0208_2550
ENCODING 9552
SWIDTH 960 0
DWIDTH 8 0
BBX 8 8 0 -2
BITMAP
00
03
36
33
63
61
C1
00
ENDCHAR

STARTCHAR jisx0208_2551
ENCODING 9553
SWIDTH 960 0
DWIDTH 8 0
BBX 8 8 0 -2
BITMAP
03
03
36
33
63
61
C1
00
ENDCHAR

STARTCHAR jisx0208_2552
ENCODING 9554
SWIDTH 960 0
DWIDTH 8 0
BBX 8 8 0 -2
BITMAP
60
60
67
7C
60
60
60
7F
ENDCHAR

STARTCHAR jisx0208_2553
ENCODING 9555
SWIDTH 960 0
DWIDTH 8 0
BBX 8 8 0 -2
BITMAP
63
60
67
7C
60
60
60
7F
ENDCHAR

STARTCHAR jisx0208_2554
ENCODING 9556
SWIDTH 960 0
DWIDTH 8 0
BBX 8 8 0 -2
BITMAP
63
63
67
7C
60
60
60
7F
ENDCHAR

STARTCHAR jisx0208_2555
ENCODING 9557
SWIDTH 960 0
DWIDTH 8 0
BBX 8 8 0 -2
BITMAP
00
7F
03
03
03
06
0C
38
ENDCHAR

STARTCHAR jisx0208_2556
ENCODING 9558
SWIDTH 960 0
DWIDTH 8 0
BBX 8 8 0 -2
BITMAP
03
7F
03
03
03
06
0C
38
ENDCHAR

STARTCHAR jisx0208_2557
ENCODING 9559
SWIDTH 960 0
DWIDTH 8 0
BBX 8 8 0 -2
BITMAP
03
7F
03
03
03
06
0C
38
ENDCHAR

STARTCHAR jisx0208_2558
ENCODING 9560
SWIDTH 960 0
DWIDTH 8 0
BBX 8 8 0 -2
BITMAP
00
00
18
2C
66
C3
01
00
ENDCHAR

STARTCHAR jisx0208_2559
ENCODING 9561
SWIDTH 960 0
DWIDTH 8 0
BBX 8 8 0 -2
BITMAP
00
00
1B
2C
66
C3
01
00
ENDCHAR

STARTCHAR jisx0208_255A
ENCODING 9562
SWIDTH 960 0
DWIDTH 8 0
BBX 8 8 0 -2
BITMAP
00
03
1B
2C
66
C3
01
00
ENDCHAR

STARTCHAR jisx0208_255B
ENCODING 9563
SWIDTH 960 0
DWIDTH 8 0
BBX 8 8 0 -2
BITMAP
18
18
FF
18
56
5B
DB
38
ENDCHAR

STARTCHAR jisx0208_255C
ENCODING 9564
SWIDTH 960 0
DWIDTH 8 0
BBX 8 8 0 -2
BITMAP
1B
18
FF
18
56
5B
DB
38
ENDCHAR

STARTCHAR jisx0208_255D
ENCODING 9565
SWIDTH 960 0
DWIDTH 8 0
BBX 8 8 0 -2
BITMAP
1B
1B
FF
18
56
5B
DB
38
ENDCHAR

STARTCHAR jisx0208_255E
ENCODING 9566
SWIDTH 960 0
DWIDTH 8 0
BBX 8 8 0 -2
BITMAP
00
FF
03
06
6C
38
18
0C
ENDCHAR

STARTCHAR jisx0208_255F
ENCODING 9567
SWIDTH 960 0
DWIDTH 8 0
BBX 8 8 0 -2
BITMAP
38
0E
00
38
0E
00
78
0F
ENDCHAR

STARTCHAR jisx0208_2560
ENCODING 9568
SWIDTH 960 0
DWIDTH 8 0
BBX 8 8 0 -2
BITMAP
18
18
18
30
36
63
6F
F9
ENDCHAR

STARTCHAR jisx0208_2561
ENCODING 9569
SWIDTH 960 0
DWIDTH 8 0
BBX 8 8 0 -2
BITMAP
00
03
03
36
0C
16
33
E0
ENDCHAR

STARTCHAR jisx0208_2562
ENCODING 9570
SWIDTH 960 0
DWIDTH 8 0
BBX 8 8 0 -2
BITMAP
00
FE
30
30
FF
30
30
3F
ENDCHAR

STARTCHAR jisx0208_2563
ENCODING 9571
SWIDTH 960 0
DWIDTH 8 0
BBX 8 8 0 -2
BITMAP
00
00
30
3F
73
16
18
18
ENDCHAR

STARTCHAR jisx0208_2564
ENCODING 9572
SWIDTH 960 0
DWIDTH 8 0
BBX 8 8 0 -2
BITMAP
30
30
3F
F3
36
18
18
18
ENDCHAR

STARTCHAR jisx0208_2565
ENCODING 9573
SWIDTH 960 0
DWIDTH 8 0
BBX 8 8 0 -2
BITMAP
00
00
00
3C
0C
0C
7F
00
ENDCHAR

STARTCHAR jisx0208_2566
ENCODING 9574
SWIDTH 960 0
DWIDTH 8 0
BBX 8 8 0 -2
BITMAP
00
7E
06
06
06
06
FF
00
ENDCHAR

STARTCHAR jisx0208_2567
ENCODING 9575
SWIDTH 960 0
DWIDTH 8 0
BBX 8 8 0 -2
BITMAP
00
00
00
3E
06
3E
06
3E
ENDCHAR

STARTCHAR jisx0208_2568
ENCODING 9576
SWIDTH 960 0
DWIDTH 8 0
BBX 8 8 0 -2
BITMAP
00
7F
03
03
7F
03
03
7F
ENDCHAR

STARTCHAR jisx0208_2569
ENCODING 9577
SWIDTH 960 0
DWIDTH 8 0
BBX 8 8 0 -2
BITMAP
7E
00
FF
03
03
06
0C
38
ENDCHAR

STARTCHAR jisx0208_256A
ENCODING 9578
SWIDTH 960 0
DWIDTH 8 0
BBX 8 8 0 -2
BITMAP
66
66
66
66
66
06
0C
38
ENDCHAR

STARTCHAR jisx0208_256B
ENCODING 9579
SWIDTH 960 0
DWIDTH 8 0
BBX 8 8 0 -2
BITMAP
0C
6C
6C
6C
6C
6D
CB
CE
ENDCHAR

STARTCHAR jisx0208_256C
ENCODING 9580
SWIDTH 960 0
DWIDTH 8 0
BBX 8 8 0 -2
BITMAP
60
60
60
60
63
66
5C
70
ENDCHAR

STARTCHAR jisx0208_256D
ENCODING 9581
SWIDTH 960 0
DWIDTH 8 0
BBX 8 8 0 -2
BITMAP
00
7F
63
63
63
63
7F
00
ENDCHAR

STARTCHAR jisx0208_256E
ENCODING 9582
SWIDTH 960 0
DWIDTH 8 0
BBX 8 8 0 -2
BITMAP
00
00
00
7E
66
66
0C
38
ENDCHAR

STARTCHAR jisx0208_256F
ENCODING 9583
SWIDTH 960 0
DWIDTH 8 0
BBX 8 8 0 -2
BITMAP
00
7F
63
63
63
03
06
1C
ENDCHAR

STARTCHAR jisx0208_2570
ENCODING 9584
SWIDTH 960 0
DWIDTH 8 0
BBX 8 8 0 -2
BITMAP
0C
0C
7F
6C
6C
FF
0C
0C
ENDCHAR

STARTCHAR jisx0208_2571
ENCODING 9585
SWIDTH 960 0
DWIDTH 8 0
BBX 8 8 0 -2
BITMAP
00
7F
06
1C
18
18
FF
00
ENDCHAR

STARTCHAR jisx0208_2572
ENCODING 9586
SWIDTH 960 0
DWIDTH 8 0
BBX 8 8 0 -2
BITMAP
00
7F
03
7F
03
06
0C
38
ENDCHAR

STARTCHAR jisx0208_2573
ENCODING 9587
SWIDTH 960 0
DWIDTH 8 0
BBX 8 8 0 -2
BITMAP
00
C0
63
03
03
06
0C
78
ENDCHAR

STARTCHAR jisx0208_2574
ENCODING 9588
SWIDTH 960 0
DWIDTH 8 0
BBX 8 8 0 -2
BITMAP
1B
18
7F
63
63
03
06
1C
ENDCHAR

STARTCHAR jisx0208_2575
ENCODING 9589
SWIDTH 960 0
DWIDTH 8 0
BBX 8 8 0 -2
BITMAP
00
00
30
7E
36
36
66
5C
ENDCHAR

STARTCHAR jisx0208_2576
ENCODING 9590
SWIDTH 960 0
DWIDTH 8 0
BBX 8 8 0 -2
BITMAP
00
00
30
3F
6C
6C
0C
38
ENDCHAR

STARTCHAR jisx0208_2621
ENCODING 9761
SWIDTH 960 0
DWIDTH 8 0
BBX 8 8 0 -2
BITMAP
00
18
2C
2C
66
7E
66
00
ENDCHAR

STARTCHAR jisx0208_2622
ENCODING 9762
SWIDTH 960 0
DWIDTH 8 0
BBX 8 8 0 -2
BITMAP
00
7C
66
7C
66
66
7C
00
ENDCHAR

STARTCHAR jisx0208_2623
ENCODING 9763
SWIDTH 960 0
DWIDTH 8 0
BBX 8 8 0 -2
BITMAP
00
3F
30
30
30
30
30
00
ENDCHAR

STARTCHAR jisx0208_2624
ENCODING 9764
SWIDTH 960 0
DWIDTH 8 0
BBX 8 8 0 -2
BITMAP
00
18
2C
2C
66
66
7E
00
ENDCHAR

STARTCHAR jisx0208_2625
ENCODING 9765
SWIDTH 960 0
DWIDTH 8 0
BBX 8 8 0 -2
BITMAP
00
3F
30
3E
30
30
3F
00
ENDCHAR

STARTCHAR jisx0208_2626
ENCODING 9766
SWIDTH 960 0
DWIDTH 8 0
BBX 8 8 0 -2
BITMAP
00
3E
06
0C
18
30
3E
00
ENDCHAR

STARTCHAR jisx0208_2627
ENCODING 9767
SWIDTH 960 0
DWIDTH 8 0
BBX 8 8 0 -2
BITMAP
00
66
66
7E
66
66
66
00
ENDCHAR

STARTCHAR jisx0208_2628
ENCODING 9768
SWIDTH 960 0
DWIDTH 8 0
BBX 8 8 0 -2
BITMAP
00
3E
63
5B
63
63
3E
00
ENDCHAR

STARTCHAR jisx0208_2629
ENCODING 9769
SWIDTH 960 0
DWIDTH 8 0
BBX 8 8 0 -2
BITMAP
00
18
18
18
18
18
18
00
ENDCHAR

STARTCHAR jisx0208_262A
ENCODING 9770
SWIDTH 960 0
DWIDTH 8 0
BBX 8 8 0 -2
BITMAP
00
66
6C
58
78
6C
66
00
ENDCHAR

STARTCHAR jisx0208_262B
ENCODING 9771
SWIDTH 960 0
DWIDTH 8 0
BBX 8 8 0 -2
BITMAP
00
18
2C
2C
66
66
66
00
ENDCHAR

STARTCHAR jisx0208_262C
ENCODING 9772
SWIDTH 960 0
DWIDTH 8 0
BBX 8 8 0 -2
BITMAP
00
63
63
77
77
5B
5B
00
ENDCHAR

STARTCHAR jisx0208_262D
ENCODING 9773
SWIDTH 960 0
DWIDTH 8 0
BBX 8 8 0 -2
BITMAP
00
66
76
56
56
6E
66
00
ENDCHAR

STARTCHAR jisx0208_262E
ENCODING 9774
SWIDTH 960 0
DWIDTH 8 0
BBX 8 8 0 -2
BITMAP
00
7E
00
3C
00
00
7E
00
ENDCHAR

STARTCHAR jisx0208_262F
ENCODING 9775
SWIDTH 960 0
DWIDTH 8 0
BBX 8 8 0 -2
BITMAP
00
3E
63
63
63
63
3E
00
ENDCHAR

STARTCHAR jisx0208_2630
ENCODING 9776
SWIDTH 960 0
DWIDTH 8 0
BBX 8 8 0 -2
BITMAP
00
7E
66
66
66
66
66
00
ENDCHAR

STARTCHAR jisx0208_2631
ENCODING 9777
SWIDTH 960 0
DWIDTH 8 0
BBX 8 8 0 -2
BITMAP
00
3E
33
33
3E
30
30
00
ENDCHAR

STARTCHAR jisx0208_2632
ENCODING 9778
SWIDTH 960 0
DWIDTH 8 0
BBX 8 8 0 -2
BITMAP
00
7E
30
18
18
30
7E
00
ENDCHAR

STARTCHAR jisx0208_2633
ENCODING 9779
SWIDTH 960 0
DWIDTH 8 0
BBX 8 8 0 -2
BITMAP
00
7E
18
18
18
18
18
00
ENDCHAR

STARTCHAR jisx0208_2634
ENCODING 9780
SWIDTH 960 0
DWIDTH 8 0
BBX 8 8 0 -2
BITMAP
00
2C
56
18
18
18
18
00
ENDCHAR

STARTCHAR jisx0208_2635
ENCODING 9781
SWIDTH 960 0
DWIDTH 8 0
BBX 8 8 0 -2
BITMAP
00
18
3C
56
56
3C
18
00
ENDCHAR

STARTCHAR jisx0208_2636
ENCODING 9782
SWIDTH 960 0
DWIDTH 8 0
BBX 8 8 0 -2
BITMAP
00
66
2C
18
18
2C
66
00
ENDCHAR

STARTCHAR jisx0208_2637
ENCODING 9783
SWIDTH 960 0
DWIDTH 8 0
BBX 8 8 0 -2
BITMAP
00
56
56
56
56
3C
18
00
ENDCHAR

STARTCHAR jisx0208_2638
ENCODING 9784
SWIDTH 960 0
DWIDTH 8 0
BBX 8 8 0 -2
BITMAP
00
3C
66
66
66
2C
6E
00
ENDCHAR

STARTCHAR jisx0208_2641
ENCODING 9793
SWIDTH 960 0
DWIDTH 8 0
BBX 8 8 0 -2
BITMAP
00
00
1B
37
66
6E
37
00
ENDCHAR

STARTCHAR jisx0208_2642
ENCODING 9794
SWIDTH 960 0
DWIDTH 8 0
BBX 8 8 0 -2
BITMAP
00
1C
36
2C
66
76
5C
60
ENDCHAR

STARTCHAR jisx0208_2643
ENCODING 9795
SWIDTH 960 0
DWIDTH 8 0
BBX 8 8 0 -2
BITMAP
00
00
37
5C
18
18
30
30
ENDCHAR

STARTCHAR jisx0208_2644
ENCODING 9796
SWIDTH 960 0
DWIDTH 8 0
BBX 8 8 0 -2
BITMAP
00
1F
1C
36
66
6C
38
00
ENDCHAR

STARTCHAR jisx0208_2645
ENCODING 9797
SWIDTH 960 0
DWIDTH 8 0
BBX 8 8 0 -2
BITMAP
00
00
1E
30
38
66
3C
00
ENDCHAR

STARTCHAR jisx0208_2646
ENCODING 9798
SWIDTH 960 0
DWIDTH 8 0
BBX 8 8 0 -2
BITMAP
00
1E
0C
18
30
3C
06
1C
ENDCHAR

STARTCHAR jisx0208_2647
ENCODING 9799
SWIDTH 960 0
DWIDTH 8 0
BBX 8 8 0 -2
BITMAP
00
00
2E
5B
1B
36
36
06
ENDCHAR

STARTCHAR jisx0208_2648
ENCODING 9800
SWIDTH 960 0
DWIDTH 8 0
BBX 8 8 0 -2
BITMAP
00
1C
36
7E
66
6C
38
00
ENDCHAR

STARTCHAR jisx0208_2649
ENCODING 9801
SWIDTH 960 0
DWIDTH 8 0
BBX 8 8 0 -2
BITMAP
00
00
0C
0C
18
16
1C
00
ENDCHAR

STARTCHAR jisx0208_264A
ENCODING 9802
SWIDTH 960 0
DWIDTH 8 0
BBX 8 8 0 -2
BITMAP
00
00
37
2C
3C
6B
6E
00
ENDCHAR

STARTCHAR jisx0208_264B
ENCODING 9803
SWIDTH 960 0
DWIDTH 8 0
BBX 8 8 0 -2
BITMAP
00
38
0C
1C
2C
6C
6E
00
ENDCHAR

STARTCHAR jisx0208_264C
ENCODING 9804
SWIDTH 960 0
DWIDTH 8 0
BBX 8 8 0 -2
BITMAP
00
00
36
36
6C
6B
7E
60
ENDCHAR

STARTCHAR jisx0208_264D
ENCODING 9805
SWIDTH 960 0
DWIDTH 8 0
BBX 8 8 0 -2
BITMAP
00
00
66
36
2C
38
30
00
ENDCHAR

STARTCHAR jisx0208_264E
ENCODING 9806
SWIDTH 960 0
DWIDTH 8 0
BBX 8 8 0 -2
BITMAP
00
3E
18
1C
30
3C
06
1C
ENDCHAR

STARTCHAR jisx0208_264F
ENCODING 9807
SWIDTH 960 0
DWIDTH 8 0
BBX 8 8 0 -2
BITMAP
00
00
1C
36
66
6C
38
00
ENDCHAR

STARTCHAR jisx0208_2650
ENCODING 9808
SWIDTH 960 0
DWIDTH 8 0
BBX 8 8 0 -2
BITMAP
00
00
3F
56
16
2B
6E
00
ENDCHAR

STARTCHAR jisx0208_2651
ENCODING 9809
SWIDTH 960 0
DWIDTH 8 0
BBX 8 8 0 -2
BITMAP
00
00
0E
1B
33
36
5C
60
ENDCHAR

STARTCHAR jisx0208_2652
ENCODING 9810
SWIDTH 960 0
DWIDTH 8 0
BBX 8 8 0 -2
BITMAP
00
00
1F
36
66
6C
38
00
ENDCHAR

STARTCHAR jisx0208_2653
ENCODING 9811
SWIDTH 960 0
DWIDTH 8 0
BBX 8 8 0 -2
BITMAP
00
00
3E
58
18
2C
38
00
ENDCHAR

STARTCHAR jisx0208_2654
ENCODING 9812
SWIDTH 960 0
DWIDTH 8 0
BBX 8 8 0 -2
BITMAP
00
00
2C
36
66
6C
38
00
ENDCHAR

STARTCHAR jisx0208_2655
ENCODING 9813
SWIDTH 960 0
DWIDTH 8 0
BBX 8 8 0 -2
BITMAP
00
0C
3C
56
56
3C
30
30
ENDCHAR

STARTCHAR jisx0208_2656
ENCODING 9814
SWIDTH 960 0
DWIDTH 8 0
BBX 8 8 0 -2
BITMAP
00
00
3B
56
1C
1C
2B
6E
ENDCHAR

STARTCHAR jisx0208_2657
ENCODING 9815
SWIDTH 960 0
DWIDTH 8 0
BBX 8 8 0 -2
BITMAP
00
0C
6B
2B
6B
5B
3E
18
ENDCHAR

STARTCHAR jisx0208_2658
ENCODING 9816
SWIDTH 960 0
DWIDTH 8 0
BBX 8 8 0 -2
BITMAP
00
00
16
33
6B
6B
3E
00
ENDCHAR

STARTCHAR jisx0208_2721
ENCODING 10017
SWIDTH 960 0
DWIDTH 8 0
BBX 8 8 0 -2
BITMAP
00
18
2C
2C
66
7E
66
00
ENDCHAR

STARTCHAR jisx0208_2722
ENCODING 10018
SWIDTH 960 0
DWIDTH 8 0
BBX 8 8 0 -2
BITMAP
00
7C
60
7C
66
66
7C
00
ENDCHAR

STARTCHAR jisx0208_2723
ENCODING 10019
SWIDTH 960 0
DWIDTH 8 0
BBX 8 8 0 -2
BITMAP
00
7C
66
7C
66
66
7C
00
ENDCHAR

STARTCHAR jisx0208_2724
ENCODING 10020
SWIDTH 960 0
DWIDTH 8 0
BBX 8 8 0 -2
BITMAP
00
3F
30
30
30
30
30
00
ENDCHAR

STARTCHAR jisx0208_2725
ENCODING 10021
SWIDTH 960 0
DWIDTH 8 0
BBX 8 8 0 -2
BITMAP
00
3E
36
36
36
66
FF
C3
ENDCHAR

STARTCHAR jisx0208_2726
ENCODING 10022
SWIDTH 960 0
DWIDTH 8 0
BBX 8 8 0 -2
BITMAP
00
7E
60
7C
60
60
7E
00
ENDCHAR

STARTCHAR jisx0208_2727
ENCODING 10023
SWIDTH 960 0
DWIDTH 8 0
BBX 8 8 0 -2
BITMAP
2C
00
7E
60
7C
60
7E
00
ENDCHAR

STARTCHAR jisx0208_2728
ENCODING 10024
SWIDTH 960 0
DWIDTH 8 0
BBX 8 8 0 -2
BITMAP
00
D7
56
3C
56
DB
DB
00
ENDCHAR

STARTCHAR jisx0208_2729
ENCODING 10025
SWIDTH 960 0
DWIDTH 8 0
BBX 8 8 0 -2
BITMAP
00
3C
66
1C
06
66
3C
00
ENDCHAR

STARTCHAR jisx0208_272A
ENCODING 10026
SWIDTH 960 0
DWIDTH 8 0
BBX 8 8 0 -2
BITMAP
00
66
6E
56
56
76
66
00
ENDCHAR

STARTCHAR jisx0208_272B
ENCODING 10027
SWIDTH 960 0
DWIDTH 8 0
BBX 8 8 0 -2
BITMAP
2C
56
6E
56
56
76
66
00
ENDCHAR

STARTCHAR jisx0208_272C
ENCODING 10028
SWIDTH 960 0
DWIDTH 8 0
BBX 8 8 0 -2
BITMAP
00
66
6C
78
6C
6C
66
00
ENDCHAR

STARTCHAR jisx0208_272D
ENCODING 10029
SWIDTH 960 0
DWIDTH 8 0
BBX 8 8 0 -2
BITMAP
00
3E
36
36
36
36
76
00
ENDCHAR

STARTCHAR jisx0208_272E
ENCODING 10030
SWIDTH 960 0
DWIDTH 8 0
BBX 8 8 0 -2
BITMAP
00
63
63
77
77
5B
5B
00
ENDCHAR

STARTCHAR jisx0208_272F
ENCODING 10031
SWIDTH 960 0
DWIDTH 8 0
BBX 8 8 0 -2
BITMAP
00
66
66
7E
66
66
66
00
ENDCHAR

STARTCHAR jisx0208_2730
ENCODING 10032
SWIDTH 960 0
DWIDTH 8 0
BBX 8 8 0 -2
BITMAP
00
3E
63
63
63
63
3E
00
ENDCHAR

STARTCHAR jisx0208_2731
ENCODING 10033
SWIDTH 960 0
DWIDTH 8 0
BBX 8 8 0 -2
BITMAP
00
7E
66
66
66
66
66
00
ENDCHAR

STARTCHAR jisx0208_2732
ENCODING 10034
SWIDTH 960 0
DWIDTH 8 0
BBX 8 8 0 -2
BITMAP
00
3E
33
33
3E
30
30
00
ENDCHAR

STARTCHAR jisx0208_2733
ENCODING 10035
SWIDTH 960 0
DWIDTH 8 0
BBX 8 8 0 -2
BITMAP
00
3C
66
60
60
66
3C
00
ENDCHAR

STARTCHAR jisx0208_2734
ENCODING 10036
SWIDTH 960 0
DWIDTH 8 0
BBX 8 8 0 -2
BITMAP
00
7E
18
18
18
18
18
00
ENDCHAR

STARTCHAR jisx0208_2735
ENCODING 10037
SWIDTH 960 0
DWIDTH 8 0
BBX 8 8 0 -2
BITMAP
00
66
66
2C
2C
18
70
00
ENDCHAR

STARTCHAR jisx0208_2736
ENCODING 10038
SWIDTH 960 0
DWIDTH 8 0
BBX 8 8 0 -2
BITMAP
00
18
3C
56
56
3C
18
00
ENDCHAR

STARTCHAR jisx0208_2737
ENCODING 10039
SWIDTH 960 0
DWIDTH 8 0
BBX 8 8 0 -2
BITMAP
00
66
2C
18
18
2C
66
00
ENDCHAR

STARTCHAR jisx0208_2738
ENCODING 10040
SWIDTH 960 0
DWIDTH 8 0
BBX 8 8 0 -2
BITMAP
00
66
66
66
66
66
7F
03
ENDCHAR

STARTCHAR jisx0208_2739
ENCODING 10041
SWIDTH 960 0
DWIDTH 8 0
BBX 8 8 0 -2
BITMAP
00
66
66
66
3E
06
06
00
ENDCHAR

STARTCHAR jisx0208_273A
ENCODING 10042
SWIDTH 960 0
DWIDTH 8 0
BBX 8 8 0 -2
BITMAP
00
DB
DB
DB
DB
DB
FF
00
ENDCHAR

STARTCHAR jisx0208_273B
ENCODING 10043
SWIDTH 960 0
DWIDTH 8 0
BBX 8 8 0 -2
BITMAP
00
DB
DB
DB
DB
DB
FF
01
ENDCHAR

STARTCHAR jisx0208_273C
ENCODING 10044
SWIDTH 960 0
DWIDTH 8 0
BBX 8 8 0 -2
BITMAP
00
70
30
3E
33
33
3E
00
ENDCHAR

STARTCHAR jisx0208_273D
ENCODING 10045
SWIDTH 960 0
DWIDTH 8 0
BBX 8 8 0 -2
BITMAP
00
63
63
7B
6B
6B
7B
00
ENDCHAR

STARTCHAR jisx0208_273E
ENCODING 10046
SWIDTH 960 0
DWIDTH 8 0
BBX 8 8 0 -2
BITMAP
00
30
30
3E
33
33
3E
00
ENDCHAR

STARTCHAR jisx0208_273F
ENCODING 10047
SWIDTH 960 0
DWIDTH 8 0
BBX 8 8 0 -2
BITMAP
00
3E
63
1F
03
63
3E
00
ENDCHAR

STARTCHAR jisx0208_2740
ENCODING 10048
SWIDTH 960 0
DWIDTH 8 0
BBX 8 8 0 -2
BITMAP
00
DE
B3
F3
B3
B3
DE
00
ENDCHAR

STARTCHAR jisx0208_2741
ENCODING 10049
SWIDTH 960 0
DWIDTH 8 0
BBX 8 8 0 -2
BITMAP
00
3E
66
66
3E
66
66
00
ENDCHAR

STARTCHAR jisx0208_2751
ENCODING 10065
SWIDTH 960 0
DWIDTH 8 0
BBX 8 8 0 -2
BITMAP
00
00
3C
06
3E
66
3E
00
ENDCHAR

STARTCHAR jisx0208_2752
ENCODING 10066
SWIDTH 960 0
DWIDTH 8 0
BBX 8 8 0 -2
BITMAP
06
1C
30
3C
36
36
1C
00
ENDCHAR

STARTCHAR jisx0208_2753
ENCODING 10067
SWIDTH 960 0
DWIDTH 8 0
BBX 8 8 0 -2
BITMAP
00
00
3C
36
3C
36
3C
00
ENDCHAR

STARTCHAR jisx0208_2754
ENCODING 10068
SWIDTH 960 0
DWIDTH 8 0
BBX 8 8 0 -2
BITMAP
00
00
3E
30
30
30
30
00
ENDCHAR

STARTCHAR jisx0208_2755
ENCODING 10069
SWIDTH 960 0
DWIDTH 8 0
BBX 8 8 0 -2
BITMAP
00
00
1E
16
16
36
7F
63
ENDCHAR

STARTCHAR jisx0208_2756
ENCODING 10070
SWIDTH 960 0
DWIDTH 8 0
BBX 8 8 0 -2
BITMAP
00
00
3C
66
7E
60
3E
00
ENDCHAR

STARTCHAR jisx0208_2757
ENCODING 10071
SWIDTH 960 0
DWIDTH 8 0
BBX 8 8 0 -2
BITMAP
2C
00
3C
66
7E
60
3E
00
ENDCHAR

STARTCHAR jisx0208_2758
ENCODING 10072
SWIDTH 960 0
DWIDTH 8 0
BBX 8 8 0 -2
BITMAP
00
00
D7
56
3C
56
DB
00
ENDCHAR

STARTCHAR jisx0208_2759
ENCODING 10073
SWIDTH 960 0
DWIDTH 8 0
BBX 8 8 0 -2
BITMAP
00
00
3C
66
1C
66
3C
00
ENDCHAR

STARTCHAR jisx0208_275A
ENCODING 10074
SWIDTH 960 0
DWIDTH 8 0
BBX 8 8 0 -2
BITMAP
00
00
66
6E
56
76
66
00
ENDCHAR

STARTCHAR jisx0208_275B
ENCODING 10075
SWIDTH 960 0
DWIDTH 8 0
BBX 8 8 0 -2
BITMAP
2C
18
66
6E
56
76
66
00
ENDCHAR

STARTCHAR jisx0208_275C
ENCODING 10076
SWIDTH 960 0
DWIDTH 8 0
BBX 8 8 0 -2
BITMAP
00
00
36
2C
38
2C
36
00
ENDCHAR

STARTCHAR jisx0208_275D
ENCODING 10077
SWIDTH 960 0
DWIDTH 8 0
BBX 8 8 0 -2
BITMAP
00
00
3E
36
36
36
76
00
ENDCHAR

STARTCHAR jisx0208_275E
ENCODING 10078
SWIDTH 960 0
DWIDTH 8 0
BBX 8 8 0 -2
BITMAP
00
00
66
6E
6E
56
56
00
ENDCHAR

STARTCHAR jisx0208_275F
ENCODING 10079
SWIDTH 960 0
DWIDTH 8 0
BBX 8 8 0 -2
BITMAP
00
00
66
66
7E
66
66
00
ENDCHAR

STARTCHAR jisx0208_2760
ENCODING 10080
SWIDTH 960 0
DWIDTH 8 0
BBX 8 8 0 -2
BITMAP
00
00
3C
66
66
66
3C
00
ENDCHAR

STARTCHAR jisx0208_2761
ENCODING 10081
SWIDTH 960 0
DWIDTH 8 0
BBX 8 8 0 -2
BITMAP
00
00
7E
66
66
66
66
00
ENDCHAR

STARTCHAR jisx0208_2762
ENCODING 10082
SWIDTH 960 0
DWIDTH 8 0
BBX 8 8 0 -2
BITMAP
00
00
7C
66
66
66
7C
60
ENDCHAR

STARTCHAR jisx0208_2763
ENCODING 10083
SWIDTH 960 0
DWIDTH 8 0
BBX 8 8 0 -2
BITMAP
00
00
3C
66
60
66
3C
00
ENDCHAR

STARTCHAR jisx0208_2764
ENCODING 10084
SWIDTH 960 0
DWIDTH 8 0
BBX 8 8 0 -2
BITMAP
00
00
7E
18
18
18
18
00
ENDCHAR

STARTCHAR jisx0208_2765
ENCODING 10085
SWIDTH 960 0
DWIDTH 8 0
BBX 8 8 0 -2
BITMAP
00
00
33
33
16
0C
0C
38
ENDCHAR

STARTCHAR jisx0208_2766
ENCODING 10086
SWIDTH 960 0
DWIDTH 8 0
BBX 8 8 0 -2
BITMAP
00
18
56
BB
DB
BB
56
18
ENDCHAR

STARTCHAR jisx0208_2767
ENCODING 10087
SWIDTH 960 0
DWIDTH 8 0
BBX 8 8 0 -2
BITMAP
00
00
66
2C
18
2C
66
00
ENDCHAR

STARTCHAR jisx0208_2768
ENCODING 10088
SWIDTH 960 0
DWIDTH 8 0
BBX 8 8 0 -2
BITMAP
00
00
36
36
36
36
3F
03
ENDCHAR

STARTCHAR jisx0208_2769
ENCODING 10089
SWIDTH 960 0
DWIDTH 8 0
BBX 8 8 0 -2
BITMAP
00
00
36
36
1E
06
06
00
ENDCHAR

STARTCHAR jisx0208_276A
ENCODING 10090
SWIDTH 960 0
DWIDTH 8 0
BBX 8 8 0 -2
BITMAP
00
00
56
56
56
56
7E
00
ENDCHAR

STARTCHAR jisx0208_276B
ENCODING 10091
SWIDTH 960 0
DWIDTH 8 0
BBX 8 8 0 -2
BITMAP
00
00
56
56
56
56
7F
03
ENDCHAR

STARTCHAR jisx0208_276C
ENCODING 10092
SWIDTH 960 0
DWIDTH 8 0
BBX 8 8 0 -2
BITMAP
00
00
70
30
3C
36
3C
00
ENDCHAR

STARTCHAR jisx0208_276D
ENCODING 10093
SWIDTH 960 0
DWIDTH 8 0
BBX 8 8 0 -2
BITMAP
00
00
63
63
7B
6B
7B
00
ENDCHAR

STARTCHAR jisx0208_276E
ENCODING 10094
SWIDTH 960 0
DWIDTH 8 0
BBX 8 8 0 -2
BITMAP
00
00
30
30
3C
36
3C
00
ENDCHAR

STARTCHAR jisx0208_276F
ENCODING 10095
SWIDTH 960 0
DWIDTH 8 0
BBX 8 8 0 -2
BITMAP
00
00
3C
66
1E
66
3C
00
ENDCHAR

STARTCHAR jisx0208_2770
ENCODING 10096
SWIDTH 960 0
DWIDTH 8 0
BBX 8 8 0 -2
BITMAP
00
00
6E
5B
7B
5B
6E
00
ENDCHAR

STARTCHAR jisx0208_2771
ENCODING 10097
SWIDTH 960 0
DWIDTH 8 0
BBX 8 8 0 -2
BITMAP
00
00
1E
36
1E
36
36
00
ENDCHAR

STARTCHAR jisx0208_2821
ENCODING 10273
SWIDTH 960 0
DWIDTH 8 0
BBX 8 8 0 -2
BITMAP
00
00
00
FF
00
00
00
00
ENDCHAR

STARTCHAR jisx0208_2822
ENCODING 10274
SWIDTH 960 0
DWIDTH 8 0
BBX 8 8 0 -2
BITMAP
18
18
18
18
18
18
18
18
ENDCHAR

STARTCHAR jisx0208_2823
ENCODING 10275
SWIDTH 960 0
DWIDTH 8 0
BBX 8 8 0 -2
BITMAP
00
00
00
1F
18
18
18
18
ENDCHAR

STARTCHAR jisx0208_2824
ENCODING 10276
SWIDTH 960 0
DWIDTH 8 0
BBX 8 8 0 -2
BITMAP
00
00
00
F8
18
18
18
18
ENDCHAR

STARTCHAR jisx0208_2825
ENCODING 10277
SWIDTH 960 0
DWIDTH 8 0
BBX 8 8 0 -2
BITMAP
18
18
18
F8
00
00
00
00
ENDCHAR

STARTCHAR jisx0208_2826
ENCODING 10278
SWIDTH 960 0
DWIDTH 8 0
BBX 8 8 0 -2
BITMAP
18
18
18
1F
00
00
00
00
ENDCHAR

STARTCHAR jisx0208_2827
ENCODING 10279
SWIDTH 960 0
DWIDTH 8 0
BBX 8 8 0 -2
BITMAP
18
18
18
1F
18
18
18
18
ENDCHAR

STARTCHAR jisx0208_2828
ENCODING 10280
SWIDTH 960 0
DWIDTH 8 0
BBX 8 8 0 -2
BITMAP
00
00
00
FF
18
18
18
18
ENDCHAR

STARTCHAR jisx0208_2829
ENCODING 10281
SWIDTH 960 0
DWIDTH 8 0
BBX 8 8 0 -2
BITMAP
18
18
18
F8
18
18
18
18
ENDCHAR

STARTCHAR jisx0208_282A
ENCODING 10282
SWIDTH 960 0
DWIDTH 8 0
BBX 8 8 0 -2
BITMAP
18
18
18
FF
00
00
00
00
ENDCHAR

STARTCHAR jisx0208_282B
ENCODING 10283
SWIDTH 960 0
DWIDTH 8 0
BBX 8 8 0 -2
BITMAP
18
18
18
FF
18
18
18
18
ENDCHAR

STARTCHAR jisx0208_282C
ENCODING 10284
SWIDTH 960 0
DWIDTH 8 0
BBX 8 8 0 -2
BITMAP
00
00
00
FF
FF
00
00
00
ENDCHAR

STARTCHAR jisx0208_282D
ENCODING 10285
SWIDTH 960 0
DWIDTH 8 0
BBX 8 8 0 -2
BITMAP
1C
1C
1C
1C
1C
1C
1C
1C
ENDCHAR

STARTCHAR jisx0208_282E
ENCODING 10286
SWIDTH 960 0
DWIDTH 8 0
BBX 8 8 0 -2
BITMAP
00
00
00
1F
1F
1C
1C
1C
ENDCHAR

STARTCHAR jisx0208_282F
ENCODING 10287
SWIDTH 960 0
DWIDTH 8 0
BBX 8 8 0 -2
BITMAP
00
00
00
FC
FC
1C
1C
1C
ENDCHAR

STARTCHAR jisx0208_2830
ENCODING 10288
SWIDTH 960 0
DWIDTH 8 0
BBX 8 8 0 -2
BITMAP
1C
1C
1C
FC
FC
00
00
00
ENDCHAR

STARTCHAR jisx0208_2831
ENCODING 10289
SWIDTH 960 0
DWIDTH 8 0
BBX 8 8 0 -2
BITMAP
1C
1C
1C
1F
1F
00
00
00
ENDCHAR

STARTCHAR jisx0208_2832
ENCODING 10290
SWIDTH 960 0
DWIDTH 8 0
BBX 8 8 0 -2
BITMAP
1C
1C
1C
1F
1F
1C
1C
1C
ENDCHAR

STARTCHAR jisx0208_2833
ENCODING 10291
SWIDTH 960 0
DWIDTH 8 0
BBX 8 8 0 -2
BITMAP
00
00
00
FF
FF
1C
1C
1C
ENDCHAR

STARTCHAR jisx0208_2834
ENCODING 10292
SWIDTH 960 0
DWIDTH 8 0
BBX 8 8 0 -2
BITMAP
1C
1C
1C
FC
FC
1C
1C
1C
ENDCHAR

STARTCHAR jisx0208_2835
ENCODING 10293
SWIDTH 960 0
DWIDTH 8 0
BBX 8 8 0 -2
BITMAP
1C
1C
1C
FF
FF
00
00
00
ENDCHAR

STARTCHAR jisx0208_2836
ENCODING 10294
SWIDTH 960 0
DWIDTH 8 0
BBX 8 8 0 -2
BITMAP
1C
1C
1C
FF
FF
1C
1C
1C
ENDCHAR

STARTCHAR jisx0208_2837
ENCODING 10295
SWIDTH 960 0
DWIDTH 8 0
BBX 8 8 0 -2
BITMAP
1C
1C
1C
1F
1C
1C
1C
1C
ENDCHAR

STARTCHAR jisx0208_2838
ENCODING 10296
SWIDTH 960 0
DWIDTH 8 0
BBX 8 8 0 -2
BITMAP
00
00
00
FF
FF
18
18
18
ENDCHAR

STARTCHAR jisx0208_2839
ENCODING 10297
SWIDTH 960 0
DWIDTH 8 0
BBX 8 8 0 -2
BITMAP
1C
1C
1C
FC
1C
1C
1C
1C
ENDCHAR

STARTCHAR jisx0208_283A
ENCODING 10298
SWIDTH 960 0
DWIDTH 8 0
BBX 8 8 0 -2
BITMAP
18
18
18
FF
FF
00
00
00
ENDCHAR

STARTCHAR jisx0208_283B
ENCODING 10299
SWIDTH 960 0
DWIDTH 8 0
BBX 8 8 0 -2
BITMAP
18
18
18
FF
FF
18
18
18
ENDCHAR

STARTCHAR jisx0208_283C
ENCODING 10300
SWIDTH 960 0
DWIDTH 8 0
BBX 8 8 0 -2
BITMAP
18
18
18
1F
1F
18
18
18
ENDCHAR

STARTCHAR jisx0208_283D
ENCODING 10301
SWIDTH 960 0
DWIDTH 8 0
BBX 8 8 0 -2
BITMAP
00
00
00
FF
1C
1C
1C
1C
ENDCHAR

STARTCHAR jisx0208_283E
ENCODING 10302
SWIDTH 960 0
DWIDTH 8 0
BBX 8 8 0 -2
BITMAP
18
18
18
F8
F8
18
18
18
ENDCHAR

STARTCHAR jisx0208_283F
ENCODING 10303
SWIDTH 960 0
DWIDTH 8 0
BBX 8 8 0 -2
BITMAP
1C
1C
1C
FF
00
00
00
00
ENDCHAR

STARTCHAR jisx0208_2840
ENCODING 10304
SWIDTH 960 0
DWIDTH 8 0
BBX 8 8 0 -2
BITMAP
1C
1C
1C
FF
1C
1C
1C
1C
ENDCHAR

STARTCHAR jisx0208_2D21
ENCODING 11553
SWIDTH 960 0
DWIDTH 8 0
BBX 8 8 0 -2
BITMAP
3E
63
CD
DD
CD
CD
6B
3E
ENDCHAR

STARTCHAR jisx0208_2D22
ENCODING 11554
SWIDTH 960 0
DWIDTH 8 0
BBX 8 8 0 -2
BITMAP
3E
63
DD
B5
CD
D9
7F
3E
ENDCHAR

STARTCHAR jisx0208_2D23
ENCODING 11555
SWIDTH 960 0
DWIDTH 8 0
BBX 8 8 0 -2
BITMAP
3E
63
DD
B5
CD
B5
5B
3E
ENDCHAR

STARTCHAR jisx0208_2D24
ENCODING 11556
SWIDTH 960 0
DWIDTH 8 0
BBX 8 8 0 -2
BITMAP
3E
63
CD
DD
AD
FD
6B
3E
ENDCHAR

STARTCHAR jisx0208_2D25
ENCODING 11557
SWIDTH 960 0
DWIDTH 8 0
BBX 8 8 0 -2
BITMAP
3E
63
BD
B1
BD
C5
7B
3E
ENDCHAR

STARTCHAR jisx0208_2D26
ENCODING 11558
SWIDTH 960 0
DWIDTH 8 0
BBX 8 8 0 -2
BITMAP
3E
63
DD
B1
BD
B5
5B
3E
ENDCHAR

STARTCHAR jisx0208_2D27
ENCODING 11559
SWIDTH 960 0
DWIDTH 8 0
BBX 8 8 0 -2
BITMAP
3E
63
BD
C5
CD
CD
6B
3E
ENDCHAR

STARTCHAR jisx0208_2D28
ENCODING 11560
SWIDTH 960 0
DWIDTH 8 0
BBX 8 8 0 -2
BITMAP
3E
63
DD
B5
DD
B5
5B
3E
ENDCHAR

STARTCHAR jisx0208_2D29
ENCODING 11561
SWIDTH 960 0
DWIDTH 8 0
BBX 8 8 0 -2
BITMAP
3E
63
DD
B5
DD
C5
7B
3E
ENDCHAR

STARTCHAR jisx0208_2D2A
ENCODING 11562
SWIDTH 960 0
DWIDTH 8 0
BBX 8 8 0 -2
BITMAP
3E
63
F5
AB
AB
AB
77
3E
ENDCHAR

STARTCHAR jisx0208_2D2B
ENCODING 11563
SWIDTH 960 0
DWIDTH 8 0
BBX 8 8 0 -2
BITMAP
3E
63
ED
B5
B5
B5
77
3E
ENDCHAR

STARTCHAR jisx0208_2D2C
ENCODING 11564
SWIDTH 960 0
DWIDTH 8 0
BBX 8 8 0 -2
BITMAP
3E
63
ED
BB
B5
AD
7F
3E
ENDCHAR

STARTCHAR jisx0208_2D2D
ENCODING 11565
SWIDTH 960 0
DWIDTH 8 0
BBX 8 8 0 -2
BITMAP
3E
63
ED
BB
B5
BB
6F
3E
ENDCHAR

STARTCHAR jisx0208_2D2E
ENCODING 11566
SWIDTH 960 0
DWIDTH 8 0
BBX 8 8 0 -2
BITMAP
3E
63
F5
AD
B5
BF
77
3E
ENDCHAR

STARTCHAR jisx0208_2D2F
ENCODING 11567
SWIDTH 960 0
DWIDTH 8 0
BBX 8 8 0 -2
BITMAP
3E
63
EF
AD
AD
B3
6F
3E
ENDCHAR

STARTCHAR jisx0208_2D30
ENCODING 11568
SWIDTH 960 0
DWIDTH 8 0
BBX 8 8 0 -2
BITMAP
3E
63
ED
B9
BD
BB
6F
3E
ENDCHAR

STARTCHAR jisx0208_2D31
ENCODING 11569
SWIDTH 960 0
DWIDTH 8 0
BBX 8 8 0 -2
BITMAP
3E
63
EF
B3
B5
B5
77
3E
ENDCHAR

STARTCHAR jisx0208_2D32
ENCODING 11570
SWIDTH 960 0
DWIDTH 8 0
BBX 8 8 0 -2
BITMAP
3E
63
ED
BB
AD
BB
6F
3E
ENDCHAR

STARTCHAR jisx0208_2D33
ENCODING 11571
SWIDTH 960 0
DWIDTH 8 0
BBX 8 8 0 -2
BITMAP
3E
63
ED
BB
AF
B3
6F
3E
ENDCHAR

STARTCHAR jisx0208_2D34
ENCODING 11572
SWIDTH 960 0
DWIDTH 8 0
BBX 8 8 0 -2
BITMAP
3E
63
B5
DB
DB
AB
77
3E
ENDCHAR

STARTCHAR jisx0208_2D35
ENCODING 11573
SWIDTH 960 0
DWIDTH 8 0
BBX 8 8 0 -2
BITMAP
00
18
18
18
18
18
18
00
ENDCHAR

STARTCHAR jisx0208_2D36
ENCODING 11574
SWIDTH 960 0
DWIDTH 8 0
BBX 8 8 0 -2
BITMAP
00
36
36
36
36
36
36
00
ENDCHAR

STARTCHAR jisx0208_2D37
ENCODING 11575
SWIDTH 960 0
DWIDTH 8 0
BBX 8 8 0 -2
BITMAP
00
56
56
56
56
56
56
00
ENDCHAR

STARTCHAR jisx0208_2D38
ENCODING 11576
SWIDTH 960 0
DWIDTH 8 0
BBX 8 8 0 -2
BITMAP
00
5B
5B
5B
5B
6E
6E
00
ENDCHAR

STARTCHAR jisx0208_2D39
ENCODING 11577
SWIDTH 960 0
DWIDTH 8 0
BBX 8 8 0 -2
BITMAP
00
66
66
66
2C
2C
18
00
ENDCHAR

STARTCHAR jisx0208_2D3A
ENCODING 11578
SWIDTH 960 0
DWIDTH 8 0
BBX 8 8 0 -2
BITMAP
00
6B
6B
6B
6B
3B
3B
00
ENDCHAR

STARTCHAR jisx0208_2D3B
ENCODING 11579
SWIDTH 960 0
DWIDTH 8 0
BBX 8 8 0 -2
BITMAP
00
AB
AB
AB
AB
6B
6B
00
ENDCHAR

STARTCHAR jisx0208_2D3C
ENCODING 11580
SWIDTH 960 0
DWIDTH 8 0
BBX 8 8 0 -2
BITMAP
00
B5
B5
B5
55
55
55
00
ENDCHAR

STARTCHAR jisx0208_2D3D
ENCODING 11581
SWIDTH 960 0
DWIDTH 8 0
BBX 8 8 0 -2
BITMAP
00
5B
5B
6E
6E
5B
5B
00
ENDCHAR

STARTCHAR jisx0208_2D3E
ENCODING 11582
SWIDTH 960 0
DWIDTH 8 0
BBX 8 8 0 -2
BITMAP
00
66
2C
18
18
2C
66
00
ENDCHAR

STARTCHAR jisx0208_2D40
ENCODING 11584
SWIDTH 960 0
DWIDTH 8 0
BBX 8 8 0 -2
BITMAP
F0
00
F0
0D
ED
0D
01
07
ENDCHAR

STARTCHAR jisx0208_2D41
ENCODING 11585
SWIDTH 960 0
DWIDTH 8 0
BBX 8 8 0 -2
BITMAP
30
F8
30
F8
2F
0D
0D
0F
ENDCHAR

STARTCHAR jisx0208_2D42
ENCODING 11586
SWIDTH 960 0
DWIDTH 8 0
BBX 8 8 0 -2
BITMAP
76
D9
61
77
30
F8
30
60
ENDCHAR

STARTCHAR jisx0208_2D43
ENCODING 11587
SWIDTH 960 0
DWIDTH 8 0
BBX 8 8 0 -2
BITMAP
18
58
37
D8
63
77
67
6B
ENDCHAR

STARTCHAR jisx0208_2D44
ENCODING 11588
SWIDTH 960 0
DWIDTH 8 0
BBX 8 8 0 -2
BITMAP
57
78
D7
31
E7
60
B8
D8
ENDCHAR

STARTCHAR jisx0208_2D45
ENCODING 11589
SWIDTH 960 0
DWIDTH 8 0
BBX 8 8 0 -2
BITMAP
60
60
78
60
6E
01
03
0E
ENDCHAR

STARTCHAR jisx0208_2D46
ENCODING 11590
SWIDTH 960 0
DWIDTH 8 0
BBX 8 8 0 -2
BITMAP
F8
58
77
C0
30
70
6C
B8
ENDCHAR

STARTCHAR jisx0208_2D47
ENCODING 11591
SWIDTH 960 0
DWIDTH 8 0
BBX 8 8 0 -2
BITMAP
67
AD
1B
06
7B
DF
37
EB
ENDCHAR

STARTCHAR jisx0208_2D48
ENCODING 11592
SWIDTH 960 0
DWIDTH 8 0
BBX 8 8 0 -2
BITMAP
B0
AD
31
67
63
77
67
6B
ENDCHAR

STARTCHAR jisx0208_2D49
ENCODING 11593
SWIDTH 960 0
DWIDTH 8 0
BBX 8 8 0 -2
BITMAP
F8
DD
19
77
60
78
60
60
ENDCHAR

STARTCHAR jisx0208_2D4A
ENCODING 11594
SWIDTH 960 0
DWIDTH 8 0
BBX 8 8 0 -2
BITMAP
60
F7
55
B7
58
57
18
70
ENDCHAR

STARTCHAR jisx0208_2D4B
ENCODING 11595
SWIDTH 960 0
DWIDTH 8 0
BBX 8 8 0 -2
BITMAP
AC
C0
F0
C0
C6
0E
0D
17
ENDCHAR

STARTCHAR jisx0208_2D4C
ENCODING 11596
SWIDTH 960 0
DWIDTH 8 0
BBX 8 8 0 -2
BITMAP
76
D9
61
77
60
78
60
60
ENDCHAR

STARTCHAR jisx0208_2D4D
ENCODING 11597
SWIDTH 960 0
DWIDTH 8 0
BBX 8 8 0 -2
BITMAP
0E
5E
6B
CC
FB
B7
C7
DB
ENDCHAR

STARTCHAR jisx0208_2D4E
ENCODING 11598
SWIDTH 960 0
DWIDTH 8 0
BBX 8 8 0 -2
BITMAP
75
75
01
FB
1B
B7
B7
AB
ENDCHAR

STARTCHAR jisx0208_2D4F
ENCODING 11599
SWIDTH 960 0
DWIDTH 8 0
BBX 8 8 0 -2
BITMAP
5C
BC
17
0C
DC
EC
18
F0
ENDCHAR

STARTCHAR jisx0208_2D50
ENCODING 11600
SWIDTH 960 0
DWIDTH 8 0
BBX 8 8 0 -2
BITMAP
00
00
AB
DD
DD
DD
DD
00
ENDCHAR

STARTCHAR jisx0208_2D51
ENCODING 11601
SWIDTH 960 0
DWIDTH 8 0
BBX 8 8 0 -2
BITMAP
00
00
6B
DD
CD
DD
6D
00
ENDCHAR

STARTCHAR jisx0208_2D52
ENCODING 11602
SWIDTH 960 0
DWIDTH 8 0
BBX 8 8 0 -2
BITMAP
00
C0
AB
AD
ED
AD
AD
00
ENDCHAR

STARTCHAR jisx0208_2D53
ENCODING 11603
SWIDTH 960 0
DWIDTH 8 0
BBX 8 8 0 -2
BITMAP
00
00
B7
DD
DD
D7
D9
0F
ENDCHAR

STARTCHAR jisx0208_2D54
ENCODING 11604
SWIDTH 960 0
DWIDTH 8 0
BBX 8 8 0 -2
BITMAP
00
C0
B7
AD
ED
B7
B1
0F
ENDCHAR

STARTCHAR jisx0208_2D55
ENCODING 11605
SWIDTH 960 0
DWIDTH 8 0
BBX 8 8 0 -2
BITMAP
00
00
77
DD
CC
DD
77
00
ENDCHAR

STARTCHAR jisx0208_2D56
ENCODING 11606
SWIDTH 960 0
DWIDTH 8 0
BBX 8 8 0 -2
BITMAP
03
01
EF
DB
DB
DB
DB
00
ENDCHAR

STARTCHAR jisx0208_2D5F
ENCODING 11615
SWIDTH 960 0
DWIDTH 8 0
BBX 8 8 0 -2
BITMAP
FB
2F
BB
2F
FB
2B
2F
35
ENDCHAR

STARTCHAR jisx0208_2D60
ENCODING 11616
SWIDTH 960 0
DWIDTH 8 0
BBX 8 8 0 -2
BITMAP
05
0B
00
00
00
00
00
00
ENDCHAR

STARTCHAR jisx0208_2D61
ENCODING 11617
SWIDTH 960 0
DWIDTH 8 0
BBX 8 8 0 -2
BITMAP
00
00
00
00
00
00
58
B0
ENDCHAR

STARTCHAR jisx0208_2D62
ENCODING 11618
SWIDTH 960 0
DWIDTH 8 0
BBX 8 8 0 -2
BITMAP
00
D8
D6
DB
BB
BB
D5
00
ENDCHAR

STARTCHAR jisx0208_2D63
ENCODING 11619
SWIDTH 960 0
DWIDTH 8 0
BBX 8 8 0 -2
BITMAP
00
AB
AB
EE
AB
AB
BB
00
ENDCHAR

STARTCHAR jisx0208_2D64
ENCODING 11620
SWIDTH 960 0
DWIDTH 8 0
BBX 8 8 0 -2
BITMAP
00
FE
56
5E
56
56
5F
00
ENDCHAR

STARTCHAR jisx0208_2D65
ENCODING 11621
SWIDTH 960 0
DWIDTH 8 0
BBX 8 8 0 -2
BITMAP
3E
5B
D9
DD
D9
FF
63
3E
ENDCHAR

STARTCHAR jisx0208_2D66
ENCODING 11622
SWIDTH 960 0
DWIDTH 8 0
BBX 8 8 0 -2
BITMAP
3E
5B
FD
D5
FD
D9
5B
3E
ENDCHAR

STARTCHAR jisx0208_2D67
ENCODING 11623
SWIDTH 960 0
DWIDTH 8 0
BBX 8 8 0 -2
BITMAP
3E
63
FF
D9
DD
D9
5B
3E
ENDCHAR

STARTCHAR jisx0208_2D68
ENCODING 11624
SWIDTH 960 0
DWIDTH 8 0
BBX 8 8 0 -2
BITMAP
3E
5B
FF
DD
AD
FF
63
3E
ENDCHAR

STARTCHAR jisx0208_2D69
ENCODING 11625
SWIDTH 960 0
DWIDTH 8 0
BBX 8 8 0 -2
BITMAP
3E
5B
FF
B1
FD
B5
7F
3E
ENDCHAR

STARTCHAR jisx0208_2D6A
ENCODING 11626
SWIDTH 960 0
DWIDTH 8 0
BBX 8 8 0 -2
BITMAP
63
AD
FF
B5
FF
AD
B7
77
ENDCHAR

STARTCHAR jisx0208_2D6B
ENCODING 11627
SWIDTH 960 0
DWIDTH 8 0
BBX 8 8 0 -2
BITMAP
5B
FF
B1
BD
F5
BD
B5
6F
ENDCHAR

STARTCHAR jisx0208_2D6C
ENCODING 11628
SWIDTH 960 0
DWIDTH 8 0
BBX 8 8 0 -2
BITMAP
63
AD
AD
BF
ED
AB
AB
77
ENDCHAR

STARTCHAR jisx0208_2D6D
ENCODING 11629
SWIDTH 960 0
DWIDTH 8 0
BBX 8 8 0 -2
BITMAP
FB
DB
FD
D7
F8
D7
5D
B7
ENDCHAR

STARTCHAR jisx0208_2D6E
ENCODING 11630
SWIDTH 960 0
DWIDTH 8 0
BBX 8 8 0 -2
BITMAP
6F
63
F3
6B
6B
AB
AB
BF
ENDCHAR

STARTCHAR jisx0208_2D6F
ENCODING 11631
SWIDTH 960 0
DWIDTH 8 0
BBX 8 8 0 -2
BITMAP
FB
DE
D7
FD
ED
FD
D5
77
ENDCHAR

STARTCHAR jisx0208_2D70
ENCODING 11632
SWIDTH 960 0
DWIDTH 8 0
BBX 8 8 0 -2
BITMAP
70
00
7F
00
7F
00
07
00
ENDCHAR

STARTCHAR jisx0208_2D71
ENCODING 11633
SWIDTH 960 0
DWIDTH 8 0
BBX 8 8 0 -2
BITMAP
00
7F
00
7F
00
7F
00
00
ENDCHAR

STARTCHAR jisx0208_2D72
ENCODING 11634
SWIDTH 960 0
DWIDTH 8 0
BBX 8 8 0 -2
BITMAP
0C
16
18
18
0C
0C
2C
18
ENDCHAR

STARTCHAR jisx0208_2D73
ENCODING 11635
SWIDTH 960 0
DWIDTH 8 0
BBX 8 8 0 -2
BITMAP
0C
16
1C
36
2E
1C
2C
18
ENDCHAR

STARTCHAR jisx0208_2D74
ENCODING 11636
SWIDTH 960 0
DWIDTH 8 0
BBX 8 8 0 -2
BITMAP
00
7E
30
18
18
30
7E
00
ENDCHAR

STARTCHAR jisx0208_2D75
ENCODING 11637
SWIDTH 960 0
DWIDTH 8 0
BBX 8 8 0 -2
BITMAP
0F
0C
0C
18
58
B0
30
00
ENDCHAR

STARTCHAR jisx0208_2D76
ENCODING 11638
SWIDTH 960 0
DWIDTH 8 0
BBX 8 8 0 -2
BITMAP
00
18
18
18
18
18
7E
00
ENDCHAR

STARTCHAR jisx0208_2D77
ENCODING 11639
SWIDTH 960 0
DWIDTH 8 0
BBX 8 8 0 -2
BITMAP
00
03
06
0C
18
30
7F
00
ENDCHAR

STARTCHAR jisx0208_2D78
ENCODING 11640
SWIDTH 960 0
DWIDTH 8 0
BBX 8 8 0 -2
BITMAP
00
60
60
60
60
60
7F
00
ENDCHAR

STARTCHAR jisx0208_2D79
ENCODING 11641
SWIDTH 960 0
DWIDTH 8 0
BBX 8 8 0 -2
BITMAP
00
03
07
0B
1B
33
7F
00
ENDCHAR

STARTCHAR jisx0208_2D7A
ENCODING 11642
SWIDTH 960 0
DWIDTH 8 0
BBX 8 8 0 -2
BITMAP
00
66
66
00
00
18
18
00
ENDCHAR

STARTCHAR jisx0208_2D7B
ENCODING 11643
SWIDTH 960 0
DWIDTH 8 0
BBX 8 8 0 -2
BITMAP
00
1C
36
36
36
36
36
00
ENDCHAR

STARTCHAR jisx0208_2D7C
ENCODING 11644
SWIDTH 960 0
DWIDTH 8 0
BBX 8 8 0 -2
BITMAP
00
36
36
36
36
36
1C
00
ENDCHAR

STARTCHAR jisx0208_3021
ENCODING 12321
SWIDTH 960 0
DWIDTH 8 0
BBX 8 8 0 -2
BITMAP
FF
36
FF
B5
FF
36
36
FF
ENDCHAR

STARTCHAR jisx0208_3022
ENCODING 12322
SWIDTH 960 0
DWIDTH 8 0
BBX 8 8 0 -2
BITMAP
3F
EB
BF
AB
BF
EB
0B
3F
ENDCHAR

STARTCHAR jisx0208_3023
ENCODING 12323
SWIDTH 960 0
DWIDTH 8 0
BBX 8 8 0 -2
BITMAP
66
5F
F6
7F
B6
DF
66
BF
ENDCHAR

STARTCHAR jisx0208_3024
ENCODING 12324
SWIDTH 960 0
DWIDTH 8 0
BBX 8 8 0 -2
BITMAP
EF
B3
BF
D7
BF
B3
E3
C7
ENDCHAR

STARTCHAR jisx0208_3025
ENCODING 12325
SWIDTH 960 0
DWIDTH 8 0
BBX 8 8 0 -2
BITMAP
18
FF
63
7F
1D
F7
33
FD
ENDCHAR

STARTCHAR jisx0208_3026
ENCODING 12326
SWIDTH 960 0
DWIDTH 8 0
BBX 8 8 0 -2
BITMAP
7F
2B
FF
D5
5F
76
1E
F3
ENDCHAR

STARTCHAR jisx0208_3027
ENCODING 12327
SWIDTH 960 0
DWIDTH 8 0
BBX 8 8 0 -2
BITMAP
66
EB
5D
6C
DF
6F
66
DB
ENDCHAR

STARTCHAR jisx0208_3028
ENCODING 12328
SWIDTH 960 0
DWIDTH 8 0
BBX 8 8 0 -2
BITMAP
66
6B
F9
6F
B0
AF
6D
AF
ENDCHAR

STARTCHAR jisx0208_3029
ENCODING 12329
SWIDTH 960 0
DWIDTH 8 0
BBX 8 8 0 -2
BITMAP
CF
0B
16
0B
D5
6F
66
BF
ENDCHAR

STARTCHAR jisx0208_302A
ENCODING 12330
SWIDTH 960 0
DWIDTH 8 0
BBX 8 8 0 -2
BITMAP
36
FF
36
F5
3B
DD
36
E3
ENDCHAR

STARTCHAR jisx0208_302B
ENCODING 12331
SWIDTH 960 0
DWIDTH 8 0
BBX 8 8 0 -2
BITMAP
36
FF
36
FF
B5
E7
C1
FF
ENDCHAR

STARTCHAR jisx0208_302C
ENCODING 12332
SWIDTH 960 0
DWIDTH 8 0
BBX 8 8 0 -2
BITMAP
2E
DF
5B
FF
5D
FF
66
67
ENDCHAR

STARTCHAR jisx0208_302D
ENCODING 12333
SWIDTH 960 0
DWIDTH 8 0
BBX 8 8 0 -2
BITMAP
FF
2C
FF
AB
FF
2C
B1
BD
ENDCHAR

STARTCHAR jisx0208_302E
ENCODING 12334
SWIDTH 960 0
DWIDTH 8 0
BBX 8 8 0 -2
BITMAP
5F
F9
5F
76
DB
5F
76
EF
ENDCHAR

STARTCHAR jisx0208_302F
ENCODING 12335
SWIDTH 960 0
DWIDTH 8 0
BBX 8 8 0 -2
BITMAP
DF
19
DF
16
1B
5F
56
AF
ENDCHAR

STARTCHAR jisx0208_3030
ENCODING 12336
SWIDTH 960 0
DWIDTH 8 0
BBX 8 8 0 -2
BITMAP
60
67
F5
57
55
57
58
DF
ENDCHAR

STARTCHAR jisx0208_3031
ENCODING 12337
SWIDTH 960 0
DWIDTH 8 0
BBX 8 8 0 -2
BITMAP
36
FF
7F
1B
FF
36
FF
06
ENDCHAR

STARTCHAR jisx0208_3032
ENCODING 12338
SWIDTH 960 0
DWIDTH 8 0
BBX 8 8 0 -2
BITMAP
36
FF
36
FF
63
7F
60
C0
ENDCHAR

STARTCHAR jisx0208_3033
ENCODING 12339
SWIDTH 960 0
DWIDTH 8 0
BBX 8 8 0 -2
BITMAP
6B
DF
F6
BB
B3
ED
03
AE
ENDCHAR

STARTCHAR jisx0208_3034
ENCODING 12340
SWIDTH 960 0
DWIDTH 8 0
BBX 8 8 0 -2
BITMAP
66
FF
6B
FF
E6
5F
66
66
ENDCHAR

STARTCHAR jisx0208_3035
ENCODING 12341
SWIDTH 960 0
DWIDTH 8 0
BBX 8 8 0 -2
BITMAP
7F
60
66
66
5F
66
66
BF
ENDCHAR

STARTCHAR jisx0208_3036
ENCODING 12342
SWIDTH 960 0
DWIDTH 8 0
BBX 8 8 0 -2
BITMAP
66
EB
59
AB
EB
63
EF
63
ENDCHAR

STARTCHAR jisx0208_3037
ENCODING 12343
SWIDTH 960 0
DWIDTH 8 0
BBX 8 8 0 -2
BITMAP
5F
EB
6B
6D
ED
57
77
ED
ENDCHAR

STARTCHAR jisx0208_3038
ENCODING 12344
SWIDTH 960 0
DWIDTH 8 0
BBX 8 8 0 -2
BITMAP
18
FF
B1
7F
DB
6B
6D
CF
ENDCHAR

STARTCHAR jisx0208_3039
ENCODING 12345
SWIDTH 960 0
DWIDTH 8 0
BBX 8 8 0 -2
BITMAP
60
6F
EB
6F
AB
EF
6B
BF
ENDCHAR

STARTCHAR jisx0208_303A
ENCODING 12346
SWIDTH 960 0
DWIDTH 8 0
BBX 8 8 0 -2
BITMAP
63
63
FF
D6
F6
66
56
F7
ENDCHAR

STARTCHAR jisx0208_303B
ENCODING 12347
SWIDTH 960 0
DWIDTH 8 0
BBX 8 8 0 -2
BITMAP
66
B6
6B
FD
B0
EF
CB
EF
ENDCHAR

STARTCHAR jisx0208_303C
ENCODING 12348
SWIDTH 960 0
DWIDTH 8 0
BBX 8 8 0 -2
BITMAP
6C
AF
55
FD
55
FD
F1
67
ENDCHAR

STARTCHAR jisx0208_303D
ENCODING 12349
SWIDTH 960 0
DWIDTH 8 0
BBX 8 8 0 -2
BITMAP
66
AF
66
FF
6F
FB
F7
5D
ENDCHAR

STARTCHAR jisx0208_303E
ENCODING 12350
SWIDTH 960 0
DWIDTH 8 0
BBX 8 8 0 -2
BITMAP
66
E6
F7
B6
AF
ED
0D
AF
ENDCHAR

STARTCHAR jisx0208_303F
ENCODING 12351
SWIDTH 960 0
DWIDTH 8 0
BBX 8 8 0 -2
BITMAP
0B
FF
0C
75
55
7B
07
ED
ENDCHAR

STARTCHAR jisx0208_3040
ENCODING 12352
SWIDTH 960 0
DWIDTH 8 0
BBX 8 8 0 -2
BITMAP
FF
7F
5B
7F
56
FF
36
DB
ENDCHAR

STARTCHAR jisx0208_3041
ENCODING 12353
SWIDTH 960 0
DWIDTH 8 0
BBX 8 8 0 -2
BITMAP
67
ED
30
6F
F0
6F
6D
6F
ENDCHAR

STARTCHAR jisx0208_3042
ENCODING 12354
SWIDTH 960 0
DWIDTH 8 0
BBX 8 8 0 -2
BITMAP
18
FF
D9
30
FF
36
1E
F3
ENDCHAR

STARTCHAR jisx0208_3043
ENCODING 12355
SWIDTH 960 0
DWIDTH 8 0
BBX 8 8 0 -2
BITMAP
0C
7F
5E
7F
6B
7F
6C
CF
ENDCHAR

STARTCHAR jisx0208_3044
ENCODING 12356
SWIDTH 960 0
DWIDTH 8 0
BBX 8 8 0 -2
BITMAP
66
FF
55
6C
DF
6B
67
DD
ENDCHAR

STARTCHAR jisx0208_3045
ENCODING 12357
SWIDTH 960 0
DWIDTH 8 0
BBX 8 8 0 -2
BITMAP
06
FF
AB
FF
AB
AF
EB
0F
ENDCHAR

STARTCHAR jisx0208_3046
ENCODING 12358
SWIDTH 960 0
DWIDTH 8 0
BBX 8 8 0 -2
BITMAP
18
FF
D9
7F
2C
FF
36
DB
ENDCHAR

STARTCHAR jisx0208_3047
ENCODING 12359
SWIDTH 960 0
DWIDTH 8 0
BBX 8 8 0 -2
BITMAP
F7
B5
F7
D9
FD
AD
AD
BD
ENDCHAR

STARTCHAR jisx0208_3048
ENCODING 12360
SWIDTH 960 0
DWIDTH 8 0
BBX 8 8 0 -2
BITMAP
B6
FF
6D
F6
FF
6B
F7
5D
ENDCHAR

STARTCHAR jisx0208_3049
ENCODING 12361
SWIDTH 960 0
DWIDTH 8 0
BBX 8 8 0 -2
BITMAP
18
FF
3C
57
D9
7F
63
7F
ENDCHAR

STARTCHAR jisx0208_304A
ENCODING 12362
SWIDTH 960 0
DWIDTH 8 0
BBX 8 8 0 -2
BITMAP
63
63
5B
6B
63
5B
77
ED
ENDCHAR

STARTCHAR jisx0208_304B
ENCODING 12363
SWIDTH 960 0
DWIDTH 8 0
BBX 8 8 0 -2
BITMAP
2F
65
DF
65
6F
66
66
6C
ENDCHAR

STARTCHAR jisx0208_304C
ENCODING 12364
SWIDTH 960 0
DWIDTH 8 0
BBX 8 8 0 -2
BITMAP
36
66
DF
6B
6B
6B
6B
5F
ENDCHAR

STARTCHAR jisx0208_304D
ENCODING 12365
SWIDTH 960 0
DWIDTH 8 0
BBX 8 8 0 -2
BITMAP
36
5F
E6
6D
5B
6B
6D
5D
ENDCHAR

STARTCHAR jisx0208_304E
ENCODING 12366
SWIDTH 960 0
DWIDTH 8 0
BBX 8 8 0 -2
BITMAP
2C
5F
EB
7F
5B
5F
6B
5F
ENDCHAR

STARTCHAR jisx0208_304F
ENCODING 12367
SWIDTH 960 0
DWIDTH 8 0
BBX 8 8 0 -2
BITMAP
FF
AD
FD
AD
FD
AD
ED
FF
ENDCHAR

STARTCHAR jisx0208_3050
ENCODING 12368
SWIDTH 960 0
DWIDTH 8 0
BBX 8 8 0 -2
BITMAP
18
FF
1B
FF
D8
FF
19
ED
ENDCHAR

STARTCHAR jisx0208_3051
ENCODING 12369
SWIDTH 960 0
DWIDTH 8 0
BBX 8 8 0 -2
BITMAP
7F
18
FF
56
FF
36
1E
F3
ENDCHAR

STARTCHAR jisx0208_3052
ENCODING 12370
SWIDTH 960 0
DWIDTH 8 0
BBX 8 8 0 -2
BITMAP
05
7F
56
7D
6B
6B
5B
AD
ENDCHAR

STARTCHAR jisx0208_3053
ENCODING 12371
SWIDTH 960 0
DWIDTH 8 0
BBX 8 8 0 -2
BITMAP
F9
D9
F7
C1
F5
B1
F9
B3
ENDCHAR

STARTCHAR jisx0208_3054
ENCODING 12372
SWIDTH 960 0
DWIDTH 8 0
BBX 8 8 0 -2
BITMAP
6B
56
FF
D6
5F
56
56
5F
ENDCHAR

STARTCHAR jisx0208_3055
ENCODING 12373
SWIDTH 960 0
DWIDTH 8 0
BBX 8 8 0 -2
BITMAP
0C
FF
36
FF
63
7F
AD
BD
ENDCHAR

STARTCHAR jisx0208_3056
ENCODING 12374
SWIDTH 960 0
DWIDTH 8 0
BBX 8 8 0 -2
BITMAP
F9
DF
F9
F5
B3
0C
B1
BD
ENDCHAR

STARTCHAR jisx0208_3057
ENCODING 12375
SWIDTH 960 0
DWIDTH 8 0
BBX 8 8 0 -2
BITMAP
7F
63
7F
63
7F
D5
2D
5B
ENDCHAR

STARTCHAR jisx0208_3058
ENCODING 12376
SWIDTH 960 0
DWIDTH 8 0
BBX 8 8 0 -2
BITMAP
66
FF
6B
F9
DF
55
5D
63
ENDCHAR

STARTCHAR jisx0208_3059
ENCODING 12377
SWIDTH 960 0
DWIDTH 8 0
BBX 8 8 0 -2
BITMAP
2C
7F
1B
1F
31
7F
C1
6B
ENDCHAR

STARTCHAR jisx0208_305A
ENCODING 12378
SWIDTH 960 0
DWIDTH 8 0
BBX 8 8 0 -2
BITMAP
7F
5B
7F
5B
FF
5B
6E
F3
ENDCHAR

STARTCHAR jisx0208_305B
ENCODING 12379
SWIDTH 960 0
DWIDTH 8 0
BBX 8 8 0 -2
BITMAP
FF
DB
FF
2C
FF
2C
FF
66
ENDCHAR

STARTCHAR jisx0208_305C
ENCODING 12380
SWIDTH 960 0
DWIDTH 8 0
BBX 8 8 0 -2
BITMAP
37
ED
57
F6
5F
ED
57
6C
ENDCHAR

STARTCHAR jisx0208_305D
ENCODING 12381
SWIDTH 960 0
DWIDTH 8 0
BBX 8 8 0 -2
BITMAP
6B
B6
5F
F6
5F
F6
F6
5F
ENDCHAR

STARTCHAR jisx0208_305E
ENCODING 12382
SWIDTH 960 0
DWIDTH 8 0
BBX 8 8 0 -2
BITMAP
6C
BF
6B
FF
5B
FF
EB
5F
ENDCHAR

STARTCHAR jisx0208_305F
ENCODING 12383
SWIDTH 960 0
DWIDTH 8 0
BBX 8 8 0 -2
BITMAP
FF
DB
FF
66
7E
66
7E
66
ENDCHAR

STARTCHAR jisx0208_3060
ENCODING 12384
SWIDTH 960 0
DWIDTH 8 0
BBX 8 8 0 -2
BITMAP
36
FF
58
FF
56
FF
36
FB
ENDCHAR

STARTCHAR jisx0208_3061
ENCODING 12385
SWIDTH 960 0
DWIDTH 8 0
BBX 8 8 0 -2
BITMAP
0C
FF
1C
2D
E7
66
63
F9
ENDCHAR

STARTCHAR jisx0208_3062
ENCODING 12386
SWIDTH 960 0
DWIDTH 8 0
BBX 8 8 0 -2
BITMAP
5F
F5
1F
F5
1F
ED
AF
ED
ENDCHAR

STARTCHAR jisx0208_3063
ENCODING 12387
SWIDTH 960 0
DWIDTH 8 0
BBX 8 8 0 -2
BITMAP
DF
0B
3F
1B
DF
5F
63
BF
ENDCHAR

STARTCHAR jisx0208_3064
ENCODING 12388
SWIDTH 960 0
DWIDTH 8 0
BBX 8 8 0 -2
BITMAP
DF
17
3F
0B
EB
6F
59
BF
ENDCHAR

STARTCHAR jisx0208_3065
ENCODING 12389
SWIDTH 960 0
DWIDTH 8 0
BBX 8 8 0 -2
BITMAP
FF
D8
DF
AC
BF
CE
BB
FF
ENDCHAR

STARTCHAR jisx0208_3066
ENCODING 12390
SWIDTH 960 0
DWIDTH 8 0
BBX 8 8 0 -2
BITMAP
36
36
FF
36
36
FF
36
66
ENDCHAR

STARTCHAR jisx0208_3067
ENCODING 12391
SWIDTH 960 0
DWIDTH 8 0
BBX 8 8 0 -2
BITMAP
18
FF
1B
76
1C
F3
1E
F3
ENDCHAR

STARTCHAR jisx0208_3068
ENCODING 12392
SWIDTH 960 0
DWIDTH 8 0
BBX 8 8 0 -2
BITMAP
65
5F
F6
5D
57
7F
E5
3D
ENDCHAR

STARTCHAR jisx0208_3069
ENCODING 12393
SWIDTH 960 0
DWIDTH 8 0
BBX 8 8 0 -2
BITMAP
18
FF
36
FF
66
7E
66
66
ENDCHAR

STARTCHAR jisx0208_306A
ENCODING 12394
SWIDTH 960 0
DWIDTH 8 0
BBX 8 8 0 -2
BITMAP
67
F5
65
77
D5
75
57
56
ENDCHAR

STARTCHAR jisx0208_306B
ENCODING 12395
SWIDTH 960 0
DWIDTH 8 0
BBX 8 8 0 -2
BITMAP
0D
F7
5F
6D
7F
DB
5B
75
ENDCHAR

STARTCHAR jisx0208_306C
ENCODING 12396
SWIDTH 960 0
DWIDTH 8 0
BBX 8 8 0 -2
BITMAP
00
00
00
FF
00
00
00
00
ENDCHAR

STARTCHAR jisx0208_306D
ENCODING 12397
SWIDTH 960 0
DWIDTH 8 0
BBX 8 8 0 -2
BITMAP
18
FF
7F
18
FF
BD
30
3F
ENDCHAR

STARTCHAR jisx0208_306E
ENCODING 12398
SWIDTH 960 0
DWIDTH 8 0
BBX 8 8 0 -2
BITMAP
D9
0B
BF
1B
31
5F
55
BF
ENDCHAR

STARTCHAR jisx0208_306F
ENCODING 12399
SWIDTH 960 0
DWIDTH 8 0
BBX 8 8 0 -2
BITMAP
CE
1F
35
1F
EB
5B
60
BF
ENDCHAR

STARTCHAR jisx0208_3070
ENCODING 12400
SWIDTH 960 0
DWIDTH 8 0
BBX 8 8 0 -2
BITMAP
33
DD
6B
F7
55
F7
55
57
ENDCHAR

STARTCHAR jisx0208_3071
ENCODING 12401
SWIDTH 960 0
DWIDTH 8 0
BBX 8 8 0 -2
BITMAP
36
FF
36
CC
0F
55
66
DB
ENDCHAR

STARTCHAR jisx0208_3072
ENCODING 12402
SWIDTH 960 0
DWIDTH 8 0
BBX 8 8 0 -2
BITMAP
36
FF
36
7F
0C
FF
0C
1C
ENDCHAR

STARTCHAR jisx0208_3073
ENCODING 12403
SWIDTH 960 0
DWIDTH 8 0
BBX 8 8 0 -2
BITMAP
5B
ED
FB
BB
BB
ED
0D
BB
ENDCHAR

STARTCHAR jisx0208_3074
ENCODING 12404
SWIDTH 960 0
DWIDTH 8 0
BBX 8 8 0 -2
BITMAP
18
16
33
FF
2D
2C
6D
CF
ENDCHAR

STARTCHAR jisx0208_3075
ENCODING 12405
SWIDTH 960 0
DWIDTH 8 0
BBX 8 8 0 -2
BITMAP
30
EF
CD
ED
CD
CD
EB
0C
ENDCHAR

STARTCHAR jisx0208_3076
ENCODING 12406
SWIDTH 960 0
DWIDTH 8 0
BBX 8 8 0 -2
BITMAP
1F
F5
B5
BF
B5
B5
FB
1F
ENDCHAR

STARTCHAR jisx0208_3077
ENCODING 12407
SWIDTH 960 0
DWIDTH 8 0
BBX 8 8 0 -2
BITMAP
7F
63
7F
36
3E
36
3E
E3
ENDCHAR

STARTCHAR jisx0208_3078
ENCODING 12408
SWIDTH 960 0
DWIDTH 8 0
BBX 8 8 0 -2
BITMAP
FF
C1
D9
FD
D9
AD
E5
FF
ENDCHAR

STARTCHAR jisx0208_3079
ENCODING 12409
SWIDTH 960 0
DWIDTH 8 0
BBX 8 8 0 -2
BITMAP
5F
59
F5
7F
B5
B5
5B
BF
ENDCHAR

STARTCHAR jisx0208_307A
ENCODING 12410
SWIDTH 960 0
DWIDTH 8 0
BBX 8 8 0 -2
BITMAP
F9
19
F9
C1
F9
19
19
71
ENDCHAR

STARTCHAR jisx0208_307B
ENCODING 12411
SWIDTH 960 0
DWIDTH 8 0
BBX 8 8 0 -2
BITMAP
6C
AF
55
F6
B6
F6
AB
D9
ENDCHAR

STARTCHAR jisx0208_307C
ENCODING 12412
SWIDTH 960 0
DWIDTH 8 0
BBX 8 8 0 -2
BITMAP
C3
1D
D7
1F
06
5F
66
DF
ENDCHAR

STARTCHAR jisx0208_307D
ENCODING 12413
SWIDTH 960 0
DWIDTH 8 0
BBX 8 8 0 -2
BITMAP
DB
AB
DB
FF
AB
BB
AB
AB
ENDCHAR

STARTCHAR jisx0208_307E
ENCODING 12414
SWIDTH 960 0
DWIDTH 8 0
BBX 8 8 0 -2
BITMAP
36
FF
36
EB
BF
E6
BF
EF
ENDCHAR

STARTCHAR jisx0208_3121
ENCODING 12577
SWIDTH 960 0
DWIDTH 8 0
BBX 8 8 0 -2
BITMAP
F6
BF
AD
E0
BF
AB
EB
DB
ENDCHAR

STARTCHAR jisx0208_3122
ENCODING 12578
SWIDTH 960 0
DWIDTH 8 0
BBX 8 8 0 -2
BITMAP
F6
AB
B5
EF
B3
BF
EB
DF
ENDCHAR

STARTCHAR jisx0208_3123
ENCODING 12579
SWIDTH 960 0
DWIDTH 8 0
BBX 8 8 0 -2
BITMAP
EF
B5
AF
E1
AF
B6
DD
AD
ENDCHAR

STARTCHAR jisx0208_3124
ENCODING 12580
SWIDTH 960 0
DWIDTH 8 0
BBX 8 8 0 -2
BITMAP
37
FD
57
FD
57
75
57
7D
ENDCHAR

STARTCHAR jisx0208_3125
ENCODING 12581
SWIDTH 960 0
DWIDTH 8 0
BBX 8 8 0 -2
BITMAP
03
F3
BF
B3
AB
B3
F3
07
ENDCHAR

STARTCHAR jisx0208_3126
ENCODING 12582
SWIDTH 960 0
DWIDTH 8 0
BBX 8 8 0 -2
BITMAP
18
FF
18
30
3F
73
B3
3F
ENDCHAR

STARTCHAR jisx0208_3127
ENCODING 12583
SWIDTH 960 0
DWIDTH 8 0
BBX 8 8 0 -2
BITMAP
18
FF
C1
3F
0C
FF
0C
1C
ENDCHAR

STARTCHAR jisx0208_3128
ENCODING 12584
SWIDTH 960 0
DWIDTH 8 0
BBX 8 8 0 -2
BITMAP
18
7E
66
7E
60
7F
01
AB
ENDCHAR

STARTCHAR jisx0208_3129
ENCODING 12585
SWIDTH 960 0
DWIDTH 8 0
BBX 8 8 0 -2
BITMAP
EF
31
AD
31
33
75
AD
31
ENDCHAR

STARTCHAR jisx0208_312A
ENCODING 12586
SWIDTH 960 0
DWIDTH 8 0
BBX 8 8 0 -2
BITMAP
DF
06
3F
06
E6
6E
60
BF
ENDCHAR

STARTCHAR jisx0208_312B
ENCODING 12587
SWIDTH 960 0
DWIDTH 8 0
BBX 8 8 0 -2
BITMAP
FF
18
FF
D5
D9
D5
D9
DB
ENDCHAR

STARTCHAR jisx0208_312C
ENCODING 12588
SWIDTH 960 0
DWIDTH 8 0
BBX 8 8 0 -2
BITMAP
18
77
55
55
55
F5
36
66
ENDCHAR

STARTCHAR jisx0208_312D
ENCODING 12589
SWIDTH 960 0
DWIDTH 8 0
BBX 8 8 0 -2
BITMAP
B3
F7
55
F7
66
F7
D9
6B
ENDCHAR

STARTCHAR jisx0208_312E
ENCODING 12590
SWIDTH 960 0
DWIDTH 8 0
BBX 8 8 0 -2
BITMAP
18
FF
D5
EF
6B
FF
6E
B7
ENDCHAR

STARTCHAR jisx0208_312F
ENCODING 12591
SWIDTH 960 0
DWIDTH 8 0
BBX 8 8 0 -2
BITMAP
7F
1B
1B
FF
36
36
36
FF
ENDCHAR

STARTCHAR jisx0208_3130
ENCODING 12592
SWIDTH 960 0
DWIDTH 8 0
BBX 8 8 0 -2
BITMAP
F5
6B
5F
7B
DF
5B
5B
7F
ENDCHAR

STARTCHAR jisx0208_3131
ENCODING 12593
SWIDTH 960 0
DWIDTH 8 0
BBX 8 8 0 -2
BITMAP
38
E7
C1
C1
F7
C1
C1
FF
ENDCHAR

STARTCHAR jisx0208_3132
ENCODING 12594
SWIDTH 960 0
DWIDTH 8 0
BBX 8 8 0 -2
BITMAP
DF
1B
D7
3F
31
2D
AD
B1
ENDCHAR

STARTCHAR jisx0208_3133
ENCODING 12595
SWIDTH 960 0
DWIDTH 8 0
BBX 8 8 0 -2
BITMAP
07
FF
B5
BF
B6
F5
2F
5F
ENDCHAR

STARTCHAR jisx0208_3134
ENCODING 12596
SWIDTH 960 0
DWIDTH 8 0
BBX 8 8 0 -2
BITMAP
0F
ED
AF
AD
AF
ED
0F
19
ENDCHAR

STARTCHAR jisx0208_3135
ENCODING 12597
SWIDTH 960 0
DWIDTH 8 0
BBX 8 8 0 -2
BITMAP
2B
F7
6B
FF
55
7F
65
FB
ENDCHAR

STARTCHAR jisx0208_3136
ENCODING 12598
SWIDTH 960 0
DWIDTH 8 0
BBX 8 8 0 -2
BITMAP
16
FF
D6
F9
C7
F9
F5
B1
ENDCHAR

STARTCHAR jisx0208_3137
ENCODING 12599
SWIDTH 960 0
DWIDTH 8 0
BBX 8 8 0 -2
BITMAP
6F
EB
FF
AD
BF
EB
06
BB
ENDCHAR

STARTCHAR jisx0208_3138
ENCODING 12600
SWIDTH 960 0
DWIDTH 8 0
BBX 8 8 0 -2
BITMAP
66
6F
F5
7F
B6
AF
56
B7
ENDCHAR

STARTCHAR jisx0208_3139
ENCODING 12601
SWIDTH 960 0
DWIDTH 8 0
BBX 8 8 0 -2
BITMAP
7F
60
7F
6D
7F
77
6B
BB
ENDCHAR

STARTCHAR jisx0208_313A
ENCODING 12602
SWIDTH 960 0
DWIDTH 8 0
BBX 8 8 0 -2
BITMAP
C5
1F
C6
1F
15
5F
55
D5
ENDCHAR

STARTCHAR jisx0208_313B
ENCODING 12603
SWIDTH 960 0
DWIDTH 8 0
BBX 8 8 0 -2
BITMAP
01
7F
6B
6B
6B
6D
6D
DD
ENDCHAR

STARTCHAR jisx0208_313C
ENCODING 12604
SWIDTH 960 0
DWIDTH 8 0
BBX 8 8 0 -2
BITMAP
F7
B5
F7
BD
D9
BD
D9
BD
ENDCHAR

STARTCHAR jisx0208_313D
ENCODING 12605
SWIDTH 960 0
DWIDTH 8 0
BBX 8 8 0 -2
BITMAP
16
FF
B7
B3
BF
BF
F3
0B
ENDCHAR

STARTCHAR jisx0208_313E
ENCODING 12606
SWIDTH 960 0
DWIDTH 8 0
BBX 8 8 0 -2
BITMAP
7F
00
00
FF
18
36
63
FD
ENDCHAR

STARTCHAR jisx0208_313F
ENCODING 12607
SWIDTH 960 0
DWIDTH 8 0
BBX 8 8 0 -2
BITMAP
BF
35
1F
17
D7
7F
66
BF
ENDCHAR

STARTCHAR jisx0208_3140
ENCODING 12608
SWIDTH 960 0
DWIDTH 8 0
BBX 8 8 0 -2
BITMAP
7F
18
FF
D5
00
FF
36
7F
ENDCHAR

STARTCHAR jisx0208_3141
ENCODING 12609
SWIDTH 960 0
DWIDTH 8 0
BBX 8 8 0 -2
BITMAP
36
FF
30
5F
E6
5F
66
5F
ENDCHAR

STARTCHAR jisx0208_3142
ENCODING 12610
SWIDTH 960 0
DWIDTH 8 0
BBX 8 8 0 -2
BITMAP
5F
AB
6F
EB
AF
EB
DF
F3
ENDCHAR

STARTCHAR jisx0208_3143
ENCODING 12611
SWIDTH 960 0
DWIDTH 8 0
BBX 8 8 0 -2
BITMAP
30
FF
B5
75
DD
7B
5B
55
ENDCHAR

STARTCHAR jisx0208_3144
ENCODING 12612
SWIDTH 960 0
DWIDTH 8 0
BBX 8 8 0 -2
BITMAP
5B
FF
B5
3E
18
7F
63
7F
ENDCHAR

STARTCHAR jisx0208_3145
ENCODING 12613
SWIDTH 960 0
DWIDTH 8 0
BBX 8 8 0 -2
BITMAP
77
55
77
DD
FF
36
1E
F3
ENDCHAR

STARTCHAR jisx0208_3146
ENCODING 12614
SWIDTH 960 0
DWIDTH 8 0
BBX 8 8 0 -2
BITMAP
7D
7B
6C
FD
6B
7C
31
AB
ENDCHAR

STARTCHAR jisx0208_3147
ENCODING 12615
SWIDTH 960 0
DWIDTH 8 0
BBX 8 8 0 -2
BITMAP
06
FF
B5
F5
BF
B6
EB
19
ENDCHAR

STARTCHAR jisx0208_3148
ENCODING 12616
SWIDTH 960 0
DWIDTH 8 0
BBX 8 8 0 -2
BITMAP
18
FF
FF
DB
FF
16
3D
E7
ENDCHAR

STARTCHAR jisx0208_3149
ENCODING 12617
SWIDTH 960 0
DWIDTH 8 0
BBX 8 8 0 -2
BITMAP
5B
FF
D9
7F
3C
56
DB
18
ENDCHAR

STARTCHAR jisx0208_314A
ENCODING 12618
SWIDTH 960 0
DWIDTH 8 0
BBX 8 8 0 -2
BITMAP
18
00
3B
F6
3C
56
DB
38
ENDCHAR

STARTCHAR jisx0208_314B
ENCODING 12619
SWIDTH 960 0
DWIDTH 8 0
BBX 8 8 0 -2
BITMAP
CE
00
1E
C5
37
57
55
AD
ENDCHAR

STARTCHAR jisx0208_314C
ENCODING 12620
SWIDTH 960 0
DWIDTH 8 0
BBX 8 8 0 -2
BITMAP
CC
3F
3F
AB
3F
6B
6D
BB
ENDCHAR

STARTCHAR jisx0208_314D
ENCODING 12621
SWIDTH 960 0
DWIDTH 8 0
BBX 8 8 0 -2
BITMAP
0B
FF
6B
5F
F5
5F
76
DB
ENDCHAR

STARTCHAR jisx0208_314E
ENCODING 12622
SWIDTH 960 0
DWIDTH 8 0
BBX 8 8 0 -2
BITMAP
FE
66
77
D9
2B
7F
55
FF
ENDCHAR

STARTCHAR jisx0208_314F
ENCODING 12623
SWIDTH 960 0
DWIDTH 8 0
BBX 8 8 0 -2
BITMAP
EF
C6
EF
2D
EF
6D
EF
59
ENDCHAR

STARTCHAR jisx0208_3150
ENCODING 12624
SWIDTH 960 0
DWIDTH 8 0
BBX 8 8 0 -2
BITMAP
EF
C6
EF
0D
EF
6D
EF
59
ENDCHAR

STARTCHAR jisx0208_3151
ENCODING 12625
SWIDTH 960 0
DWIDTH 8 0
BBX 8 8 0 -2
BITMAP
66
FF
56
7F
5B
FF
36
E3
ENDCHAR

STARTCHAR jisx0208_3152
ENCODING 12626
SWIDTH 960 0
DWIDTH 8 0
BBX 8 8 0 -2
BITMAP
5B
BE
57
FD
55
5D
7D
6B
ENDCHAR

STARTCHAR jisx0208_3153
ENCODING 12627
SWIDTH 960 0
DWIDTH 8 0
BBX 8 8 0 -2
BITMAP
66
F0
0E
F5
1F
EF
B5
F6
ENDCHAR

STARTCHAR jisx0208_3154
ENCODING 12628
SWIDTH 960 0
DWIDTH 8 0
BBX 8 8 0 -2
BITMAP
6B
BF
F9
5F
EB
6B
EB
DB
ENDCHAR

STARTCHAR jisx0208_3155
ENCODING 12629
SWIDTH 960 0
DWIDTH 8 0
BBX 8 8 0 -2
BITMAP
CC
3F
D6
37
6D
2B
B6
AB
ENDCHAR

STARTCHAR jisx0208_3156
ENCODING 12630
SWIDTH 960 0
DWIDTH 8 0
BBX 8 8 0 -2
BITMAP
0C
7F
5F
DB
7F
DB
6E
BB
ENDCHAR

STARTCHAR jisx0208_3157
ENCODING 12631
SWIDTH 960 0
DWIDTH 8 0
BBX 8 8 0 -2
BITMAP
36
FF
36
63
FF
5B
5B
FF
ENDCHAR

STARTCHAR jisx0208_3158
ENCODING 12632
SWIDTH 960 0
DWIDTH 8 0
BBX 8 8 0 -2
BITMAP
FF
AD
FD
AF
FB
1B
DD
39
ENDCHAR

STARTCHAR jisx0208_3159
ENCODING 12633
SWIDTH 960 0
DWIDTH 8 0
BBX 8 8 0 -2
BITMAP
59
6B
FF
D9
5F
6B
6B
5B
ENDCHAR

STARTCHAR jisx0208_315A
ENCODING 12634
SWIDTH 960 0
DWIDTH 8 0
BBX 8 8 0 -2
BITMAP
6F
EB
0F
EB
1F
ED
AD
EF
ENDCHAR

STARTCHAR jisx0208_315B
ENCODING 12635
SWIDTH 960 0
DWIDTH 8 0
BBX 8 8 0 -2
BITMAP
65
FF
56
F5
5B
F7
DD
BF
ENDCHAR

STARTCHAR jisx0208_315C
ENCODING 12636
SWIDTH 960 0
DWIDTH 8 0
BBX 8 8 0 -2
BITMAP
F7
B5
F7
BD
B5
BD
DD
AD
ENDCHAR

STARTCHAR jisx0208_315D
ENCODING 12637
SWIDTH 960 0
DWIDTH 8 0
BBX 8 8 0 -2
BITMAP
5F
EC
5F
F9
DF
6B
56
5B
ENDCHAR

STARTCHAR jisx0208_315E
ENCODING 12638
SWIDTH 960 0
DWIDTH 8 0
BBX 8 8 0 -2
BITMAP
7F
5B
7B
5F
7B
5B
75
D5
ENDCHAR

STARTCHAR jisx0208_315F
ENCODING 12639
SWIDTH 960 0
DWIDTH 8 0
BBX 8 8 0 -2
BITMAP
FF
D9
D9
FF
C1
C1
C1
C3
ENDCHAR

STARTCHAR jisx0208_3160
ENCODING 12640
SWIDTH 960 0
DWIDTH 8 0
BBX 8 8 0 -2
BITMAP
FF
BD
D9
FF
B5
BD
DB
FF
ENDCHAR

STARTCHAR jisx0208_3161
ENCODING 12641
SWIDTH 960 0
DWIDTH 8 0
BBX 8 8 0 -2
BITMAP
5F
55
F7
55
5F
77
DD
1F
ENDCHAR

STARTCHAR jisx0208_3162
ENCODING 12642
SWIDTH 960 0
DWIDTH 8 0
BBX 8 8 0 -2
BITMAP
18
FF
56
FF
55
7E
19
1F
ENDCHAR

STARTCHAR jisx0208_3163
ENCODING 12643
SWIDTH 960 0
DWIDTH 8 0
BBX 8 8 0 -2
BITMAP
18
FF
BD
36
FF
36
1E
F3
ENDCHAR

STARTCHAR jisx0208_3164
ENCODING 12644
SWIDTH 960 0
DWIDTH 8 0
BBX 8 8 0 -2
BITMAP
F1
2F
63
EB
2B
EF
70
DF
ENDCHAR

STARTCHAR jisx0208_3165
ENCODING 12645
SWIDTH 960 0
DWIDTH 8 0
BBX 8 8 0 -2
BITMAP
77
D5
76
65
C7
2C
B1
BD
ENDCHAR

STARTCHAR jisx0208_3166
ENCODING 12646
SWIDTH 960 0
DWIDTH 8 0
BBX 8 8 0 -2
BITMAP
66
FF
6B
7F
D5
5F
66
E7
ENDCHAR

STARTCHAR jisx0208_3167
ENCODING 12647
SWIDTH 960 0
DWIDTH 8 0
BBX 8 8 0 -2
BITMAP
67
EB
5F
76
DF
65
6B
D5
ENDCHAR

STARTCHAR jisx0208_3168
ENCODING 12648
SWIDTH 960 0
DWIDTH 8 0
BBX 8 8 0 -2
BITMAP
D7
1B
B1
00
1F
5B
5B
DF
ENDCHAR

STARTCHAR jisx0208_3169
ENCODING 12649
SWIDTH 960 0
DWIDTH 8 0
BBX 8 8 0 -2
BITMAP
CC
3F
AD
1F
1B
5B
5F
B1
ENDCHAR

STARTCHAR jisx0208_316A
ENCODING 12650
SWIDTH 960 0
DWIDTH 8 0
BBX 8 8 0 -2
BITMAP
2D
6B
16
F3
2C
6B
16
F3
ENDCHAR

STARTCHAR jisx0208_316B
ENCODING 12651
SWIDTH 960 0
DWIDTH 8 0
BBX 8 8 0 -2
BITMAP
67
6D
F3
57
55
57
B5
D7
ENDCHAR

STARTCHAR jisx0208_316C
ENCODING 12652
SWIDTH 960 0
DWIDTH 8 0
BBX 8 8 0 -2
BITMAP
5F
6B
FF
5F
66
6F
B6
DF
ENDCHAR

STARTCHAR jisx0208_316D
ENCODING 12653
SWIDTH 960 0
DWIDTH 8 0
BBX 8 8 0 -2
BITMAP
16
FF
16
FF
36
DF
00
D5
ENDCHAR

STARTCHAR jisx0208_316E
ENCODING 12654
SWIDTH 960 0
DWIDTH 8 0
BBX 8 8 0 -2
BITMAP
63
2F
73
BF
6D
AF
3B
6D
ENDCHAR

STARTCHAR jisx0208_316F
ENCODING 12655
SWIDTH 960 0
DWIDTH 8 0
BBX 8 8 0 -2
BITMAP
6F
B3
5F
ED
57
EF
F7
6D
ENDCHAR

STARTCHAR jisx0208_3170
ENCODING 12656
SWIDTH 960 0
DWIDTH 8 0
BBX 8 8 0 -2
BITMAP
56
FF
DB
DF
F5
7F
58
FF
ENDCHAR

STARTCHAR jisx0208_3171
ENCODING 12657
SWIDTH 960 0
DWIDTH 8 0
BBX 8 8 0 -2
BITMAP
36
FF
36
77
55
B5
36
E7
ENDCHAR

STARTCHAR jisx0208_3172
ENCODING 12658
SWIDTH 960 0
DWIDTH 8 0
BBX 8 8 0 -2
BITMAP
36
FF
36
FF
B5
BD
D7
FF
ENDCHAR

STARTCHAR jisx0208_3173
ENCODING 12659
SWIDTH 960 0
DWIDTH 8 0
BBX 8 8 0 -2
BITMAP
C6
1F
06
3F
DB
5F
55
BF
ENDCHAR

STARTCHAR jisx0208_3174
ENCODING 12660
SWIDTH 960 0
DWIDTH 8 0
BBX 8 8 0 -2
BITMAP
6F
B3
EB
59
EF
6D
ED
EF
ENDCHAR

STARTCHAR jisx0208_3175
ENCODING 12661
SWIDTH 960 0
DWIDTH 8 0
BBX 8 8 0 -2
BITMAP
77
D5
2E
DF
36
3F
01
AB
ENDCHAR

STARTCHAR jisx0208_3176
ENCODING 12662
SWIDTH 960 0
DWIDTH 8 0
BBX 8 8 0 -2
BITMAP
6C
5F
EB
6F
70
DF
15
3F
ENDCHAR

STARTCHAR jisx0208_3177
ENCODING 12663
SWIDTH 960 0
DWIDTH 8 0
BBX 8 8 0 -2
BITMAP
66
FB
61
76
5B
58
56
B3
ENDCHAR

STARTCHAR jisx0208_3178
ENCODING 12664
SWIDTH 960 0
DWIDTH 8 0
BBX 8 8 0 -2
BITMAP
DF
06
3F
CC
0F
59
61
C7
ENDCHAR

STARTCHAR jisx0208_3179
ENCODING 12665
SWIDTH 960 0
DWIDTH 8 0
BBX 8 8 0 -2
BITMAP
DF
F5
5F
55
FF
65
6D
DB
ENDCHAR

STARTCHAR jisx0208_317A
ENCODING 12666
SWIDTH 960 0
DWIDTH 8 0
BBX 8 8 0 -2
BITMAP
F7
B5
B5
BD
C1
C1
C1
FF
ENDCHAR

STARTCHAR jisx0208_317B
ENCODING 12667
SWIDTH 960 0
DWIDTH 8 0
BBX 8 8 0 -2
BITMAP
18
7F
5B
5B
FF
18
2C
E7
ENDCHAR

STARTCHAR jisx0208_317C
ENCODING 12668
SWIDTH 960 0
DWIDTH 8 0
BBX 8 8 0 -2
BITMAP
18
7F
6B
57
6B
FF
36
E3
ENDCHAR

STARTCHAR jisx0208_317D
ENCODING 12669
SWIDTH 960 0
DWIDTH 8 0
BBX 8 8 0 -2
BITMAP
66
BF
66
E6
5F
66
66
5F
ENDCHAR

STARTCHAR jisx0208_317E
ENCODING 12670
SWIDTH 960 0
DWIDTH 8 0
BBX 8 8 0 -2
BITMAP
0C
7F
60
6B
6C
6C
6D
AD
ENDCHAR

STARTCHAR jisx0208_3221
ENCODING 12833
SWIDTH 960 0
DWIDTH 8 0
BBX 8 8 0 -2
BITMAP
5F
F5
5F
75
DF
66
66
E6
ENDCHAR

STARTCHAR jisx0208_3222
ENCODING 12834
SWIDTH 960 0
DWIDTH 8 0
BBX 8 8 0 -2
BITMAP
1F
F6
B6
EF
B6
B6
F6
1F
ENDCHAR

STARTCHAR jisx0208_3223
ENCODING 12835
SWIDTH 960 0
DWIDTH 8 0
BBX 8 8 0 -2
BITMAP
6B
FF
6B
FF
DF
55
5F
71
ENDCHAR

STARTCHAR jisx0208_3224
ENCODING 12836
SWIDTH 960 0
DWIDTH 8 0
BBX 8 8 0 -2
BITMAP
FC
CF
D5
B6
D6
C6
FB
19
ENDCHAR

STARTCHAR jisx0208_3225
ENCODING 12837
SWIDTH 960 0
DWIDTH 8 0
BBX 8 8 0 -2
BITMAP
FF
CB
DB
B0
DF
C5
FB
0D
ENDCHAR

STARTCHAR jisx0208_3226
ENCODING 12838
SWIDTH 960 0
DWIDTH 8 0
BBX 8 8 0 -2
BITMAP
FF
18
18
FF
18
18
18
FF
ENDCHAR

STARTCHAR jisx0208_3227
ENCODING 12839
SWIDTH 960 0
DWIDTH 8 0
BBX 8 8 0 -2
BITMAP
2E
5B
AD
FF
19
55
3B
D5
ENDCHAR

STARTCHAR jisx0208_3228
ENCODING 12840
SWIDTH 960 0
DWIDTH 8 0
BBX 8 8 0 -2
BITMAP
6C
FF
35
5B
F5
7F
66
5B
ENDCHAR

STARTCHAR jisx0208_3229
ENCODING 12841
SWIDTH 960 0
DWIDTH 8 0
BBX 8 8 0 -2
BITMAP
2B
FF
D9
3F
33
3F
3F
AD
ENDCHAR

STARTCHAR jisx0208_322A
ENCODING 12842
SWIDTH 960 0
DWIDTH 8 0
BBX 8 8 0 -2
BITMAP
FB
C7
D5
B7
D6
C7
F9
0B
ENDCHAR

STARTCHAR jisx0208_322B
ENCODING 12843
SWIDTH 960 0
DWIDTH 8 0
BBX 8 8 0 -2
BITMAP
36
FF
36
FF
5B
5B
7F
C1
ENDCHAR

STARTCHAR jisx0208_322C
ENCODING 12844
SWIDTH 960 0
DWIDTH 8 0
BBX 8 8 0 -2
BITMAP
FF
E5
AD
FF
D9
D5
FD
C1
ENDCHAR

STARTCHAR jisx0208_322D
ENCODING 12845
SWIDTH 960 0
DWIDTH 8 0
BBX 8 8 0 -2
BITMAP
C6
1F
D5
15
1F
66
66
C6
ENDCHAR

STARTCHAR jisx0208_322E
ENCODING 12846
SWIDTH 960 0
DWIDTH 8 0
BBX 8 8 0 -2
BITMAP
33
FF
B3
55
B5
76
AB
79
ENDCHAR

STARTCHAR jisx0208_322F
ENCODING 12847
SWIDTH 960 0
DWIDTH 8 0
BBX 8 8 0 -2
BITMAP
36
5F
EB
7F
5B
5F
59
6F
ENDCHAR

STARTCHAR jisx0208_3230
ENCODING 12848
SWIDTH 960 0
DWIDTH 8 0
BBX 8 8 0 -2
BITMAP
7F
61
7F
5B
7F
5F
66
BF
ENDCHAR

STARTCHAR jisx0208_3231
ENCODING 12849
SWIDTH 960 0
DWIDTH 8 0
BBX 8 8 0 -2
BITMAP
66
5F
EB
DF
5B
5F
59
6F
ENDCHAR

STARTCHAR jisx0208_3232
ENCODING 12850
SWIDTH 960 0
DWIDTH 8 0
BBX 8 8 0 -2
BITMAP
F6
BF
EB
BF
EB
AF
AD
B7
ENDCHAR

STARTCHAR jisx0208_3233
ENCODING 12851
SWIDTH 960 0
DWIDTH 8 0
BBX 8 8 0 -2
BITMAP
6F
F6
5F
F5
DF
55
5F
55
ENDCHAR

STARTCHAR jisx0208_3234
ENCODING 12852
SWIDTH 960 0
DWIDTH 8 0
BBX 8 8 0 -2
BITMAP
B6
F6
B6
3F
F6
36
36
3F
ENDCHAR

STARTCHAR jisx0208_3235
ENCODING 12853
SWIDTH 960 0
DWIDTH 8 0
BBX 8 8 0 -2
BITMAP
FF
06
1C
30
60
C1
C1
7F
ENDCHAR

STARTCHAR jisx0208_3236
ENCODING 12854
SWIDTH 960 0
DWIDTH 8 0
BBX 8 8 0 -2
BITMAP
36
5F
EB
7F
55
5F
66
67
ENDCHAR

STARTCHAR jisx0208_3237
ENCODING 12855
SWIDTH 960 0
DWIDTH 8 0
BBX 8 8 0 -2
BITMAP
60
77
B5
FD
35
B5
B5
F6
ENDCHAR

STARTCHAR jisx0208_3238
ENCODING 12856
SWIDTH 960 0
DWIDTH 8 0
BBX 8 8 0 -2
BITMAP
7F
6B
7F
57
7F
2C
B1
BD
ENDCHAR

STARTCHAR jisx0208_3239
ENCODING 12857
SWIDTH 960 0
DWIDTH 8 0
BBX 8 8 0 -2
BITMAP
DF
1F
1B
DF
00
5F
55
BF
ENDCHAR

STARTCHAR jisx0208_323A
ENCODING 12858
SWIDTH 960 0
DWIDTH 8 0
BBX 8 8 0 -2
BITMAP
31
DF
6B
EF
61
EF
66
57
ENDCHAR

STARTCHAR jisx0208_323B
ENCODING 12859
SWIDTH 960 0
DWIDTH 8 0
BBX 8 8 0 -2
BITMAP
18
FF
36
FF
63
7F
63
7F
ENDCHAR

STARTCHAR jisx0208_323C
ENCODING 12860
SWIDTH 960 0
DWIDTH 8 0
BBX 8 8 0 -2
BITMAP
FF
18
1C
16
1B
18
18
18
ENDCHAR

STARTCHAR jisx0208_323D
ENCODING 12861
SWIDTH 960 0
DWIDTH 8 0
BBX 8 8 0 -2
BITMAP
2C
6C
ED
6F
6C
6C
6D
6F
ENDCHAR

STARTCHAR jisx0208_323E
ENCODING 12862
SWIDTH 960 0
DWIDTH 8 0
BBX 8 8 0 -2
BITMAP
2F
6C
EF
6D
6D
57
77
6D
ENDCHAR

STARTCHAR jisx0208_323F
ENCODING 12863
SWIDTH 960 0
DWIDTH 8 0
BBX 8 8 0 -2
BITMAP
30
5F
E1
5D
55
5D
61
63
ENDCHAR

STARTCHAR jisx0208_3240
ENCODING 12864
SWIDTH 960 0
DWIDTH 8 0
BBX 8 8 0 -2
BITMAP
38
58
FF
55
55
55
55
6B
ENDCHAR

STARTCHAR jisx0208_3241
ENCODING 12865
SWIDTH 960 0
DWIDTH 8 0
BBX 8 8 0 -2
BITMAP
3F
56
D6
7F
55
55
55
7F
ENDCHAR

STARTCHAR jisx0208_3242
ENCODING 12866
SWIDTH 960 0
DWIDTH 8 0
BBX 8 8 0 -2
BITMAP
36
5F
E6
5F
66
5F
66
5F
ENDCHAR

STARTCHAR jisx0208_3243
ENCODING 12867
SWIDTH 960 0
DWIDTH 8 0
BBX 8 8 0 -2
BITMAP
60
F7
55
55
55
55
55
B7
ENDCHAR

STARTCHAR jisx0208_3244
ENCODING 12868
SWIDTH 960 0
DWIDTH 8 0
BBX 8 8 0 -2
BITMAP
FF
03
7B
5B
5B
7B
03
07
ENDCHAR

STARTCHAR jisx0208_3245
ENCODING 12869
SWIDTH 960 0
DWIDTH 8 0
BBX 8 8 0 -2
BITMAP
18
FF
18
7F
63
FF
55
B7
ENDCHAR

STARTCHAR jisx0208_3246
ENCODING 12870
SWIDTH 960 0
DWIDTH 8 0
BBX 8 8 0 -2
BITMAP
FF
18
7F
63
7F
36
1C
F7
ENDCHAR

STARTCHAR jisx0208_3247
ENCODING 12871
SWIDTH 960 0
DWIDTH 8 0
BBX 8 8 0 -2
BITMAP
66
5F
F9
6F
AD
F7
6F
B5
ENDCHAR

STARTCHAR jisx0208_3248
ENCODING 12872
SWIDTH 960 0
DWIDTH 8 0
BBX 8 8 0 -2
BITMAP
18
FF
BD
2C
DD
2B
EB
39
ENDCHAR

STARTCHAR jisx0208_3249
ENCODING 12873
SWIDTH 960 0
DWIDTH 8 0
BBX 8 8 0 -2
BITMAP
18
FF
BD
36
FF
63
FD
36
ENDCHAR

STARTCHAR jisx0208_324A
ENCODING 12874
SWIDTH 960 0
DWIDTH 8 0
BBX 8 8 0 -2
BITMAP
33
EB
63
EB
63
EF
63
63
ENDCHAR

STARTCHAR jisx0208_324B
ENCODING 12875
SWIDTH 960 0
DWIDTH 8 0
BBX 8 8 0 -2
BITMAP
3B
ED
BB
F0
BF
B5
FB
35
ENDCHAR

STARTCHAR jisx0208_324C
ENCODING 12876
SWIDTH 960 0
DWIDTH 8 0
BBX 8 8 0 -2
BITMAP
7F
5B
7F
5B
FF
3C
56
DB
ENDCHAR

STARTCHAR jisx0208_324D
ENCODING 12877
SWIDTH 960 0
DWIDTH 8 0
BBX 8 8 0 -2
BITMAP
60
F7
55
B5
FF
3C
56
DB
ENDCHAR

STARTCHAR jisx0208_324E
ENCODING 12878
SWIDTH 960 0
DWIDTH 8 0
BBX 8 8 0 -2
BITMAP
FE
17
5D
16
FE
1B
5B
19
ENDCHAR

STARTCHAR jisx0208_324F
ENCODING 12879
SWIDTH 960 0
DWIDTH 8 0
BBX 8 8 0 -2
BITMAP
BF
03
BB
2B
2B
3B
C3
C7
ENDCHAR

STARTCHAR jisx0208_3250
ENCODING 12880
SWIDTH 960 0
DWIDTH 8 0
BBX 8 8 0 -2
BITMAP
18
5B
56
DC
2C
2C
66
C3
ENDCHAR

STARTCHAR jisx0208_3251
ENCODING 12881
SWIDTH 960 0
DWIDTH 8 0
BBX 8 8 0 -2
BITMAP
FF
61
5D
F5
5D
71
E1
03
ENDCHAR

STARTCHAR jisx0208_3252
ENCODING 12882
SWIDTH 960 0
DWIDTH 8 0
BBX 8 8 0 -2
BITMAP
6F
EB
2B
5F
F9
75
59
5B
ENDCHAR

STARTCHAR jisx0208_3253
ENCODING 12883
SWIDTH 960 0
DWIDTH 8 0
BBX 8 8 0 -2
BITMAP
0E
F8
18
FF
3C
56
DB
18
ENDCHAR

STARTCHAR jisx0208_3254
ENCODING 12884
SWIDTH 960 0
DWIDTH 8 0
BBX 8 8 0 -2
BITMAP
36
DF
55
EE
55
EF
55
6D
ENDCHAR

STARTCHAR jisx0208_3255
ENCODING 12885
SWIDTH 960 0
DWIDTH 8 0
BBX 8 8 0 -2
BITMAP
66
7F
B3
7F
6D
7F
55
7F
ENDCHAR

STARTCHAR jisx0208_3256
ENCODING 12886
SWIDTH 960 0
DWIDTH 8 0
BBX 8 8 0 -2
BITMAP
36
FF
36
2D
6F
EC
6D
6F
ENDCHAR

STARTCHAR jisx0208_3257
ENCODING 12887
SWIDTH 960 0
DWIDTH 8 0
BBX 8 8 0 -2
BITMAP
36
FF
36
FF
7B
5B
7B
07
ENDCHAR

STARTCHAR jisx0208_3258
ENCODING 12888
SWIDTH 960 0
DWIDTH 8 0
BBX 8 8 0 -2
BITMAP
36
FF
36
60
F7
55
55
B7
ENDCHAR

STARTCHAR jisx0208_3259
ENCODING 12889
SWIDTH 960 0
DWIDTH 8 0
BBX 8 8 0 -2
BITMAP
36
FF
36
7F
DD
55
5D
63
ENDCHAR

STARTCHAR jisx0208_325A
ENCODING 12890
SWIDTH 960 0
DWIDTH 8 0
BBX 8 8 0 -2
BITMAP
2C
FF
2C
FF
56
FF
56
FF
ENDCHAR

STARTCHAR jisx0208_325B
ENCODING 12891
SWIDTH 960 0
DWIDTH 8 0
BBX 8 8 0 -2
BITMAP
2C
FF
5B
7F
5B
FF
36
DB
ENDCHAR

STARTCHAR jisx0208_325C
ENCODING 12892
SWIDTH 960 0
DWIDTH 8 0
BBX 8 8 0 -2
BITMAP
5F
55
FF
B8
FF
55
5B
F5
ENDCHAR

STARTCHAR jisx0208_325D
ENCODING 12893
SWIDTH 960 0
DWIDTH 8 0
BBX 8 8 0 -2
BITMAP
5F
F5
1F
F5
3F
EF
B5
F6
ENDCHAR

STARTCHAR jisx0208_325E
ENCODING 12894
SWIDTH 960 0
DWIDTH 8 0
BBX 8 8 0 -2
BITMAP
16
FF
AB
BF
AB
FF
0C
3F
ENDCHAR

STARTCHAR jisx0208_325F
ENCODING 12895
SWIDTH 960 0
DWIDTH 8 0
BBX 8 8 0 -2
BITMAP
2D
6F
ED
7F
7F
63
7F
C1
ENDCHAR

STARTCHAR jisx0208_3260
ENCODING 12896
SWIDTH 960 0
DWIDTH 8 0
BBX 8 8 0 -2
BITMAP
D8
3F
15
15
D5
6F
60
BF
ENDCHAR

STARTCHAR jisx0208_3261
ENCODING 12897
SWIDTH 960 0
DWIDTH 8 0
BBX 8 8 0 -2
BITMAP
CF
0B
0B
1F
D9
55
60
BF
ENDCHAR

STARTCHAR jisx0208_3262
ENCODING 12898
SWIDTH 960 0
DWIDTH 8 0
BBX 8 8 0 -2
BITMAP
7F
18
FF
D5
EF
AD
F7
DD
ENDCHAR

STARTCHAR jisx0208_3263
ENCODING 12899
SWIDTH 960 0
DWIDTH 8 0
BBX 8 8 0 -2
BITMAP
63
63
FF
D5
F5
63
5B
F5
ENDCHAR

STARTCHAR jisx0208_3264
ENCODING 12900
SWIDTH 960 0
DWIDTH 8 0
BBX 8 8 0 -2
BITMAP
2E
55
FF
5B
5B
7B
5B
55
ENDCHAR

STARTCHAR jisx0208_3265
ENCODING 12901
SWIDTH 960 0
DWIDTH 8 0
BBX 8 8 0 -2
BITMAP
6B
5B
5F
AB
AF
BB
EB
1D
ENDCHAR

STARTCHAR jisx0208_3266
ENCODING 12902
SWIDTH 960 0
DWIDTH 8 0
BBX 8 8 0 -2
BITMAP
15
F6
36
FF
36
F5
33
6D
ENDCHAR

STARTCHAR jisx0208_3267
ENCODING 12903
SWIDTH 960 0
DWIDTH 8 0
BBX 8 8 0 -2
BITMAP
3F
36
36
FF
0E
36
E6
0E
ENDCHAR

STARTCHAR jisx0208_3268
ENCODING 12904
SWIDTH 960 0
DWIDTH 8 0
BBX 8 8 0 -2
BITMAP
FF
18
3E
B5
B5
BD
C1
FF
ENDCHAR

STARTCHAR jisx0208_3269
ENCODING 12905
SWIDTH 960 0
DWIDTH 8 0
BBX 8 8 0 -2
BITMAP
F6
B6
F6
D6
F6
AB
AB
F9
ENDCHAR

STARTCHAR jisx0208_326A
ENCODING 12906
SWIDTH 960 0
DWIDTH 8 0
BBX 8 8 0 -2
BITMAP
36
FF
36
7F
36
FF
16
76
ENDCHAR

STARTCHAR jisx0208_326B
ENCODING 12907
SWIDTH 960 0
DWIDTH 8 0
BBX 8 8 0 -2
BITMAP
6B
5B
EB
DF
EB
5B
6B
ED
ENDCHAR

STARTCHAR jisx0208_326C
ENCODING 12908
SWIDTH 960 0
DWIDTH 8 0
BBX 8 8 0 -2
BITMAP
60
F7
55
BF
63
7F
7F
C1
ENDCHAR

STARTCHAR jisx0208_326D
ENCODING 12909
SWIDTH 960 0
DWIDTH 8 0
BBX 8 8 0 -2
BITMAP
F5
2B
BF
EB
2F
6B
AB
6F
ENDCHAR

STARTCHAR jisx0208_326E
ENCODING 12910
SWIDTH 960 0
DWIDTH 8 0
BBX 8 8 0 -2
BITMAP
6B
BB
6B
FF
AB
EF
DB
ED
ENDCHAR

STARTCHAR jisx0208_326F
ENCODING 12911
SWIDTH 960 0
DWIDTH 8 0
BBX 8 8 0 -2
BITMAP
60
F7
55
BF
36
3F
01
AB
ENDCHAR

STARTCHAR jisx0208_3270
ENCODING 12912
SWIDTH 960 0
DWIDTH 8 0
BBX 8 8 0 -2
BITMAP
1C
36
63
B5
36
36
36
66
ENDCHAR

STARTCHAR jisx0208_3271
ENCODING 12913
SWIDTH 960 0
DWIDTH 8 0
BBX 8 8 0 -2
BITMAP
1C
36
DB
00
FF
18
33
FD
ENDCHAR

STARTCHAR jisx0208_3272
ENCODING 12914
SWIDTH 960 0
DWIDTH 8 0
BBX 8 8 0 -2
BITMAP
6F
E5
ED
AB
EF
BB
EF
B3
ENDCHAR

STARTCHAR jisx0208_3273
ENCODING 12915
SWIDTH 960 0
DWIDTH 8 0
BBX 8 8 0 -2
BITMAP
FF
C1
BD
B5
B5
BD
C1
FF
ENDCHAR

STARTCHAR jisx0208_3274
ENCODING 12916
SWIDTH 960 0
DWIDTH 8 0
BBX 8 8 0 -2
BITMAP
6C
5F
F5
5F
75
DF
0B
3B
ENDCHAR

STARTCHAR jisx0208_3275
ENCODING 12917
SWIDTH 960 0
DWIDTH 8 0
BBX 8 8 0 -2
BITMAP
66
5F
F5
5F
76
DF
1B
2D
ENDCHAR

STARTCHAR jisx0208_3276
ENCODING 12918
SWIDTH 960 0
DWIDTH 8 0
BBX 8 8 0 -2
BITMAP
EF
2D
6D
ED
2D
EF
70
DF
ENDCHAR

STARTCHAR jisx0208_3277
ENCODING 12919
SWIDTH 960 0
DWIDTH 8 0
BBX 8 8 0 -2
BITMAP
6C
5F
EB
EB
7F
6C
56
73
ENDCHAR

STARTCHAR jisx0208_3278
ENCODING 12920
SWIDTH 960 0
DWIDTH 8 0
BBX 8 8 0 -2
BITMAP
5F
6D
F7
DD
66
5F
66
5F
ENDCHAR

STARTCHAR jisx0208_3279
ENCODING 12921
SWIDTH 960 0
DWIDTH 8 0
BBX 8 8 0 -2
BITMAP
6C
5F
F5
DF
55
55
5F
63
ENDCHAR

STARTCHAR jisx0208_327A
ENCODING 12922
SWIDTH 960 0
DWIDTH 8 0
BBX 8 8 0 -2
BITMAP
5F
56
F5
DF
56
56
6B
59
ENDCHAR

STARTCHAR jisx0208_327B
ENCODING 12923
SWIDTH 960 0
DWIDTH 8 0
BBX 8 8 0 -2
BITMAP
66
5F
F5
DF
66
7F
5B
6D
ENDCHAR

STARTCHAR jisx0208_327C
ENCODING 12924
SWIDTH 960 0
DWIDTH 8 0
BBX 8 8 0 -2
BITMAP
05
06
FF
56
55
FB
5B
D5
ENDCHAR

STARTCHAR jisx0208_327D
ENCODING 12925
SWIDTH 960 0
DWIDTH 8 0
BBX 8 8 0 -2
BITMAP
6F
ED
6F
70
DF
65
6D
DB
ENDCHAR

STARTCHAR jisx0208_327E
ENCODING 12926
SWIDTH 960 0
DWIDTH 8 0
BBX 8 8 0 -2
BITMAP
0C
EC
2F
3B
EB
C6
D7
FD
ENDCHAR

STARTCHAR jisx0208_3321
ENCODING 13089
SWIDTH 960 0
DWIDTH 8 0
BBX 8 8 0 -2
BITMAP
63
F7
DB
D7
FB
6F
73
BF
ENDCHAR

STARTCHAR jisx0208_3322
ENCODING 13090
SWIDTH 960 0
DWIDTH 8 0
BBX 8 8 0 -2
BITMAP
18
FF
BF
EB
BF
AB
FF
07
ENDCHAR

STARTCHAR jisx0208_3323
ENCODING 13091
SWIDTH 960 0
DWIDTH 8 0
BBX 8 8 0 -2
BITMAP
63
F3
5F
EB
DF
6B
6B
55
ENDCHAR

STARTCHAR jisx0208_3324
ENCODING 13092
SWIDTH 960 0
DWIDTH 8 0
BBX 8 8 0 -2
BITMAP
B0
3F
BF
2B
7F
2B
BF
C7
ENDCHAR

STARTCHAR jisx0208_3325
ENCODING 13093
SWIDTH 960 0
DWIDTH 8 0
BBX 8 8 0 -2
BITMAP
7F
60
66
55
57
66
6B
D9
ENDCHAR

STARTCHAR jisx0208_3326
ENCODING 13094
SWIDTH 960 0
DWIDTH 8 0
BBX 8 8 0 -2
BITMAP
7F
5B
7F
5B
7F
B5
36
66
ENDCHAR

STARTCHAR jisx0208_3327
ENCODING 13095
SWIDTH 960 0
DWIDTH 8 0
BBX 8 8 0 -2
BITMAP
6B
7E
6D
FF
63
7F
63
7F
ENDCHAR

STARTCHAR jisx0208_3328
ENCODING 13096
SWIDTH 960 0
DWIDTH 8 0
BBX 8 8 0 -2
BITMAP
66
AB
55
F0
6F
F6
EB
5D
ENDCHAR

STARTCHAR jisx0208_3329
ENCODING 13097
SWIDTH 960 0
DWIDTH 8 0
BBX 8 8 0 -2
BITMAP
36
FF
36
1C
F7
36
36
66
ENDCHAR

STARTCHAR jisx0208_332A
ENCODING 13098
SWIDTH 960 0
DWIDTH 8 0
BBX 8 8 0 -2
BITMAP
6F
B5
EB
BF
DB
7F
1B
FF
ENDCHAR

STARTCHAR jisx0208_332B
ENCODING 13099
SWIDTH 960 0
DWIDTH 8 0
BBX 8 8 0 -2
BITMAP
F7
B5
F7
BD
D5
BF
D5
B5
ENDCHAR

STARTCHAR jisx0208_332C
ENCODING 13100
SWIDTH 960 0
DWIDTH 8 0
BBX 8 8 0 -2
BITMAP
FB
BF
BB
DF
AD
AF
ED
CF
ENDCHAR

STARTCHAR jisx0208_332D
ENCODING 13101
SWIDTH 960 0
DWIDTH 8 0
BBX 8 8 0 -2
BITMAP
7F
63
7F
63
7F
63
7F
E3
ENDCHAR

STARTCHAR jisx0208_332E
ENCODING 13102
SWIDTH 960 0
DWIDTH 8 0
BBX 8 8 0 -2
BITMAP
AF
FB
0B
FB
DB
FB
5B
F3
ENDCHAR

STARTCHAR jisx0208_332F
ENCODING 13103
SWIDTH 960 0
DWIDTH 8 0
BBX 8 8 0 -2
BITMAP
36
F6
2F
55
B5
55
AD
5B
ENDCHAR

STARTCHAR jisx0208_3330
ENCODING 13104
SWIDTH 960 0
DWIDTH 8 0
BBX 8 8 0 -2
BITMAP
66
76
5E
D7
35
36
66
C6
ENDCHAR

STARTCHAR jisx0208_3331
ENCODING 13105
SWIDTH 960 0
DWIDTH 8 0
BBX 8 8 0 -2
BITMAP
06
FF
B6
AB
B5
AB
F7
0D
ENDCHAR

STARTCHAR jisx0208_3332
ENCODING 13106
SWIDTH 960 0
DWIDTH 8 0
BBX 8 8 0 -2
BITMAP
18
FF
BD
18
FF
7F
63
7F
ENDCHAR

STARTCHAR jisx0208_3333
ENCODING 13107
SWIDTH 960 0
DWIDTH 8 0
BBX 8 8 0 -2
BITMAP
2B
2B
7F
5F
6C
7F
CC
7F
ENDCHAR

STARTCHAR jisx0208_3334
ENCODING 13108
SWIDTH 960 0
DWIDTH 8 0
BBX 8 8 0 -2
BITMAP
5F
57
F7
DF
5B
5B
57
5B
ENDCHAR

STARTCHAR jisx0208_3335
ENCODING 13109
SWIDTH 960 0
DWIDTH 8 0
BBX 8 8 0 -2
BITMAP
5F
F7
57
FF
DB
5B
57
5B
ENDCHAR

STARTCHAR jisx0208_3336
ENCODING 13110
SWIDTH 960 0
DWIDTH 8 0
BBX 8 8 0 -2
BITMAP
BF
36
2F
B6
3F
36
AF
DF
ENDCHAR

STARTCHAR jisx0208_3337
ENCODING 13111
SWIDTH 960 0
DWIDTH 8 0
BBX 8 8 0 -2
BITMAP
FF
6B
6F
7B
DF
5B
5B
77
ENDCHAR

STARTCHAR jisx0208_3338
ENCODING 13112
SWIDTH 960 0
DWIDTH 8 0
BBX 8 8 0 -2
BITMAP
33
FF
2B
FF
33
7F
55
FF
ENDCHAR

STARTCHAR jisx0208_3339
ENCODING 13113
SWIDTH 960 0
DWIDTH 8 0
BBX 8 8 0 -2
BITMAP
6B
BE
6B
DD
6D
5D
6D
5B
ENDCHAR

STARTCHAR jisx0208_333A
ENCODING 13114
SWIDTH 960 0
DWIDTH 8 0
BBX 8 8 0 -2
BITMAP
66
FF
06
EB
05
EB
B7
ED
ENDCHAR

STARTCHAR jisx0208_333B
ENCODING 13115
SWIDTH 960 0
DWIDTH 8 0
BBX 8 8 0 -2
BITMAP
66
B5
FF
5F
F9
5F
EB
DF
ENDCHAR

STARTCHAR jisx0208_333C
ENCODING 13116
SWIDTH 960 0
DWIDTH 8 0
BBX 8 8 0 -2
BITMAP
7B
5F
F6
DD
7B
55
7B
55
ENDCHAR

STARTCHAR jisx0208_333D
ENCODING 13117
SWIDTH 960 0
DWIDTH 8 0
BBX 8 8 0 -2
BITMAP
DF
15
DF
15
1F
6F
66
DF
ENDCHAR

STARTCHAR jisx0208_333E
ENCODING 13118
SWIDTH 960 0
DWIDTH 8 0
BBX 8 8 0 -2
BITMAP
FF
6B
7B
AD
FF
3E
F7
3E
ENDCHAR

STARTCHAR jisx0208_333F
ENCODING 13119
SWIDTH 960 0
DWIDTH 8 0
BBX 8 8 0 -2
BITMAP
66
5F
F6
BF
F6
5F
76
DF
ENDCHAR

STARTCHAR jisx0208_3340
ENCODING 13120
SWIDTH 960 0
DWIDTH 8 0
BBX 8 8 0 -2
BITMAP
5F
60
EF
6F
6D
6F
E0
1F
ENDCHAR

STARTCHAR jisx0208_3341
ENCODING 13121
SWIDTH 960 0
DWIDTH 8 0
BBX 8 8 0 -2
BITMAP
66
FF
66
FF
D5
55
55
66
ENDCHAR

STARTCHAR jisx0208_3342
ENCODING 13122
SWIDTH 960 0
DWIDTH 8 0
BBX 8 8 0 -2
BITMAP
5F
58
FF
B6
F7
55
75
EB
ENDCHAR

STARTCHAR jisx0208_3343
ENCODING 13123
SWIDTH 960 0
DWIDTH 8 0
BBX 8 8 0 -2
BITMAP
6C
AF
F9
6D
ED
5D
F1
E7
ENDCHAR

STARTCHAR jisx0208_3344
ENCODING 13124
SWIDTH 960 0
DWIDTH 8 0
BBX 8 8 0 -2
BITMAP
31
FB
2B
FF
AB
FD
01
FB
ENDCHAR

STARTCHAR jisx0208_3345
ENCODING 13125
SWIDTH 960 0
DWIDTH 8 0
BBX 8 8 0 -2
BITMAP
16
FF
B6
BF
AB
FF
2B
6B
ENDCHAR

STARTCHAR jisx0208_3346
ENCODING 13126
SWIDTH 960 0
DWIDTH 8 0
BBX 8 8 0 -2
BITMAP
3E
76
DC
36
FF
66
66
7E
ENDCHAR

STARTCHAR jisx0208_3347
ENCODING 13127
SWIDTH 960 0
DWIDTH 8 0
BBX 8 8 0 -2
BITMAP
06
7F
55
7D
6F
55
7D
D7
ENDCHAR

STARTCHAR jisx0208_3348
ENCODING 13128
SWIDTH 960 0
DWIDTH 8 0
BBX 8 8 0 -2
BITMAP
66
FF
58
76
D6
56
6B
DD
ENDCHAR

STARTCHAR jisx0208_3349
ENCODING 13129
SWIDTH 960 0
DWIDTH 8 0
BBX 8 8 0 -2
BITMAP
55
FF
59
6F
EB
6B
6F
DB
ENDCHAR

STARTCHAR jisx0208_334A
ENCODING 13130
SWIDTH 960 0
DWIDTH 8 0
BBX 8 8 0 -2
BITMAP
6F
EB
56
EB
5F
5B
5B
5F
ENDCHAR

STARTCHAR jisx0208_334B
ENCODING 13131
SWIDTH 960 0
DWIDTH 8 0
BBX 8 8 0 -2
BITMAP
66
FF
6C
FB
ED
6B
57
6D
ENDCHAR

STARTCHAR jisx0208_334C
ENCODING 13132
SWIDTH 960 0
DWIDTH 8 0
BBX 8 8 0 -2
BITMAP
2F
FB
2B
F8
CF
75
5B
DD
ENDCHAR

STARTCHAR jisx0208_334D
ENCODING 13133
SWIDTH 960 0
DWIDTH 8 0
BBX 8 8 0 -2
BITMAP
6B
3F
6B
AF
7F
AD
37
6D
ENDCHAR

STARTCHAR jisx0208_334E
ENCODING 13134
SWIDTH 960 0
DWIDTH 8 0
BBX 8 8 0 -2
BITMAP
F6
5F
55
7F
D6
5F
56
7F
ENDCHAR

STARTCHAR jisx0208_334F
ENCODING 13135
SWIDTH 960 0
DWIDTH 8 0
BBX 8 8 0 -2
BITMAP
2B
DF
6B
FF
5F
ED
67
5D
ENDCHAR

STARTCHAR jisx0208_3350
ENCODING 13136
SWIDTH 960 0
DWIDTH 8 0
BBX 8 8 0 -2
BITMAP
5B
FF
B5
3E
36
3E
2D
EF
ENDCHAR

STARTCHAR jisx0208_3351
ENCODING 13137
SWIDTH 960 0
DWIDTH 8 0
BBX 8 8 0 -2
BITMAP
3C
6C
FF
5B
7F
5B
7F
C3
ENDCHAR

STARTCHAR jisx0208_3352
ENCODING 13138
SWIDTH 960 0
DWIDTH 8 0
BBX 8 8 0 -2
BITMAP
66
EF
66
FF
6B
EB
EB
5B
ENDCHAR

STARTCHAR jisx0208_3353
ENCODING 13139
SWIDTH 960 0
DWIDTH 8 0
BBX 8 8 0 -2
BITMAP
66
FF
60
EB
FB
66
EB
59
ENDCHAR

STARTCHAR jisx0208_3354
ENCODING 13140
SWIDTH 960 0
DWIDTH 8 0
BBX 8 8 0 -2
BITMAP
30
FF
55
F5
37
F5
35
77
ENDCHAR

STARTCHAR jisx0208_3355
ENCODING 13141
SWIDTH 960 0
DWIDTH 8 0
BBX 8 8 0 -2
BITMAP
F7
B5
F7
BD
AD
FD
AD
BD
ENDCHAR

STARTCHAR jisx0208_3356
ENCODING 13142
SWIDTH 960 0
DWIDTH 8 0
BBX 8 8 0 -2
BITMAP
FF
AB
BF
DB
B9
BF
D5
D9
ENDCHAR

STARTCHAR jisx0208_3357
ENCODING 13143
SWIDTH 960 0
DWIDTH 8 0
BBX 8 8 0 -2
BITMAP
2C
FF
2C
7F
5B
7F
FF
18
ENDCHAR

STARTCHAR jisx0208_3358
ENCODING 13144
SWIDTH 960 0
DWIDTH 8 0
BBX 8 8 0 -2
BITMAP
5B
FF
BD
06
0C
FF
0C
1C
ENDCHAR

STARTCHAR jisx0208_3359
ENCODING 13145
SWIDTH 960 0
DWIDTH 8 0
BBX 8 8 0 -2
BITMAP
7E
60
7F
6C
FF
0C
6D
7F
ENDCHAR

STARTCHAR jisx0208_335A
ENCODING 13146
SWIDTH 960 0
DWIDTH 8 0
BBX 8 8 0 -2
BITMAP
18
BB
6E
AB
FF
3C
56
DB
ENDCHAR

STARTCHAR jisx0208_335B
ENCODING 13147
SWIDTH 960 0
DWIDTH 8 0
BBX 8 8 0 -2
BITMAP
37
FB
AF
55
37
FD
57
7D
ENDCHAR

STARTCHAR jisx0208_335C
ENCODING 13148
SWIDTH 960 0
DWIDTH 8 0
BBX 8 8 0 -2
BITMAP
FF
AB
FF
F5
67
75
17
6D
ENDCHAR

STARTCHAR jisx0208_335D
ENCODING 13149
SWIDTH 960 0
DWIDTH 8 0
BBX 8 8 0 -2
BITMAP
6B
FF
6B
7F
EB
5F
6B
DB
ENDCHAR

STARTCHAR jisx0208_335E
ENCODING 13150
SWIDTH 960 0
DWIDTH 8 0
BBX 8 8 0 -2
BITMAP
6C
7F
B3
0C
FF
36
36
FF
ENDCHAR

STARTCHAR jisx0208_335F
ENCODING 13151
SWIDTH 960 0
DWIDTH 8 0
BBX 8 8 0 -2
BITMAP
5F
F5
5F
F7
DD
6F
66
5F
ENDCHAR

STARTCHAR jisx0208_3360
ENCODING 13152
SWIDTH 960 0
DWIDTH 8 0
BBX 8 8 0 -2
BITMAP
5F
F5
5F
FF
E0
5F
55
5F
ENDCHAR

STARTCHAR jisx0208_3361
ENCODING 13153
SWIDTH 960 0
DWIDTH 8 0
BBX 8 8 0 -2
BITMAP
5F
F9
5F
F6
DF
56
7F
67
ENDCHAR

STARTCHAR jisx0208_3362
ENCODING 13154
SWIDTH 960 0
DWIDTH 8 0
BBX 8 8 0 -2
BITMAP
67
DB
EB
BF
AB
FF
0B
AD
ENDCHAR

STARTCHAR jisx0208_3363
ENCODING 13155
SWIDTH 960 0
DWIDTH 8 0
BBX 8 8 0 -2
BITMAP
D7
33
B7
33
3F
71
61
AB
ENDCHAR

STARTCHAR jisx0208_3364
ENCODING 13156
SWIDTH 960 0
DWIDTH 8 0
BBX 8 8 0 -2
BITMAP
31
FD
AD
75
35
F5
D9
FB
ENDCHAR

STARTCHAR jisx0208_3365
ENCODING 13157
SWIDTH 960 0
DWIDTH 8 0
BBX 8 8 0 -2
BITMAP
1F
FB
BF
BB
BF
F5
1D
1F
ENDCHAR

STARTCHAR jisx0208_3366
ENCODING 13158
SWIDTH 960 0
DWIDTH 8 0
BBX 8 8 0 -2
BITMAP
66
6B
F9
EF
60
5F
59
5F
ENDCHAR

STARTCHAR jisx0208_3367
ENCODING 13159
SWIDTH 960 0
DWIDTH 8 0
BBX 8 8 0 -2
BITMAP
63
EE
66
7F
E6
5F
59
DF
ENDCHAR

STARTCHAR jisx0208_3368
ENCODING 13160
SWIDTH 960 0
DWIDTH 8 0
BBX 8 8 0 -2
BITMAP
DF
06
BF
06
1F
5B
5B
DF
ENDCHAR

STARTCHAR jisx0208_3369
ENCODING 13161
SWIDTH 960 0
DWIDTH 8 0
BBX 8 8 0 -2
BITMAP
DF
1B
1F
DB
3F
6D
B9
BB
ENDCHAR

STARTCHAR jisx0208_336A
ENCODING 13162
SWIDTH 960 0
DWIDTH 8 0
BBX 8 8 0 -2
BITMAP
DF
1B
BF
3B
1F
5B
5F
DB
ENDCHAR

STARTCHAR jisx0208_336B
ENCODING 13163
SWIDTH 960 0
DWIDTH 8 0
BBX 8 8 0 -2
BITMAP
36
FF
7F
63
7F
DD
71
7B
ENDCHAR

STARTCHAR jisx0208_336C
ENCODING 13164
SWIDTH 960 0
DWIDTH 8 0
BBX 8 8 0 -2
BITMAP
6F
EB
2F
6B
FF
6D
59
5B
ENDCHAR

STARTCHAR jisx0208_336D
ENCODING 13165
SWIDTH 960 0
DWIDTH 8 0
BBX 8 8 0 -2
BITMAP
66
FF
55
EF
F6
5F
EB
6F
ENDCHAR

STARTCHAR jisx0208_336E
ENCODING 13166
SWIDTH 960 0
DWIDTH 8 0
BBX 8 8 0 -2
BITMAP
7E
66
7E
66
7E
66
66
FF
ENDCHAR

STARTCHAR jisx0208_336F
ENCODING 13167
SWIDTH 960 0
DWIDTH 8 0
BBX 8 8 0 -2
BITMAP
5F
D5
FD
BB
BD
EF
06
BF
ENDCHAR

STARTCHAR jisx0208_3370
ENCODING 13168
SWIDTH 960 0
DWIDTH 8 0
BBX 8 8 0 -2
BITMAP
06
F6
B6
BF
B6
F6
06
06
ENDCHAR

STARTCHAR jisx0208_3371
ENCODING 13169
SWIDTH 960 0
DWIDTH 8 0
BBX 8 8 0 -2
BITMAP
6B
FF
6B
EC
D5
77
56
57
ENDCHAR

STARTCHAR jisx0208_3372
ENCODING 13170
SWIDTH 960 0
DWIDTH 8 0
BBX 8 8 0 -2
BITMAP
6B
FF
55
FF
D5
7F
66
5F
ENDCHAR

STARTCHAR jisx0208_3373
ENCODING 13171
SWIDTH 960 0
DWIDTH 8 0
BBX 8 8 0 -2
BITMAP
AC
EF
59
FD
F5
5E
F9
5F
ENDCHAR

STARTCHAR jisx0208_3374
ENCODING 13172
SWIDTH 960 0
DWIDTH 8 0
BBX 8 8 0 -2
BITMAP
56
F6
5F
F6
DF
6F
55
66
ENDCHAR

STARTCHAR jisx0208_3375
ENCODING 13173
SWIDTH 960 0
DWIDTH 8 0
BBX 8 8 0 -2
BITMAP
2C
DF
D5
DD
D7
1E
35
E7
ENDCHAR

STARTCHAR jisx0208_3376
ENCODING 13174
SWIDTH 960 0
DWIDTH 8 0
BBX 8 8 0 -2
BITMAP
18
FF
BD
5B
FF
5B
7F
1F
ENDCHAR

STARTCHAR jisx0208_3377
ENCODING 13175
SWIDTH 960 0
DWIDTH 8 0
BBX 8 8 0 -2
BITMAP
2C
FF
0B
BF
2B
BF
6B
AB
ENDCHAR

STARTCHAR jisx0208_3378
ENCODING 13176
SWIDTH 960 0
DWIDTH 8 0
BBX 8 8 0 -2
BITMAP
66
AB
18
7E
DB
FF
56
FF
ENDCHAR

STARTCHAR jisx0208_3379
ENCODING 13177
SWIDTH 960 0
DWIDTH 8 0
BBX 8 8 0 -2
BITMAP
6B
BF
EB
5F
EB
5F
EB
EB
ENDCHAR

STARTCHAR jisx0208_337A
ENCODING 13178
SWIDTH 960 0
DWIDTH 8 0
BBX 8 8 0 -2
BITMAP
17
F6
BF
B5
BF
AD
F5
3F
ENDCHAR

STARTCHAR jisx0208_337B
ENCODING 13179
SWIDTH 960 0
DWIDTH 8 0
BBX 8 8 0 -2
BITMAP
F6
AF
EB
AF
EC
6F
61
5B
ENDCHAR

STARTCHAR jisx0208_337C
ENCODING 13180
SWIDTH 960 0
DWIDTH 8 0
BBX 8 8 0 -2
BITMAP
6F
F6
6F
ED
EF
6D
6D
6F
ENDCHAR

STARTCHAR jisx0208_337D
ENCODING 13181
SWIDTH 960 0
DWIDTH 8 0
BBX 8 8 0 -2
BITMAP
36
FF
3E
0C
FF
1D
2B
EC
ENDCHAR

STARTCHAR jisx0208_337E
ENCODING 13182
SWIDTH 960 0
DWIDTH 8 0
BBX 8 8 0 -2
BITMAP
36
FF
36
FF
B5
3E
36
FF
ENDCHAR

STARTCHAR jisx0208_3421
ENCODING 13345
SWIDTH 960 0
DWIDTH 8 0
BBX 8 8 0 -2
BITMAP
EB
3D
EB
DF
EB
3D
2D
EB
ENDCHAR

STARTCHAR jisx0208_3422
ENCODING 13346
SWIDTH 960 0
DWIDTH 8 0
BBX 8 8 0 -2
BITMAP
19
15
D5
55
35
35
6D
C3
ENDCHAR

STARTCHAR jisx0208_3423
ENCODING 13347
SWIDTH 960 0
DWIDTH 8 0
BBX 8 8 0 -2
BITMAP
36
FF
36
D9
55
35
55
D9
ENDCHAR

STARTCHAR jisx0208_3424
ENCODING 13348
SWIDTH 960 0
DWIDTH 8 0
BBX 8 8 0 -2
BITMAP
FF
30
3E
36
36
36
35
F7
ENDCHAR

STARTCHAR jisx0208_3425
ENCODING 13349
SWIDTH 960 0
DWIDTH 8 0
BBX 8 8 0 -2
BITMAP
6C
EF
58
AF
F3
66
ED
6F
ENDCHAR

STARTCHAR jisx0208_3426
ENCODING 13350
SWIDTH 960 0
DWIDTH 8 0
BBX 8 8 0 -2
BITMAP
3F
5B
DF
60
5B
5B
5B
73
ENDCHAR

STARTCHAR jisx0208_3427
ENCODING 13351
SWIDTH 960 0
DWIDTH 8 0
BBX 8 8 0 -2
BITMAP
FF
C1
73
0F
FB
6B
71
BF
ENDCHAR

STARTCHAR jisx0208_3428
ENCODING 13352
SWIDTH 960 0
DWIDTH 8 0
BBX 8 8 0 -2
BITMAP
18
FF
AD
7F
2C
FF
5B
CD
ENDCHAR

STARTCHAR jisx0208_3429
ENCODING 13353
SWIDTH 960 0
DWIDTH 8 0
BBX 8 8 0 -2
BITMAP
FD
35
35
FD
35
35
31
33
ENDCHAR

STARTCHAR jisx0208_342A
ENCODING 13354
SWIDTH 960 0
DWIDTH 8 0
BBX 8 8 0 -2
BITMAP
56
F6
5F
75
55
FD
CD
FB
ENDCHAR

STARTCHAR jisx0208_342B
ENCODING 13355
SWIDTH 960 0
DWIDTH 8 0
BBX 8 8 0 -2
BITMAP
66
7E
B7
7D
D5
7D
55
7B
ENDCHAR

STARTCHAR jisx0208_342C
ENCODING 13356
SWIDTH 960 0
DWIDTH 8 0
BBX 8 8 0 -2
BITMAP
56
FF
2C
FF
6E
FB
65
7E
ENDCHAR

STARTCHAR jisx0208_342D
ENCODING 13357
SWIDTH 960 0
DWIDTH 8 0
BBX 8 8 0 -2
BITMAP
0E
F6
BF
AB
B5
FF
0E
3B
ENDCHAR

STARTCHAR jisx0208_342E
ENCODING 13358
SWIDTH 960 0
DWIDTH 8 0
BBX 8 8 0 -2
BITMAP
6B
5F
EB
6F
6B
7F
DB
1F
ENDCHAR

STARTCHAR jisx0208_342F
ENCODING 13359
SWIDTH 960 0
DWIDTH 8 0
BBX 8 8 0 -2
BITMAP
18
FF
36
1C
66
FF
5B
EF
ENDCHAR

STARTCHAR jisx0208_3430
ENCODING 13360
SWIDTH 960 0
DWIDTH 8 0
BBX 8 8 0 -2
BITMAP
18
FF
C1
3E
FF
2C
2D
EF
ENDCHAR

STARTCHAR jisx0208_3431
ENCODING 13361
SWIDTH 960 0
DWIDTH 8 0
BBX 8 8 0 -2
BITMAP
18
FF
B5
3E
30
3F
33
3F
ENDCHAR

STARTCHAR jisx0208_3432
ENCODING 13362
SWIDTH 960 0
DWIDTH 8 0
BBX 8 8 0 -2
BITMAP
18
FF
AD
7F
36
36
3D
EF
ENDCHAR

STARTCHAR jisx0208_3433
ENCODING 13363
SWIDTH 960 0
DWIDTH 8 0
BBX 8 8 0 -2
BITMAP
FF
18
18
FF
18
18
18
18
ENDCHAR

STARTCHAR jisx0208_3434
ENCODING 13364
SWIDTH 960 0
DWIDTH 8 0
BBX 8 8 0 -2
BITMAP
66
EB
59
AF
F6
5F
F6
66
ENDCHAR

STARTCHAR jisx0208_3435
ENCODING 13365
SWIDTH 960 0
DWIDTH 8 0
BBX 8 8 0 -2
BITMAP
7E
56
FF
DB
FF
2C
B1
BD
ENDCHAR

STARTCHAR jisx0208_3436
ENCODING 13366
SWIDTH 960 0
DWIDTH 8 0
BBX 8 8 0 -2
BITMAP
0B
7F
6C
77
55
BB
66
BD
ENDCHAR

STARTCHAR jisx0208_3437
ENCODING 13367
SWIDTH 960 0
DWIDTH 8 0
BBX 8 8 0 -2
BITMAP
5F
5B
FF
DB
5F
5B
5F
71
ENDCHAR

STARTCHAR jisx0208_3438
ENCODING 13368
SWIDTH 960 0
DWIDTH 8 0
BBX 8 8 0 -2
BITMAP
65
5F
FB
DF
55
6F
5D
6F
ENDCHAR

STARTCHAR jisx0208_3439
ENCODING 13369
SWIDTH 960 0
DWIDTH 8 0
BBX 8 8 0 -2
BITMAP
6E
F6
5F
7B
D5
7F
6B
D9
ENDCHAR

STARTCHAR jisx0208_343A
ENCODING 13370
SWIDTH 960 0
DWIDTH 8 0
BBX 8 8 0 -2
BITMAP
76
36
F7
5D
75
55
FB
15
ENDCHAR

STARTCHAR jisx0208_343B
ENCODING 13371
SWIDTH 960 0
DWIDTH 8 0
BBX 8 8 0 -2
BITMAP
6B
EB
5F
EB
EF
6B
6B
6F
ENDCHAR

STARTCHAR jisx0208_343C
ENCODING 13372
SWIDTH 960 0
DWIDTH 8 0
BBX 8 8 0 -2
BITMAP
6F
F0
6F
EF
ED
6F
60
5F
ENDCHAR

STARTCHAR jisx0208_343D
ENCODING 13373
SWIDTH 960 0
DWIDTH 8 0
BBX 8 8 0 -2
BITMAP
66
FF
5B
EF
EC
6F
6D
6F
ENDCHAR

STARTCHAR jisx0208_343E
ENCODING 13374
SWIDTH 960 0
DWIDTH 8 0
BBX 8 8 0 -2
BITMAP
2C
FC
2F
F5
06
FB
2B
B9
ENDCHAR

STARTCHAR jisx0208_343F
ENCODING 13375
SWIDTH 960 0
DWIDTH 8 0
BBX 8 8 0 -2
BITMAP
66
76
AF
7B
5B
FB
55
7D
ENDCHAR

STARTCHAR jisx0208_3440
ENCODING 13376
SWIDTH 960 0
DWIDTH 8 0
BBX 8 8 0 -2
BITMAP
DF
06
C6
3F
06
66
66
C6
ENDCHAR

STARTCHAR jisx0208_3441
ENCODING 13377
SWIDTH 960 0
DWIDTH 8 0
BBX 8 8 0 -2
BITMAP
DB
7F
AB
3F
0C
7F
56
B3
ENDCHAR

STARTCHAR jisx0208_3442
ENCODING 13378
SWIDTH 960 0
DWIDTH 8 0
BBX 8 8 0 -2
BITMAP
BF
2D
BF
35
3D
35
BD
B1
ENDCHAR

STARTCHAR jisx0208_3443
ENCODING 13379
SWIDTH 960 0
DWIDTH 8 0
BBX 8 8 0 -2
BITMAP
D8
1F
AC
1F
36
5F
56
DF
ENDCHAR

STARTCHAR jisx0208_3444
ENCODING 13380
SWIDTH 960 0
DWIDTH 8 0
BBX 8 8 0 -2
BITMAP
FF
55
5F
FF
6D
6F
EF
35
ENDCHAR

STARTCHAR jisx0208_3445
ENCODING 13381
SWIDTH 960 0
DWIDTH 8 0
BBX 8 8 0 -2
BITMAP
36
FF
36
36
3E
36
36
3E
ENDCHAR

STARTCHAR jisx0208_3446
ENCODING 13382
SWIDTH 960 0
DWIDTH 8 0
BBX 8 8 0 -2
BITMAP
F6
B7
FC
B7
F8
7F
55
FF
ENDCHAR

STARTCHAR jisx0208_3447
ENCODING 13383
SWIDTH 960 0
DWIDTH 8 0
BBX 8 8 0 -2
BITMAP
7F
18
FF
30
FF
73
B3
3F
ENDCHAR

STARTCHAR jisx0208_3448
ENCODING 13384
SWIDTH 960 0
DWIDTH 8 0
BBX 8 8 0 -2
BITMAP
66
7F
B3
7F
0C
FF
0C
0C
ENDCHAR

STARTCHAR jisx0208_3449
ENCODING 13385
SWIDTH 960 0
DWIDTH 8 0
BBX 8 8 0 -2
BITMAP
6C
7F
B3
FF
B5
3F
33
3F
ENDCHAR

STARTCHAR jisx0208_344A
ENCODING 13386
SWIDTH 960 0
DWIDTH 8 0
BBX 8 8 0 -2
BITMAP
66
7F
D5
77
5D
55
55
5D
ENDCHAR

STARTCHAR jisx0208_344B
ENCODING 13387
SWIDTH 960 0
DWIDTH 8 0
BBX 8 8 0 -2
BITMAP
63
AE
5F
F6
5F
F5
EB
55
ENDCHAR

STARTCHAR jisx0208_344C
ENCODING 13388
SWIDTH 960 0
DWIDTH 8 0
BBX 8 8 0 -2
BITMAP
30
7F
CC
FF
0C
6D
6D
7F
ENDCHAR

STARTCHAR jisx0208_344D
ENCODING 13389
SWIDTH 960 0
DWIDTH 8 0
BBX 8 8 0 -2
BITMAP
66
EB
59
BF
F5
55
EF
55
ENDCHAR

STARTCHAR jisx0208_344E
ENCODING 13390
SWIDTH 960 0
DWIDTH 8 0
BBX 8 8 0 -2
BITMAP
FF
B6
F6
BF
F6
B6
B6
B6
ENDCHAR

STARTCHAR jisx0208_344F
ENCODING 13391
SWIDTH 960 0
DWIDTH 8 0
BBX 8 8 0 -2
BITMAP
5B
EF
BC
EF
AC
FF
AB
BF
ENDCHAR

STARTCHAR jisx0208_3450
ENCODING 13392
SWIDTH 960 0
DWIDTH 8 0
BBX 8 8 0 -2
BITMAP
36
FF
36
FF
C1
7F
2D
EF
ENDCHAR

STARTCHAR jisx0208_3451
ENCODING 13393
SWIDTH 960 0
DWIDTH 8 0
BBX 8 8 0 -2
BITMAP
67
7D
B7
7D
D5
7F
57
7B
ENDCHAR

STARTCHAR jisx0208_3452
ENCODING 13394
SWIDTH 960 0
DWIDTH 8 0
BBX 8 8 0 -2
BITMAP
66
FF
15
FF
15
FF
AF
F5
ENDCHAR

STARTCHAR jisx0208_3453
ENCODING 13395
SWIDTH 960 0
DWIDTH 8 0
BBX 8 8 0 -2
BITMAP
7F
FF
5B
7F
63
63
7F
C1
ENDCHAR

STARTCHAR jisx0208_3454
ENCODING 13396
SWIDTH 960 0
DWIDTH 8 0
BBX 8 8 0 -2
BITMAP
BF
2B
7F
1B
DF
5D
6B
BF
ENDCHAR

STARTCHAR jisx0208_3455
ENCODING 13397
SWIDTH 960 0
DWIDTH 8 0
BBX 8 8 0 -2
BITMAP
5B
B7
FE
57
FC
5F
F5
DF
ENDCHAR

STARTCHAR jisx0208_3456
ENCODING 13398
SWIDTH 960 0
DWIDTH 8 0
BBX 8 8 0 -2
BITMAP
F7
B5
F7
BD
AD
BD
AD
BD
ENDCHAR

STARTCHAR jisx0208_3457
ENCODING 13399
SWIDTH 960 0
DWIDTH 8 0
BBX 8 8 0 -2
BITMAP
F7
B5
F7
D9
FD
BD
D5
D9
ENDCHAR

STARTCHAR jisx0208_3458
ENCODING 13400
SWIDTH 960 0
DWIDTH 8 0
BBX 8 8 0 -2
BITMAP
F7
B5
F7
AD
FD
D9
FD
AD
ENDCHAR

STARTCHAR jisx0208_3459
ENCODING 13401
SWIDTH 960 0
DWIDTH 8 0
BBX 8 8 0 -2
BITMAP
F7
AD
BB
E7
B5
B7
D5
D7
ENDCHAR

STARTCHAR jisx0208_345A
ENCODING 13402
SWIDTH 960 0
DWIDTH 8 0
BBX 8 8 0 -2
BITMAP
66
FF
6B
BF
EB
5F
EB
5F
ENDCHAR

STARTCHAR jisx0208_345B
ENCODING 13403
SWIDTH 960 0
DWIDTH 8 0
BBX 8 8 0 -2
BITMAP
66
BF
5B
EF
AC
EF
CD
EF
ENDCHAR

STARTCHAR jisx0208_345C
ENCODING 13404
SWIDTH 960 0
DWIDTH 8 0
BBX 8 8 0 -2
BITMAP
66
BF
EB
6F
EC
6F
AD
EF
ENDCHAR

STARTCHAR jisx0208_345D
ENCODING 13405
SWIDTH 960 0
DWIDTH 8 0
BBX 8 8 0 -2
BITMAP
18
18
FE
16
76
36
55
C7
ENDCHAR

STARTCHAR jisx0208_345E
ENCODING 13406
SWIDTH 960 0
DWIDTH 8 0
BBX 8 8 0 -2
BITMAP
1C
36
7F
C5
0C
7F
63
7F
ENDCHAR

STARTCHAR jisx0208_345F
ENCODING 13407
SWIDTH 960 0
DWIDTH 8 0
BBX 8 8 0 -2
BITMAP
2B
7F
60
5F
66
7F
66
C6
ENDCHAR

STARTCHAR jisx0208_3460
ENCODING 13408
SWIDTH 960 0
DWIDTH 8 0
BBX 8 8 0 -2
BITMAP
6D
7F
35
FF
55
5D
7B
D5
ENDCHAR

STARTCHAR jisx0208_3461
ENCODING 13409
SWIDTH 960 0
DWIDTH 8 0
BBX 8 8 0 -2
BITMAP
EF
60
60
FF
6B
6B
EB
3B
ENDCHAR

STARTCHAR jisx0208_3462
ENCODING 13410
SWIDTH 960 0
DWIDTH 8 0
BBX 8 8 0 -2
BITMAP
0C
7F
6B
DF
55
DF
75
BF
ENDCHAR

STARTCHAR jisx0208_3463
ENCODING 13411
SWIDTH 960 0
DWIDTH 8 0
BBX 8 8 0 -2
BITMAP
EF
AB
EF
AB
EF
AB
AB
ED
ENDCHAR

STARTCHAR jisx0208_3464
ENCODING 13412
SWIDTH 960 0
DWIDTH 8 0
BBX 8 8 0 -2
BITMAP
5B
7F
00
FF
30
7F
B3
3F
ENDCHAR

STARTCHAR jisx0208_3465
ENCODING 13413
SWIDTH 960 0
DWIDTH 8 0
BBX 8 8 0 -2
BITMAP
FF
AC
6C
FF
D7
F7
D7
FB
ENDCHAR

STARTCHAR jisx0208_3466
ENCODING 13414
SWIDTH 960 0
DWIDTH 8 0
BBX 8 8 0 -2
BITMAP
7F
56
5F
76
5F
59
5F
B1
ENDCHAR

STARTCHAR jisx0208_3467
ENCODING 13415
SWIDTH 960 0
DWIDTH 8 0
BBX 8 8 0 -2
BITMAP
7F
55
5B
6F
6B
6F
6B
AF
ENDCHAR

STARTCHAR jisx0208_3468
ENCODING 13416
SWIDTH 960 0
DWIDTH 8 0
BBX 8 8 0 -2
BITMAP
77
03
FF
55
57
55
57
DD
ENDCHAR

STARTCHAR jisx0208_3469
ENCODING 13417
SWIDTH 960 0
DWIDTH 8 0
BBX 8 8 0 -2
BITMAP
37
FB
57
FD
D7
B5
D7
AD
ENDCHAR

STARTCHAR jisx0208_346A
ENCODING 13418
SWIDTH 960 0
DWIDTH 8 0
BBX 8 8 0 -2
BITMAP
F7
B3
F7
D5
F7
B5
F7
AD
ENDCHAR

STARTCHAR jisx0208_346B
ENCODING 13419
SWIDTH 960 0
DWIDTH 8 0
BBX 8 8 0 -2
BITMAP
1C
36
EB
0C
6F
6C
6C
FF
ENDCHAR

STARTCHAR jisx0208_346C
ENCODING 13420
SWIDTH 960 0
DWIDTH 8 0
BBX 8 8 0 -2
BITMAP
36
5F
E6
5F
6D
6D
67
5D
ENDCHAR

STARTCHAR jisx0208_346D
ENCODING 13421
SWIDTH 960 0
DWIDTH 8 0
BBX 8 8 0 -2
BITMAP
3E
66
FF
5B
57
58
59
DF
ENDCHAR

STARTCHAR jisx0208_346E
ENCODING 13422
SWIDTH 960 0
DWIDTH 8 0
BBX 8 8 0 -2
BITMAP
18
FF
7E
66
FF
7E
66
7E
ENDCHAR

STARTCHAR jisx0208_346F
ENCODING 13423
SWIDTH 960 0
DWIDTH 8 0
BBX 8 8 0 -2
BITMAP
EF
AB
EF
18
FF
EF
AB
EF
ENDCHAR

STARTCHAR jisx0208_3470
ENCODING 13424
SWIDTH 960 0
DWIDTH 8 0
BBX 8 8 0 -2
BITMAP
36
FF
3E
36
FF
7B
D9
7F
ENDCHAR

STARTCHAR jisx0208_3471
ENCODING 13425
SWIDTH 960 0
DWIDTH 8 0
BBX 8 8 0 -2
BITMAP
18
FF
36
63
FF
5B
7B
07
ENDCHAR

STARTCHAR jisx0208_3472
ENCODING 13426
SWIDTH 960 0
DWIDTH 8 0
BBX 8 8 0 -2
BITMAP
66
5F
F6
6F
AB
DF
6B
AF
ENDCHAR

STARTCHAR jisx0208_3473
ENCODING 13427
SWIDTH 960 0
DWIDTH 8 0
BBX 8 8 0 -2
BITMAP
0C
FF
DD
36
FF
5B
7B
07
ENDCHAR

STARTCHAR jisx0208_3474
ENCODING 13428
SWIDTH 960 0
DWIDTH 8 0
BBX 8 8 0 -2
BITMAP
63
5F
63
BF
AD
AD
F7
1D
ENDCHAR

STARTCHAR jisx0208_3475
ENCODING 13429
SWIDTH 960 0
DWIDTH 8 0
BBX 8 8 0 -2
BITMAP
3B
0E
FF
1C
7F
ED
6D
0C
ENDCHAR

STARTCHAR jisx0208_3476
ENCODING 13430
SWIDTH 960 0
DWIDTH 8 0
BBX 8 8 0 -2
BITMAP
2B
5D
2B
5D
FF
66
73
D5
ENDCHAR

STARTCHAR jisx0208_3477
ENCODING 13431
SWIDTH 960 0
DWIDTH 8 0
BBX 8 8 0 -2
BITMAP
7E
06
7E
61
7F
2C
B1
BD
ENDCHAR

STARTCHAR jisx0208_3478
ENCODING 13432
SWIDTH 960 0
DWIDTH 8 0
BBX 8 8 0 -2
BITMAP
5F
F5
6F
6B
EF
66
5F
E6
ENDCHAR

STARTCHAR jisx0208_3479
ENCODING 13433
SWIDTH 960 0
DWIDTH 8 0
BBX 8 8 0 -2
BITMAP
6F
EB
6B
EB
EB
6B
6B
5B
ENDCHAR

STARTCHAR jisx0208_347A
ENCODING 13434
SWIDTH 960 0
DWIDTH 8 0
BBX 8 8 0 -2
BITMAP
66
F7
6F
75
57
55
5F
AD
ENDCHAR

STARTCHAR jisx0208_347B
ENCODING 13435
SWIDTH 960 0
DWIDTH 8 0
BBX 8 8 0 -2
BITMAP
FF
AB
EB
BF
F7
C7
AB
DB
ENDCHAR

STARTCHAR jisx0208_347C
ENCODING 13436
SWIDTH 960 0
DWIDTH 8 0
BBX 8 8 0 -2
BITMAP
57
FD
57
75
57
FD
55
CD
ENDCHAR

STARTCHAR jisx0208_347D
ENCODING 13437
SWIDTH 960 0
DWIDTH 8 0
BBX 8 8 0 -2
BITMAP
6B
FF
6B
EF
EB
5F
6B
59
ENDCHAR

STARTCHAR jisx0208_347E
ENCODING 13438
SWIDTH 960 0
DWIDTH 8 0
BBX 8 8 0 -2
BITMAP
18
FF
36
FF
56
FF
56
DB
ENDCHAR

STARTCHAR jisx0208_3521
ENCODING 13601
SWIDTH 960 0
DWIDTH 8 0
BBX 8 8 0 -2
BITMAP
6D
F7
6D
F7
DF
5B
5B
75
ENDCHAR

STARTCHAR jisx0208_3522
ENCODING 13602
SWIDTH 960 0
DWIDTH 8 0
BBX 8 8 0 -2
BITMAP
2F
B3
BF
B5
3F
35
55
C6
ENDCHAR

STARTCHAR jisx0208_3523
ENCODING 13603
SWIDTH 960 0
DWIDTH 8 0
BBX 8 8 0 -2
BITMAP
2F
FB
5B
FC
2F
D5
3B
D5
ENDCHAR

STARTCHAR jisx0208_3524
ENCODING 13604
SWIDTH 960 0
DWIDTH 8 0
BBX 8 8 0 -2
BITMAP
60
7F
BC
00
FF
6B
3B
D9
ENDCHAR

STARTCHAR jisx0208_3525
ENCODING 13605
SWIDTH 960 0
DWIDTH 8 0
BBX 8 8 0 -2
BITMAP
D8
3F
DE
00
3F
63
63
C1
ENDCHAR

STARTCHAR jisx0208_3526
ENCODING 13606
SWIDTH 960 0
DWIDTH 8 0
BBX 8 8 0 -2
BITMAP
56
BB
56
FF
AE
FD
AB
FD
ENDCHAR

STARTCHAR jisx0208_3527
ENCODING 13607
SWIDTH 960 0
DWIDTH 8 0
BBX 8 8 0 -2
BITMAP
63
EE
2C
6F
EB
6B
6B
5B
ENDCHAR

STARTCHAR jisx0208_3528
ENCODING 13608
SWIDTH 960 0
DWIDTH 8 0
BBX 8 8 0 -2
BITMAP
7E
18
FF
56
BB
0C
FF
18
ENDCHAR

STARTCHAR jisx0208_3529
ENCODING 13609
SWIDTH 960 0
DWIDTH 8 0
BBX 8 8 0 -2
BITMAP
2D
E7
6D
FF
66
FF
55
55
ENDCHAR

STARTCHAR jisx0208_352A
ENCODING 13610
SWIDTH 960 0
DWIDTH 8 0
BBX 8 8 0 -2
BITMAP
6F
B1
61
EF
6C
EC
ED
6F
ENDCHAR

STARTCHAR jisx0208_352B
ENCODING 13611
SWIDTH 960 0
DWIDTH 8 0
BBX 8 8 0 -2
BITMAP
5B
B6
7F
D5
6D
7B
5B
55
ENDCHAR

STARTCHAR jisx0208_352C
ENCODING 13612
SWIDTH 960 0
DWIDTH 8 0
BBX 8 8 0 -2
BITMAP
6F
EB
6F
EB
6B
6F
AB
DB
ENDCHAR

STARTCHAR jisx0208_352D
ENCODING 13613
SWIDTH 960 0
DWIDTH 8 0
BBX 8 8 0 -2
BITMAP
6F
F1
01
EF
0C
EC
AD
EF
ENDCHAR

STARTCHAR jisx0208_352E
ENCODING 13614
SWIDTH 960 0
DWIDTH 8 0
BBX 8 8 0 -2
BITMAP
0C
3F
EB
3F
33
33
3F
E1
ENDCHAR

STARTCHAR jisx0208_352F
ENCODING 13615
SWIDTH 960 0
DWIDTH 8 0
BBX 8 8 0 -2
BITMAP
60
EF
63
EF
6D
EF
E0
BF
ENDCHAR

STARTCHAR jisx0208_3530
ENCODING 13616
SWIDTH 960 0
DWIDTH 8 0
BBX 8 8 0 -2
BITMAP
6C
EC
5F
EB
EB
6B
EB
5B
ENDCHAR

STARTCHAR jisx0208_3531
ENCODING 13617
SWIDTH 960 0
DWIDTH 8 0
BBX 8 8 0 -2
BITMAP
5F
F5
6F
FB
6F
76
7F
B6
ENDCHAR

STARTCHAR jisx0208_3532
ENCODING 13618
SWIDTH 960 0
DWIDTH 8 0
BBX 8 8 0 -2
BITMAP
60
AF
6B
EB
AB
EB
AB
DB
ENDCHAR

STARTCHAR jisx0208_3533
ENCODING 13619
SWIDTH 960 0
DWIDTH 8 0
BBX 8 8 0 -2
BITMAP
F6
AF
F7
AD
FF
15
DD
3B
ENDCHAR

STARTCHAR jisx0208_3534
ENCODING 13620
SWIDTH 960 0
DWIDTH 8 0
BBX 8 8 0 -2
BITMAP
30
FF
FF
DB
FF
36
59
DF
ENDCHAR

STARTCHAR jisx0208_3535
ENCODING 13621
SWIDTH 960 0
DWIDTH 8 0
BBX 8 8 0 -2
BITMAP
3C
FE
56
FF
DB
FF
19
1F
ENDCHAR

STARTCHAR jisx0208_3536
ENCODING 13622
SWIDTH 960 0
DWIDTH 8 0
BBX 8 8 0 -2
BITMAP
36
5F
EB
6F
59
7F
61
6B
ENDCHAR

STARTCHAR jisx0208_3537
ENCODING 13623
SWIDTH 960 0
DWIDTH 8 0
BBX 8 8 0 -2
BITMAP
2B
5F
E6
7F
5B
7F
5B
55
ENDCHAR

STARTCHAR jisx0208_3538
ENCODING 13624
SWIDTH 960 0
DWIDTH 8 0
BBX 8 8 0 -2
BITMAP
66
5F
F6
7F
AD
E7
67
AD
ENDCHAR

STARTCHAR jisx0208_3539
ENCODING 13625
SWIDTH 960 0
DWIDTH 8 0
BBX 8 8 0 -2
BITMAP
18
FF
B5
3E
36
3E
36
FF
ENDCHAR

STARTCHAR jisx0208_353A
ENCODING 13626
SWIDTH 960 0
DWIDTH 8 0
BBX 8 8 0 -2
BITMAP
3B
FB
B7
FB
B3
FB
B7
FD
ENDCHAR

STARTCHAR jisx0208_353B
ENCODING 13627
SWIDTH 960 0
DWIDTH 8 0
BBX 8 8 0 -2
BITMAP
66
EF
66
6F
ED
67
67
DD
ENDCHAR

STARTCHAR jisx0208_353C
ENCODING 13628
SWIDTH 960 0
DWIDTH 8 0
BBX 8 8 0 -2
BITMAP
5B
FD
5B
7F
EB
5F
6B
D7
ENDCHAR

STARTCHAR jisx0208_353D
ENCODING 13629
SWIDTH 960 0
DWIDTH 8 0
BBX 8 8 0 -2
BITMAP
56
FF
5B
7B
5B
FB
55
CD
ENDCHAR

STARTCHAR jisx0208_353E
ENCODING 13630
SWIDTH 960 0
DWIDTH 8 0
BBX 8 8 0 -2
BITMAP
EB
FF
66
7F
D6
7F
5B
55
ENDCHAR

STARTCHAR jisx0208_353F
ENCODING 13631
SWIDTH 960 0
DWIDTH 8 0
BBX 8 8 0 -2
BITMAP
D7
F1
DB
7F
B6
FF
2E
DB
ENDCHAR

STARTCHAR jisx0208_3540
ENCODING 13632
SWIDTH 960 0
DWIDTH 8 0
BBX 8 8 0 -2
BITMAP
61
EF
2B
6B
EF
6B
6D
5D
ENDCHAR

STARTCHAR jisx0208_3541
ENCODING 13633
SWIDTH 960 0
DWIDTH 8 0
BBX 8 8 0 -2
BITMAP
36
FF
18
FF
6B
FF
66
DB
ENDCHAR

STARTCHAR jisx0208_3542
ENCODING 13634
SWIDTH 960 0
DWIDTH 8 0
BBX 8 8 0 -2
BITMAP
6B
5F
F6
BF
EB
5F
6B
DD
ENDCHAR

STARTCHAR jisx0208_3543
ENCODING 13635
SWIDTH 960 0
DWIDTH 8 0
BBX 8 8 0 -2
BITMAP
66
FF
19
EF
0B
EF
AB
FF
ENDCHAR

STARTCHAR jisx0208_3544
ENCODING 13636
SWIDTH 960 0
DWIDTH 8 0
BBX 8 8 0 -2
BITMAP
6B
FF
06
FF
1B
FF
AB
FD
ENDCHAR

STARTCHAR jisx0208_3545
ENCODING 13637
SWIDTH 960 0
DWIDTH 8 0
BBX 8 8 0 -2
BITMAP
6C
EF
5B
6D
DF
6D
5B
EB
ENDCHAR

STARTCHAR jisx0208_3546
ENCODING 13638
SWIDTH 960 0
DWIDTH 8 0
BBX 8 8 0 -2
BITMAP
16
FF
56
7F
AB
7D
1D
6B
ENDCHAR

STARTCHAR jisx0208_3547
ENCODING 13639
SWIDTH 960 0
DWIDTH 8 0
BBX 8 8 0 -2
BITMAP
AC
EF
55
EF
F5
5F
F5
67
ENDCHAR

STARTCHAR jisx0208_3548
ENCODING 13640
SWIDTH 960 0
DWIDTH 8 0
BBX 8 8 0 -2
BITMAP
18
FF
18
7F
00
7F
63
7F
ENDCHAR

STARTCHAR jisx0208_3549
ENCODING 13641
SWIDTH 960 0
DWIDTH 8 0
BBX 8 8 0 -2
BITMAP
0C
EF
B8
AF
B3
B6
ED
0F
ENDCHAR

STARTCHAR jisx0208_354A
ENCODING 13642
SWIDTH 960 0
DWIDTH 8 0
BBX 8 8 0 -2
BITMAP
0C
FF
AB
BD
AB
FF
0E
3B
ENDCHAR

STARTCHAR jisx0208_354B
ENCODING 13643
SWIDTH 960 0
DWIDTH 8 0
BBX 8 8 0 -2
BITMAP
66
FF
66
DF
F0
5F
59
5F
ENDCHAR

STARTCHAR jisx0208_354C
ENCODING 13644
SWIDTH 960 0
DWIDTH 8 0
BBX 8 8 0 -2
BITMAP
6F
F6
5F
EB
DF
5B
55
59
ENDCHAR

STARTCHAR jisx0208_354D
ENCODING 13645
SWIDTH 960 0
DWIDTH 8 0
BBX 8 8 0 -2
BITMAP
66
EF
06
EF
00
EF
AD
EF
ENDCHAR

STARTCHAR jisx0208_354E
ENCODING 13646
SWIDTH 960 0
DWIDTH 8 0
BBX 8 8 0 -2
BITMAP
F6
67
66
76
DF
59
59
7F
ENDCHAR

STARTCHAR jisx0208_354F
ENCODING 13647
SWIDTH 960 0
DWIDTH 8 0
BBX 8 8 0 -2
BITMAP
6C
EF
56
F6
DF
66
66
66
ENDCHAR

STARTCHAR jisx0208_3550
ENCODING 13648
SWIDTH 960 0
DWIDTH 8 0
BBX 8 8 0 -2
BITMAP
7E
18
FF
56
BB
5E
3B
D9
ENDCHAR

STARTCHAR jisx0208_3551
ENCODING 13649
SWIDTH 960 0
DWIDTH 8 0
BBX 8 8 0 -2
BITMAP
30
37
F5
35
FD
35
57
F6
ENDCHAR

STARTCHAR jisx0208_3552
ENCODING 13650
SWIDTH 960 0
DWIDTH 8 0
BBX 8 8 0 -2
BITMAP
18
FF
B5
5C
36
FF
63
7F
ENDCHAR

STARTCHAR jisx0208_3553
ENCODING 13651
SWIDTH 960 0
DWIDTH 8 0
BBX 8 8 0 -2
BITMAP
EF
BD
ED
BD
ED
B5
BE
B6
ENDCHAR

STARTCHAR jisx0208_3554
ENCODING 13652
SWIDTH 960 0
DWIDTH 8 0
BBX 8 8 0 -2
BITMAP
0F
7F
6D
7F
6C
5F
58
DF
ENDCHAR

STARTCHAR jisx0208_3555
ENCODING 13653
SWIDTH 960 0
DWIDTH 8 0
BBX 8 8 0 -2
BITMAP
D9
0B
1F
06
D5
5F
6C
BF
ENDCHAR

STARTCHAR jisx0208_3556
ENCODING 13654
SWIDTH 960 0
DWIDTH 8 0
BBX 8 8 0 -2
BITMAP
07
7C
60
7F
6C
6C
6C
FF
ENDCHAR

STARTCHAR jisx0208_3557
ENCODING 13655
SWIDTH 960 0
DWIDTH 8 0
BBX 8 8 0 -2
BITMAP
30
3E
66
C6
0C
1C
36
E3
ENDCHAR

STARTCHAR jisx0208_3558
ENCODING 13656
SWIDTH 960 0
DWIDTH 8 0
BBX 8 8 0 -2
BITMAP
2C
6C
DF
6B
6B
6B
6B
5B
ENDCHAR

STARTCHAR jisx0208_3559
ENCODING 13657
SWIDTH 960 0
DWIDTH 8 0
BBX 8 8 0 -2
BITMAP
36
66
DF
66
6F
6F
55
66
ENDCHAR

STARTCHAR jisx0208_355A
ENCODING 13658
SWIDTH 960 0
DWIDTH 8 0
BBX 8 8 0 -2
BITMAP
FC
2C
2F
33
5B
6E
CE
3B
ENDCHAR

STARTCHAR jisx0208_355B
ENCODING 13659
SWIDTH 960 0
DWIDTH 8 0
BBX 8 8 0 -2
BITMAP
3E
F6
B7
B5
AD
AB
F7
5D
ENDCHAR

STARTCHAR jisx0208_355C
ENCODING 13660
SWIDTH 960 0
DWIDTH 8 0
BBX 8 8 0 -2
BITMAP
18
FF
B5
3E
18
7F
63
7F
ENDCHAR

STARTCHAR jisx0208_355D
ENCODING 13661
SWIDTH 960 0
DWIDTH 8 0
BBX 8 8 0 -2
BITMAP
FF
03
7F
60
7F
61
01
07
ENDCHAR

STARTCHAR jisx0208_355E
ENCODING 13662
SWIDTH 960 0
DWIDTH 8 0
BBX 8 8 0 -2
BITMAP
3C
6C
FF
03
7F
0C
B1
BD
ENDCHAR

STARTCHAR jisx0208_355F
ENCODING 13663
SWIDTH 960 0
DWIDTH 8 0
BBX 8 8 0 -2
BITMAP
36
F6
2F
B5
75
BB
37
6D
ENDCHAR

STARTCHAR jisx0208_3560
ENCODING 13664
SWIDTH 960 0
DWIDTH 8 0
BBX 8 8 0 -2
BITMAP
5F
EC
6C
EF
E1
61
61
67
ENDCHAR

STARTCHAR jisx0208_3561
ENCODING 13665
SWIDTH 960 0
DWIDTH 8 0
BBX 8 8 0 -2
BITMAP
1B
FF
18
5B
36
5B
D9
38
ENDCHAR

STARTCHAR jisx0208_3562
ENCODING 13666
SWIDTH 960 0
DWIDTH 8 0
BBX 8 8 0 -2
BITMAP
BF
1B
DB
17
19
1D
D7
AD
ENDCHAR

STARTCHAR jisx0208_3563
ENCODING 13667
SWIDTH 960 0
DWIDTH 8 0
BBX 8 8 0 -2
BITMAP
CC
0C
BF
03
1B
5B
66
BF
ENDCHAR

STARTCHAR jisx0208_3564
ENCODING 13668
SWIDTH 960 0
DWIDTH 8 0
BBX 8 8 0 -2
BITMAP
3C
EC
36
DB
56
DC
36
E3
ENDCHAR

STARTCHAR jisx0208_3565
ENCODING 13669
SWIDTH 960 0
DWIDTH 8 0
BBX 8 8 0 -2
BITMAP
F5
5F
66
F5
6F
77
E5
0E
ENDCHAR

STARTCHAR jisx0208_3566
ENCODING 13670
SWIDTH 960 0
DWIDTH 8 0
BBX 8 8 0 -2
BITMAP
18
FF
AD
6F
18
FE
35
E7
ENDCHAR

STARTCHAR jisx0208_3567
ENCODING 13671
SWIDTH 960 0
DWIDTH 8 0
BBX 8 8 0 -2
BITMAP
18
FF
AD
7F
59
F7
39
D7
ENDCHAR

STARTCHAR jisx0208_3568
ENCODING 13672
SWIDTH 960 0
DWIDTH 8 0
BBX 8 8 0 -2
BITMAP
66
7F
DB
7E
36
37
6B
D5
ENDCHAR

STARTCHAR jisx0208_3569
ENCODING 13673
SWIDTH 960 0
DWIDTH 8 0
BBX 8 8 0 -2
BITMAP
5F
AB
6B
EB
6D
EB
EB
55
ENDCHAR

STARTCHAR jisx0208_356A
ENCODING 13674
SWIDTH 960 0
DWIDTH 8 0
BBX 8 8 0 -2
BITMAP
63
AB
6B
EB
6B
FF
F3
63
ENDCHAR

STARTCHAR jisx0208_356B
ENCODING 13675
SWIDTH 960 0
DWIDTH 8 0
BBX 8 8 0 -2
BITMAP
66
AB
59
EF
60
EF
EB
6F
ENDCHAR

STARTCHAR jisx0208_356C
ENCODING 13676
SWIDTH 960 0
DWIDTH 8 0
BBX 8 8 0 -2
BITMAP
DF
D9
D9
DF
D9
D9
D9
DF
ENDCHAR

STARTCHAR jisx0208_356D
ENCODING 13677
SWIDTH 960 0
DWIDTH 8 0
BBX 8 8 0 -2
BITMAP
2C
3F
6C
0C
FF
0C
0C
0C
ENDCHAR

STARTCHAR jisx0208_356E
ENCODING 13678
SWIDTH 960 0
DWIDTH 8 0
BBX 8 8 0 -2
BITMAP
18
7F
18
18
FF
18
33
FD
ENDCHAR

STARTCHAR jisx0208_356F
ENCODING 13679
SWIDTH 960 0
DWIDTH 8 0
BBX 8 8 0 -2
BITMAP
7F
63
7F
7F
6C
7F
73
BF
ENDCHAR

STARTCHAR jisx0208_3570
ENCODING 13680
SWIDTH 960 0
DWIDTH 8 0
BBX 8 8 0 -2
BITMAP
FF
C0
FF
C3
FF
C0
C0
FF
ENDCHAR

STARTCHAR jisx0208_3571
ENCODING 13681
SWIDTH 960 0
DWIDTH 8 0
BBX 8 8 0 -2
BITMAP
5F
F8
5F
79
DF
58
58
DF
ENDCHAR

STARTCHAR jisx0208_3572
ENCODING 13682
SWIDTH 960 0
DWIDTH 8 0
BBX 8 8 0 -2
BITMAP
58
F7
5D
75
D5
6D
6E
DB
ENDCHAR

STARTCHAR jisx0208_3573
ENCODING 13683
SWIDTH 960 0
DWIDTH 8 0
BBX 8 8 0 -2
BITMAP
5B
FF
6B
BD
0C
FF
0C
1C
ENDCHAR

STARTCHAR jisx0208_3574
ENCODING 13684
SWIDTH 960 0
DWIDTH 8 0
BBX 8 8 0 -2
BITMAP
BF
33
BF
30
FF
36
5B
D9
ENDCHAR

STARTCHAR jisx0208_3575
ENCODING 13685
SWIDTH 960 0
DWIDTH 8 0
BBX 8 8 0 -2
BITMAP
0F
7F
6D
7C
6F
75
57
BF
ENDCHAR

STARTCHAR jisx0208_3576
ENCODING 13686
SWIDTH 960 0
DWIDTH 8 0
BBX 8 8 0 -2
BITMAP
6C
EF
16
F6
1F
F6
B6
F6
ENDCHAR

STARTCHAR jisx0208_3577
ENCODING 13687
SWIDTH 960 0
DWIDTH 8 0
BBX 8 8 0 -2
BITMAP
EF
AC
EF
6D
6F
EC
EC
EF
ENDCHAR

STARTCHAR jisx0208_3578
ENCODING 13688
SWIDTH 960 0
DWIDTH 8 0
BBX 8 8 0 -2
BITMAP
5F
B9
FF
5F
FB
5F
ED
EF
ENDCHAR

STARTCHAR jisx0208_3579
ENCODING 13689
SWIDTH 960 0
DWIDTH 8 0
BBX 8 8 0 -2
BITMAP
CF
1F
B5
1F
15
5F
60
D5
ENDCHAR

STARTCHAR jisx0208_357A
ENCODING 13690
SWIDTH 960 0
DWIDTH 8 0
BBX 8 8 0 -2
BITMAP
58
BF
55
FD
56
FF
0C
CD
ENDCHAR

STARTCHAR jisx0208_357B
ENCODING 13691
SWIDTH 960 0
DWIDTH 8 0
BBX 8 8 0 -2
BITMAP
3C
6C
FF
5B
7F
5B
7F
AD
ENDCHAR

STARTCHAR jisx0208_357C
ENCODING 13692
SWIDTH 960 0
DWIDTH 8 0
BBX 8 8 0 -2
BITMAP
0C
FF
36
FF
06
0C
0C
1C
ENDCHAR

STARTCHAR jisx0208_357D
ENCODING 13693
SWIDTH 960 0
DWIDTH 8 0
BBX 8 8 0 -2
BITMAP
0C
FF
33
3F
06
FF
0C
1C
ENDCHAR

STARTCHAR jisx0208_357E
ENCODING 13694
SWIDTH 960 0
DWIDTH 8 0
BBX 8 8 0 -2
BITMAP
0C
FF
7F
63
7F
0C
6B
DD
ENDCHAR

STARTCHAR jisx0208_3621
ENCODING 13857
SWIDTH 960 0
DWIDTH 8 0
BBX 8 8 0 -2
BITMAP
2B
6B
DF
6B
6B
5F
6B
59
ENDCHAR

STARTCHAR jisx0208_3622
ENCODING 13858
SWIDTH 960 0
DWIDTH 8 0
BBX 8 8 0 -2
BITMAP
36
5F
E6
55
7F
66
6B
59
ENDCHAR

STARTCHAR jisx0208_3623
ENCODING 13859
SWIDTH 960 0
DWIDTH 8 0
BBX 8 8 0 -2
BITMAP
2F
66
DF
6B
7F
59
55
59
ENDCHAR

STARTCHAR jisx0208_3624
ENCODING 13860
SWIDTH 960 0
DWIDTH 8 0
BBX 8 8 0 -2
BITMAP
AB
DB
AB
C3
FF
2C
6D
CF
ENDCHAR

STARTCHAR jisx0208_3625
ENCODING 13861
SWIDTH 960 0
DWIDTH 8 0
BBX 8 8 0 -2
BITMAP
36
FF
5B
FF
5B
7F
77
BB
ENDCHAR

STARTCHAR jisx0208_3626
ENCODING 13862
SWIDTH 960 0
DWIDTH 8 0
BBX 8 8 0 -2
BITMAP
36
36
FF
36
36
FF
36
E3
ENDCHAR

STARTCHAR jisx0208_3627
ENCODING 13863
SWIDTH 960 0
DWIDTH 8 0
BBX 8 8 0 -2
BITMAP
06
B5
DD
DD
B5
E1
C1
FF
ENDCHAR

STARTCHAR jisx0208_3628
ENCODING 13864
SWIDTH 960 0
DWIDTH 8 0
BBX 8 8 0 -2
BITMAP
6C
5F
EB
56
7F
55
55
6B
ENDCHAR

STARTCHAR jisx0208_3629
ENCODING 13865
SWIDTH 960 0
DWIDTH 8 0
BBX 8 8 0 -2
BITMAP
FF
BF
CC
BF
CC
BF
C0
FF
ENDCHAR

STARTCHAR jisx0208_362A
ENCODING 13866
SWIDTH 960 0
DWIDTH 8 0
BBX 8 8 0 -2
BITMAP
7F
AD
BD
AD
BD
F5
6E
B6
ENDCHAR

STARTCHAR jisx0208_362B
ENCODING 13867
SWIDTH 960 0
DWIDTH 8 0
BBX 8 8 0 -2
BITMAP
03
EB
AB
AB
AB
EF
1B
03
ENDCHAR

STARTCHAR jisx0208_362C
ENCODING 13868
SWIDTH 960 0
DWIDTH 8 0
BBX 8 8 0 -2
BITMAP
7E
18
FF
66
FF
AB
BB
C3
ENDCHAR

STARTCHAR jisx0208_362D
ENCODING 13869
SWIDTH 960 0
DWIDTH 8 0
BBX 8 8 0 -2
BITMAP
66
5F
EB
5F
59
7F
EB
3B
ENDCHAR

STARTCHAR jisx0208_362E
ENCODING 13870
SWIDTH 960 0
DWIDTH 8 0
BBX 8 8 0 -2
BITMAP
66
5F
66
B5
BF
B6
EB
19
ENDCHAR

STARTCHAR jisx0208_362F
ENCODING 13871
SWIDTH 960 0
DWIDTH 8 0
BBX 8 8 0 -2
BITMAP
EB
3F
F6
DF
F5
3F
35
DF
ENDCHAR

STARTCHAR jisx0208_3630
ENCODING 13872
SWIDTH 960 0
DWIDTH 8 0
BBX 8 8 0 -2
BITMAP
FF
2B
EB
DF
FF
2B
2B
DF
ENDCHAR

STARTCHAR jisx0208_3631
ENCODING 13873
SWIDTH 960 0
DWIDTH 8 0
BBX 8 8 0 -2
BITMAP
66
66
FF
E6
5F
66
6B
5D
ENDCHAR

STARTCHAR jisx0208_3632
ENCODING 13874
SWIDTH 960 0
DWIDTH 8 0
BBX 8 8 0 -2
BITMAP
EF
6B
6F
DB
00
2C
B1
BD
ENDCHAR

STARTCHAR jisx0208_3633
ENCODING 13875
SWIDTH 960 0
DWIDTH 8 0
BBX 8 8 0 -2
BITMAP
36
7F
36
FF
66
DB
56
D5
ENDCHAR

STARTCHAR jisx0208_3634
ENCODING 13876
SWIDTH 960 0
DWIDTH 8 0
BBX 8 8 0 -2
BITMAP
66
EF
66
75
DF
66
6B
D9
ENDCHAR

STARTCHAR jisx0208_3635
ENCODING 13877
SWIDTH 960 0
DWIDTH 8 0
BBX 8 8 0 -2
BITMAP
56
F6
77
FD
55
B3
77
2D
ENDCHAR

STARTCHAR jisx0208_3636
ENCODING 13878
SWIDTH 960 0
DWIDTH 8 0
BBX 8 8 0 -2
BITMAP
6F
F6
5F
EB
DF
59
55
59
ENDCHAR

STARTCHAR jisx0208_3637
ENCODING 13879
SWIDTH 960 0
DWIDTH 8 0
BBX 8 8 0 -2
BITMAP
BF
33
33
BF
16
56
55
B7
ENDCHAR

STARTCHAR jisx0208_3638
ENCODING 13880
SWIDTH 960 0
DWIDTH 8 0
BBX 8 8 0 -2
BITMAP
5F
36
76
BF
76
B6
36
5F
ENDCHAR

STARTCHAR jisx0208_3639
ENCODING 13881
SWIDTH 960 0
DWIDTH 8 0
BBX 8 8 0 -2
BITMAP
66
3F
76
B5
7F
B6
2B
59
ENDCHAR

STARTCHAR jisx0208_363A
ENCODING 13882
SWIDTH 960 0
DWIDTH 8 0
BBX 8 8 0 -2
BITMAP
CF
F6
5F
EB
5F
59
B5
D9
ENDCHAR

STARTCHAR jisx0208_363B
ENCODING 13883
SWIDTH 960 0
DWIDTH 8 0
BBX 8 8 0 -2
BITMAP
EC
AF
F9
AD
EB
AD
AF
B3
ENDCHAR

STARTCHAR jisx0208_363C
ENCODING 13884
SWIDTH 960 0
DWIDTH 8 0
BBX 8 8 0 -2
BITMAP
7F
1B
FF
55
BF
33
3F
33
ENDCHAR

STARTCHAR jisx0208_363D
ENCODING 13885
SWIDTH 960 0
DWIDTH 8 0
BBX 8 8 0 -2
BITMAP
30
5F
7B
5F
7B
57
FF
63
ENDCHAR

STARTCHAR jisx0208_363E
ENCODING 13886
SWIDTH 960 0
DWIDTH 8 0
BBX 8 8 0 -2
BITMAP
36
FF
36
FF
2B
FF
55
5D
ENDCHAR

STARTCHAR jisx0208_363F
ENCODING 13887
SWIDTH 960 0
DWIDTH 8 0
BBX 8 8 0 -2
BITMAP
7F
55
BD
57
DD
D5
7F
C6
ENDCHAR

STARTCHAR jisx0208_3640
ENCODING 13888
SWIDTH 960 0
DWIDTH 8 0
BBX 8 8 0 -2
BITMAP
66
BF
EB
5F
EB
6F
EB
DB
ENDCHAR

STARTCHAR jisx0208_3641
ENCODING 13889
SWIDTH 960 0
DWIDTH 8 0
BBX 8 8 0 -2
BITMAP
5F
B5
5F
75
DF
7F
63
7F
ENDCHAR

STARTCHAR jisx0208_3642
ENCODING 13890
SWIDTH 960 0
DWIDTH 8 0
BBX 8 8 0 -2
BITMAP
5F
BD
57
BF
73
BF
37
7D
ENDCHAR

STARTCHAR jisx0208_3643
ENCODING 13891
SWIDTH 960 0
DWIDTH 8 0
BBX 8 8 0 -2
BITMAP
56
FF
55
BF
2D
3F
01
AB
ENDCHAR

STARTCHAR jisx0208_3644
ENCODING 13892
SWIDTH 960 0
DWIDTH 8 0
BBX 8 8 0 -2
BITMAP
2C
57
D5
55
55
5D
75
66
ENDCHAR

STARTCHAR jisx0208_3645
ENCODING 13893
SWIDTH 960 0
DWIDTH 8 0
BBX 8 8 0 -2
BITMAP
37
BD
73
3F
33
7B
57
AB
ENDCHAR

STARTCHAR jisx0208_3646
ENCODING 13894
SWIDTH 960 0
DWIDTH 8 0
BBX 8 8 0 -2
BITMAP
18
FF
56
FF
66
FF
2C
EF
ENDCHAR

STARTCHAR jisx0208_3647
ENCODING 13895
SWIDTH 960 0
DWIDTH 8 0
BBX 8 8 0 -2
BITMAP
06
EF
B6
FF
AB
BF
EB
3B
ENDCHAR

STARTCHAR jisx0208_3648
ENCODING 13896
SWIDTH 960 0
DWIDTH 8 0
BBX 8 8 0 -2
BITMAP
55
FF
16
7F
0C
FF
2B
ED
ENDCHAR

STARTCHAR jisx0208_3649
ENCODING 13897
SWIDTH 960 0
DWIDTH 8 0
BBX 8 8 0 -2
BITMAP
7F
63
7F
61
5D
55
5D
C3
ENDCHAR

STARTCHAR jisx0208_364A
ENCODING 13898
SWIDTH 960 0
DWIDTH 8 0
BBX 8 8 0 -2
BITMAP
36
36
FF
B5
FF
B5
B5
FF
ENDCHAR

STARTCHAR jisx0208_364B
ENCODING 13899
SWIDTH 960 0
DWIDTH 8 0
BBX 8 8 0 -2
BITMAP
5F
EC
6F
FD
D7
5D
66
5F
ENDCHAR

STARTCHAR jisx0208_364C
ENCODING 13900
SWIDTH 960 0
DWIDTH 8 0
BBX 8 8 0 -2
BITMAP
FF
18
18
FF
18
1B
18
FF
ENDCHAR

STARTCHAR jisx0208_364D
ENCODING 13901
SWIDTH 960 0
DWIDTH 8 0
BBX 8 8 0 -2
BITMAP
5F
F9
5D
F9
DD
55
5D
59
ENDCHAR

STARTCHAR jisx0208_364E
ENCODING 13902
SWIDTH 960 0
DWIDTH 8 0
BBX 8 8 0 -2
BITMAP
63
EE
66
F6
5F
F6
66
66
ENDCHAR

STARTCHAR jisx0208_364F
ENCODING 13903
SWIDTH 960 0
DWIDTH 8 0
BBX 8 8 0 -2
BITMAP
2B
5F
EB
5F
55
5F
66
5F
ENDCHAR

STARTCHAR jisx0208_3650
ENCODING 13904
SWIDTH 960 0
DWIDTH 8 0
BBX 8 8 0 -2
BITMAP
5B
FB
57
FB
AB
FD
35
EB
ENDCHAR

STARTCHAR jisx0208_3651
ENCODING 13905
SWIDTH 960 0
DWIDTH 8 0
BBX 8 8 0 -2
BITMAP
6C
6F
F9
6D
63
6D
E1
07
ENDCHAR

STARTCHAR jisx0208_3652
ENCODING 13906
SWIDTH 960 0
DWIDTH 8 0
BBX 8 8 0 -2
BITMAP
18
FF
D9
D9
D9
D9
DB
18
ENDCHAR

STARTCHAR jisx0208_3653
ENCODING 13907
SWIDTH 960 0
DWIDTH 8 0
BBX 8 8 0 -2
BITMAP
66
AF
ED
6F
F6
5F
F5
D5
ENDCHAR

STARTCHAR jisx0208_3654
ENCODING 13908
SWIDTH 960 0
DWIDTH 8 0
BBX 8 8 0 -2
BITMAP
07
7C
60
7F
66
66
66
C6
ENDCHAR

STARTCHAR jisx0208_3655
ENCODING 13909
SWIDTH 960 0
DWIDTH 8 0
BBX 8 8 0 -2
BITMAP
2C
EC
CF
F5
B6
B6
AB
B9
ENDCHAR

STARTCHAR jisx0208_3656
ENCODING 13910
SWIDTH 960 0
DWIDTH 8 0
BBX 8 8 0 -2
BITMAP
6C
AC
EF
55
F6
66
EB
D9
ENDCHAR

STARTCHAR jisx0208_3657
ENCODING 13911
SWIDTH 960 0
DWIDTH 8 0
BBX 8 8 0 -2
BITMAP
FF
36
FF
1C
36
DF
06
0C
ENDCHAR

STARTCHAR jisx0208_3658
ENCODING 13912
SWIDTH 960 0
DWIDTH 8 0
BBX 8 8 0 -2
BITMAP
33
FF
77
BB
00
FF
18
DB
ENDCHAR

STARTCHAR jisx0208_3659
ENCODING 13913
SWIDTH 960 0
DWIDTH 8 0
BBX 8 8 0 -2
BITMAP
1C
36
FF
36
FF
D9
BD
C3
ENDCHAR

STARTCHAR jisx0208_365A
ENCODING 13914
SWIDTH 960 0
DWIDTH 8 0
BBX 8 8 0 -2
BITMAP
66
7F
B3
7F
55
75
55
5B
ENDCHAR

STARTCHAR jisx0208_365B
ENCODING 13915
SWIDTH 960 0
DWIDTH 8 0
BBX 8 8 0 -2
BITMAP
F7
B5
FB
B5
F6
2B
FF
6D
ENDCHAR

STARTCHAR jisx0208_365C
ENCODING 13916
SWIDTH 960 0
DWIDTH 8 0
BBX 8 8 0 -2
BITMAP
36
FF
36
7F
60
7F
66
C6
ENDCHAR

STARTCHAR jisx0208_365D
ENCODING 13917
SWIDTH 960 0
DWIDTH 8 0
BBX 8 8 0 -2
BITMAP
36
FF
36
7F
6D
5D
6D
7F
ENDCHAR

STARTCHAR jisx0208_365E
ENCODING 13918
SWIDTH 960 0
DWIDTH 8 0
BBX 8 8 0 -2
BITMAP
66
EB
35
60
EF
71
63
66
ENDCHAR

STARTCHAR jisx0208_365F
ENCODING 13919
SWIDTH 960 0
DWIDTH 8 0
BBX 8 8 0 -2
BITMAP
6B
FF
2B
5F
F0
7F
66
55
ENDCHAR

STARTCHAR jisx0208_3660
ENCODING 13920
SWIDTH 960 0
DWIDTH 8 0
BBX 8 8 0 -2
BITMAP
6B
FF
0B
FF
15
FF
B6
FF
ENDCHAR

STARTCHAR jisx0208_3661
ENCODING 13921
SWIDTH 960 0
DWIDTH 8 0
BBX 8 8 0 -2
BITMAP
C3
1E
18
1F
DB
73
63
BF
ENDCHAR

STARTCHAR jisx0208_3662
ENCODING 13922
SWIDTH 960 0
DWIDTH 8 0
BBX 8 8 0 -2
BITMAP
1C
36
7F
D9
7F
18
56
FF
ENDCHAR

STARTCHAR jisx0208_3663
ENCODING 13923
SWIDTH 960 0
DWIDTH 8 0
BBX 8 8 0 -2
BITMAP
06
EB
B5
B0
BF
B1
F3
06
ENDCHAR

STARTCHAR jisx0208_3664
ENCODING 13924
SWIDTH 960 0
DWIDTH 8 0
BBX 8 8 0 -2
BITMAP
6F
AB
EF
6B
EF
6B
EB
DD
ENDCHAR

STARTCHAR jisx0208_3665
ENCODING 13925
SWIDTH 960 0
DWIDTH 8 0
BBX 8 8 0 -2
BITMAP
18
18
FE
16
36
36
65
C7
ENDCHAR

STARTCHAR jisx0208_3666
ENCODING 13926
SWIDTH 960 0
DWIDTH 8 0
BBX 8 8 0 -2
BITMAP
3F
5B
DF
5B
5B
7F
5B
71
ENDCHAR

STARTCHAR jisx0208_3667
ENCODING 13927
SWIDTH 960 0
DWIDTH 8 0
BBX 8 8 0 -2
BITMAP
30
3F
61
BD
2D
3D
01
07
ENDCHAR

STARTCHAR jisx0208_3668
ENCODING 13928
SWIDTH 960 0
DWIDTH 8 0
BBX 8 8 0 -2
BITMAP
FF
C0
DB
CE
CE
BB
C0
FF
ENDCHAR

STARTCHAR jisx0208_3669
ENCODING 13929
SWIDTH 960 0
DWIDTH 8 0
BBX 8 8 0 -2
BITMAP
58
3F
71
BD
75
BD
31
73
ENDCHAR

STARTCHAR jisx0208_366A
ENCODING 13930
SWIDTH 960 0
DWIDTH 8 0
BBX 8 8 0 -2
BITMAP
EC
6F
5B
F3
66
76
EB
19
ENDCHAR

STARTCHAR jisx0208_366B
ENCODING 13931
SWIDTH 960 0
DWIDTH 8 0
BBX 8 8 0 -2
BITMAP
6F
7C
AF
2D
FF
2C
5C
CF
ENDCHAR

STARTCHAR jisx0208_366C
ENCODING 13932
SWIDTH 960 0
DWIDTH 8 0
BBX 8 8 0 -2
BITMAP
36
FF
36
FF
18
7F
63
7F
ENDCHAR

STARTCHAR jisx0208_366D
ENCODING 13933
SWIDTH 960 0
DWIDTH 8 0
BBX 8 8 0 -2
BITMAP
6F
EC
AD
EB
AB
FD
6C
AF
ENDCHAR

STARTCHAR jisx0208_366E
ENCODING 13934
SWIDTH 960 0
DWIDTH 8 0
BBX 8 8 0 -2
BITMAP
FF
AC
FD
AB
FB
1D
DC
2F
ENDCHAR

STARTCHAR jisx0208_366F
ENCODING 13935
SWIDTH 960 0
DWIDTH 8 0
BBX 8 8 0 -2
BITMAP
FB
AE
FC
AF
FB
1B
DB
2F
ENDCHAR

STARTCHAR jisx0208_3670
ENCODING 13936
SWIDTH 960 0
DWIDTH 8 0
BBX 8 8 0 -2
BITMAP
FC
AF
F9
BD
F5
1D
D9
37
ENDCHAR

STARTCHAR jisx0208_3671
ENCODING 13937
SWIDTH 960 0
DWIDTH 8 0
BBX 8 8 0 -2
BITMAP
3F
33
3F
33
33
FF
33
61
ENDCHAR

STARTCHAR jisx0208_3672
ENCODING 13938
SWIDTH 960 0
DWIDTH 8 0
BBX 8 8 0 -2
BITMAP
7E
56
FF
DB
BB
00
AD
BD
ENDCHAR

STARTCHAR jisx0208_3673
ENCODING 13939
SWIDTH 960 0
DWIDTH 8 0
BBX 8 8 0 -2
BITMAP
0F
7F
6D
7F
5E
57
7F
DB
ENDCHAR

STARTCHAR jisx0208_3674
ENCODING 13940
SWIDTH 960 0
DWIDTH 8 0
BBX 8 8 0 -2
BITMAP
06
EB
B5
AF
AB
EF
0B
1D
ENDCHAR

STARTCHAR jisx0208_3675
ENCODING 13941
SWIDTH 960 0
DWIDTH 8 0
BBX 8 8 0 -2
BITMAP
18
FF
AD
6F
C0
7F
18
FF
ENDCHAR

STARTCHAR jisx0208_3676
ENCODING 13942
SWIDTH 960 0
DWIDTH 8 0
BBX 8 8 0 -2
BITMAP
3F
6B
FF
6B
7F
6D
5D
61
ENDCHAR

STARTCHAR jisx0208_3677
ENCODING 13943
SWIDTH 960 0
DWIDTH 8 0
BBX 8 8 0 -2
BITMAP
18
FF
D5
7E
56
FF
D9
BD
ENDCHAR

STARTCHAR jisx0208_3678
ENCODING 13944
SWIDTH 960 0
DWIDTH 8 0
BBX 8 8 0 -2
BITMAP
DF
15
1F
06
DF
55
59
BF
ENDCHAR

STARTCHAR jisx0208_3679
ENCODING 13945
SWIDTH 960 0
DWIDTH 8 0
BBX 8 8 0 -2
BITMAP
FF
B5
BF
E6
BF
B5
DD
D9
ENDCHAR

STARTCHAR jisx0208_367A
ENCODING 13946
SWIDTH 960 0
DWIDTH 8 0
BBX 8 8 0 -2
BITMAP
0C
7F
6B
7F
FF
CD
FF
0C
ENDCHAR

STARTCHAR jisx0208_367B
ENCODING 13947
SWIDTH 960 0
DWIDTH 8 0
BBX 8 8 0 -2
BITMAP
6B
FF
56
FF
D5
5D
75
66
ENDCHAR

STARTCHAR jisx0208_367C
ENCODING 13948
SWIDTH 960 0
DWIDTH 8 0
BBX 8 8 0 -2
BITMAP
6D
AD
ED
6D
ED
6D
ED
D9
ENDCHAR

STARTCHAR jisx0208_367D
ENCODING 13949
SWIDTH 960 0
DWIDTH 8 0
BBX 8 8 0 -2
BITMAP
7F
61
7F
55
5F
59
5F
D9
ENDCHAR

STARTCHAR jisx0208_367E
ENCODING 13950
SWIDTH 960 0
DWIDTH 8 0
BBX 8 8 0 -2
BITMAP
7F
61
7F
66
55
5F
75
BF
ENDCHAR

STARTCHAR jisx0208_3721
ENCODING 14113
SWIDTH 960 0
DWIDTH 8 0
BBX 8 8 0 -2
BITMAP
5F
F9
5F
75
DF
56
75
DF
ENDCHAR

STARTCHAR jisx0208_3722
ENCODING 14114
SWIDTH 960 0
DWIDTH 8 0
BBX 8 8 0 -2
BITMAP
18
FF
B5
7F
63
7F
6D
BF
ENDCHAR

STARTCHAR jisx0208_3723
ENCODING 14115
SWIDTH 960 0
DWIDTH 8 0
BBX 8 8 0 -2
BITMAP
18
FD
37
5B
D9
7F
63
7F
ENDCHAR

STARTCHAR jisx0208_3724
ENCODING 14116
SWIDTH 960 0
DWIDTH 8 0
BBX 8 8 0 -2
BITMAP
AB
EB
6B
FB
EB
6B
EB
6B
ENDCHAR

STARTCHAR jisx0208_3725
ENCODING 14117
SWIDTH 960 0
DWIDTH 8 0
BBX 8 8 0 -2
BITMAP
5B
BD
6B
FF
5B
7F
63
7F
ENDCHAR

STARTCHAR jisx0208_3726
ENCODING 14118
SWIDTH 960 0
DWIDTH 8 0
BBX 8 8 0 -2
BITMAP
18
FF
B5
5F
C6
1F
C6
BF
ENDCHAR

STARTCHAR jisx0208_3727
ENCODING 14119
SWIDTH 960 0
DWIDTH 8 0
BBX 8 8 0 -2
BITMAP
36
57
F6
57
76
57
00
D5
ENDCHAR

STARTCHAR jisx0208_3728
ENCODING 14120
SWIDTH 960 0
DWIDTH 8 0
BBX 8 8 0 -2
BITMAP
FF
B5
BF
D5
BF
B5
DB
BD
ENDCHAR

STARTCHAR jisx0208_3729
ENCODING 14121
SWIDTH 960 0
DWIDTH 8 0
BBX 8 8 0 -2
BITMAP
3E
E6
1C
F7
1B
56
FF
56
ENDCHAR

STARTCHAR jisx0208_372A
ENCODING 14122
SWIDTH 960 0
DWIDTH 8 0
BBX 8 8 0 -2
BITMAP
FF
7F
5B
7F
18
FF
56
DB
ENDCHAR

STARTCHAR jisx0208_372B
ENCODING 14123
SWIDTH 960 0
DWIDTH 8 0
BBX 8 8 0 -2
BITMAP
6F
AB
5F
F5
5F
EF
F5
66
ENDCHAR

STARTCHAR jisx0208_372C
ENCODING 14124
SWIDTH 960 0
DWIDTH 8 0
BBX 8 8 0 -2
BITMAP
7E
2C
FF
55
3B
FF
56
DB
ENDCHAR

STARTCHAR jisx0208_372D
ENCODING 14125
SWIDTH 960 0
DWIDTH 8 0
BBX 8 8 0 -2
BITMAP
67
BB
EB
5F
EB
5B
ED
ED
ENDCHAR

STARTCHAR jisx0208_372E
ENCODING 14126
SWIDTH 960 0
DWIDTH 8 0
BBX 8 8 0 -2
BITMAP
76
2F
F5
AD
FD
3B
F0
D5
ENDCHAR

STARTCHAR jisx0208_372F
ENCODING 14127
SWIDTH 960 0
DWIDTH 8 0
BBX 8 8 0 -2
BITMAP
7F
1B
FF
7F
30
7F
B3
3F
ENDCHAR

STARTCHAR jisx0208_3730
ENCODING 14128
SWIDTH 960 0
DWIDTH 8 0
BBX 8 8 0 -2
BITMAP
2C
FF
18
FF
7F
5B
FF
D5
ENDCHAR

STARTCHAR jisx0208_3731
ENCODING 14129
SWIDTH 960 0
DWIDTH 8 0
BBX 8 8 0 -2
BITMAP
6D
ED
0D
ED
0D
ED
AD
F9
ENDCHAR

STARTCHAR jisx0208_3732
ENCODING 14130
SWIDTH 960 0
DWIDTH 8 0
BBX 8 8 0 -2
BITMAP
F5
5F
FB
F7
63
F7
5B
7B
ENDCHAR

STARTCHAR jisx0208_3733
ENCODING 14131
SWIDTH 960 0
DWIDTH 8 0
BBX 8 8 0 -2
BITMAP
FF
D9
FF
56
7E
56
FF
18
ENDCHAR

STARTCHAR jisx0208_3734
ENCODING 14132
SWIDTH 960 0
DWIDTH 8 0
BBX 8 8 0 -2
BITMAP
F7
55
FD
F7
65
F5
57
76
ENDCHAR

STARTCHAR jisx0208_3735
ENCODING 14133
SWIDTH 960 0
DWIDTH 8 0
BBX 8 8 0 -2
BITMAP
36
F6
36
FF
35
F6
36
F6
ENDCHAR

STARTCHAR jisx0208_3736
ENCODING 14134
SWIDTH 960 0
DWIDTH 8 0
BBX 8 8 0 -2
BITMAP
60
F7
55
B7
18
FF
76
BB
ENDCHAR

STARTCHAR jisx0208_3737
ENCODING 14135
SWIDTH 960 0
DWIDTH 8 0
BBX 8 8 0 -2
BITMAP
37
F5
15
37
75
B5
37
36
ENDCHAR

STARTCHAR jisx0208_3738
ENCODING 14136
SWIDTH 960 0
DWIDTH 8 0
BBX 8 8 0 -2
BITMAP
33
5E
EB
66
5F
66
55
55
ENDCHAR

STARTCHAR jisx0208_3739
ENCODING 14137
SWIDTH 960 0
DWIDTH 8 0
BBX 8 8 0 -2
BITMAP
37
5B
D7
5D
57
55
5F
6D
ENDCHAR

STARTCHAR jisx0208_373A
ENCODING 14138
SWIDTH 960 0
DWIDTH 8 0
BBX 8 8 0 -2
BITMAP
FD
55
55
FD
55
55
59
DB
ENDCHAR

STARTCHAR jisx0208_373B
ENCODING 14139
SWIDTH 960 0
DWIDTH 8 0
BBX 8 8 0 -2
BITMAP
7F
63
63
7F
2C
2C
2D
EF
ENDCHAR

STARTCHAR jisx0208_373C
ENCODING 14140
SWIDTH 960 0
DWIDTH 8 0
BBX 8 8 0 -2
BITMAP
F6
F7
DD
FB
C5
7F
63
7F
ENDCHAR

STARTCHAR jisx0208_373D
ENCODING 14141
SWIDTH 960 0
DWIDTH 8 0
BBX 8 8 0 -2
BITMAP
18
7F
18
FF
18
7F
18
FF
ENDCHAR

STARTCHAR jisx0208_373E
ENCODING 14142
SWIDTH 960 0
DWIDTH 8 0
BBX 8 8 0 -2
BITMAP
F6
5F
66
FF
66
7F
E6
1F
ENDCHAR

STARTCHAR jisx0208_373F
ENCODING 14143
SWIDTH 960 0
DWIDTH 8 0
BBX 8 8 0 -2
BITMAP
FD
55
FD
55
DD
7F
0C
FF
ENDCHAR

STARTCHAR jisx0208_3740
ENCODING 14144
SWIDTH 960 0
DWIDTH 8 0
BBX 8 8 0 -2
BITMAP
60
FF
65
ED
5B
FF
36
E3
ENDCHAR

STARTCHAR jisx0208_3741
ENCODING 14145
SWIDTH 960 0
DWIDTH 8 0
BBX 8 8 0 -2
BITMAP
FD
57
58
FD
57
58
59
D7
ENDCHAR

STARTCHAR jisx0208_3742
ENCODING 14146
SWIDTH 960 0
DWIDTH 8 0
BBX 8 8 0 -2
BITMAP
5F
AD
67
DD
66
5F
66
5F
ENDCHAR

STARTCHAR jisx0208_3743
ENCODING 14147
SWIDTH 960 0
DWIDTH 8 0
BBX 8 8 0 -2
BITMAP
18
FF
5B
5B
7F
2C
B1
BD
ENDCHAR

STARTCHAR jisx0208_3744
ENCODING 14148
SWIDTH 960 0
DWIDTH 8 0
BBX 8 8 0 -2
BITMAP
0C
7F
55
7F
6F
5B
76
DB
ENDCHAR

STARTCHAR jisx0208_3745
ENCODING 14149
SWIDTH 960 0
DWIDTH 8 0
BBX 8 8 0 -2
BITMAP
36
FF
36
FF
03
7F
AD
BD
ENDCHAR

STARTCHAR jisx0208_3746
ENCODING 14150
SWIDTH 960 0
DWIDTH 8 0
BBX 8 8 0 -2
BITMAP
F6
6F
FD
AF
ED
0F
AB
BD
ENDCHAR

STARTCHAR jisx0208_3747
ENCODING 14151
SWIDTH 960 0
DWIDTH 8 0
BBX 8 8 0 -2
BITMAP
5F
FB
5F
7B
DF
75
5D
DF
ENDCHAR

STARTCHAR jisx0208_3748
ENCODING 14152
SWIDTH 960 0
DWIDTH 8 0
BBX 8 8 0 -2
BITMAP
6B
FF
56
7F
DF
6B
6D
DB
ENDCHAR

STARTCHAR jisx0208_3749
ENCODING 14153
SWIDTH 960 0
DWIDTH 8 0
BBX 8 8 0 -2
BITMAP
56
FE
57
FD
ED
AB
EB
15
ENDCHAR

STARTCHAR jisx0208_374A
ENCODING 14154
SWIDTH 960 0
DWIDTH 8 0
BBX 8 8 0 -2
BITMAP
7F
7F
63
FF
63
7F
18
D9
ENDCHAR

STARTCHAR jisx0208_374B
ENCODING 14155
SWIDTH 960 0
DWIDTH 8 0
BBX 8 8 0 -2
BITMAP
66
FF
66
FF
E6
5F
66
5F
ENDCHAR

STARTCHAR jisx0208_374C
ENCODING 14156
SWIDTH 960 0
DWIDTH 8 0
BBX 8 8 0 -2
BITMAP
C7
3D
AB
1F
0C
3F
CE
BB
ENDCHAR

STARTCHAR jisx0208_374D
ENCODING 14157
SWIDTH 960 0
DWIDTH 8 0
BBX 8 8 0 -2
BITMAP
F6
DF
D6
FF
D6
DF
F6
1F
ENDCHAR

STARTCHAR jisx0208_374E
ENCODING 14158
SWIDTH 960 0
DWIDTH 8 0
BBX 8 8 0 -2
BITMAP
35
DF
67
FB
58
FF
5B
5F
ENDCHAR

STARTCHAR jisx0208_374F
ENCODING 14159
SWIDTH 960 0
DWIDTH 8 0
BBX 8 8 0 -2
BITMAP
0F
F6
2C
1B
FF
18
5B
D9
ENDCHAR

STARTCHAR jisx0208_3750
ENCODING 14160
SWIDTH 960 0
DWIDTH 8 0
BBX 8 8 0 -2
BITMAP
5F
AD
67
ED
66
EF
F6
5F
ENDCHAR

STARTCHAR jisx0208_3751
ENCODING 14161
SWIDTH 960 0
DWIDTH 8 0
BBX 8 8 0 -2
BITMAP
6B
AF
6B
EF
6B
ED
EC
6F
ENDCHAR

STARTCHAR jisx0208_3752
ENCODING 14162
SWIDTH 960 0
DWIDTH 8 0
BBX 8 8 0 -2
BITMAP
2F
FB
5F
F7
2D
5B
FF
56
ENDCHAR

STARTCHAR jisx0208_3753
ENCODING 14163
SWIDTH 960 0
DWIDTH 8 0
BBX 8 8 0 -2
BITMAP
FF
B5
FF
33
FB
7B
33
FB
ENDCHAR

STARTCHAR jisx0208_3754
ENCODING 14164
SWIDTH 960 0
DWIDTH 8 0
BBX 8 8 0 -2
BITMAP
2C
FF
2C
7F
36
DB
18
FF
ENDCHAR

STARTCHAR jisx0208_3755
ENCODING 14165
SWIDTH 960 0
DWIDTH 8 0
BBX 8 8 0 -2
BITMAP
36
FF
36
FD
55
FD
55
D9
ENDCHAR

STARTCHAR jisx0208_3756
ENCODING 14166
SWIDTH 960 0
DWIDTH 8 0
BBX 8 8 0 -2
BITMAP
5B
FF
D9
7F
5B
7F
1B
FD
ENDCHAR

STARTCHAR jisx0208_3757
ENCODING 14167
SWIDTH 960 0
DWIDTH 8 0
BBX 8 8 0 -2
BITMAP
66
F6
1F
F6
06
F6
B6
F6
ENDCHAR

STARTCHAR jisx0208_3758
ENCODING 14168
SWIDTH 960 0
DWIDTH 8 0
BBX 8 8 0 -2
BITMAP
6D
EF
0C
EF
0D
EF
AD
EF
ENDCHAR

STARTCHAR jisx0208_3759
ENCODING 14169
SWIDTH 960 0
DWIDTH 8 0
BBX 8 8 0 -2
BITMAP
56
FF
55
DB
3D
FF
63
7F
ENDCHAR

STARTCHAR jisx0208_375A
ENCODING 14170
SWIDTH 960 0
DWIDTH 8 0
BBX 8 8 0 -2
BITMAP
6F
F5
63
ED
F3
6F
F3
6F
ENDCHAR

STARTCHAR jisx0208_375B
ENCODING 14171
SWIDTH 960 0
DWIDTH 8 0
BBX 8 8 0 -2
BITMAP
F7
5B
77
D5
67
F5
67
ED
ENDCHAR

STARTCHAR jisx0208_375C
ENCODING 14172
SWIDTH 960 0
DWIDTH 8 0
BBX 8 8 0 -2
BITMAP
1B
F7
F5
37
F6
37
59
CB
ENDCHAR

STARTCHAR jisx0208_375D
ENCODING 14173
SWIDTH 960 0
DWIDTH 8 0
BBX 8 8 0 -2
BITMAP
36
FF
36
7F
00
FF
36
7B
ENDCHAR

STARTCHAR jisx0208_375E
ENCODING 14174
SWIDTH 960 0
DWIDTH 8 0
BBX 8 8 0 -2
BITMAP
CC
17
15
15
DD
56
66
BF
ENDCHAR

STARTCHAR jisx0208_375F
ENCODING 14175
SWIDTH 960 0
DWIDTH 8 0
BBX 8 8 0 -2
BITMAP
66
EF
F0
AF
AD
EF
06
AD
ENDCHAR

STARTCHAR jisx0208_3760
ENCODING 14176
SWIDTH 960 0
DWIDTH 8 0
BBX 8 8 0 -2
BITMAP
39
FD
B5
F5
AD
B5
D9
AB
ENDCHAR

STARTCHAR jisx0208_3761
ENCODING 14177
SWIDTH 960 0
DWIDTH 8 0
BBX 8 8 0 -2
BITMAP
65
F6
5F
B6
F5
63
F7
6D
ENDCHAR

STARTCHAR jisx0208_3762
ENCODING 14178
SWIDTH 960 0
DWIDTH 8 0
BBX 8 8 0 -2
BITMAP
2F
FB
5F
F6
2B
3D
FF
0C
ENDCHAR

STARTCHAR jisx0208_3763
ENCODING 14179
SWIDTH 960 0
DWIDTH 8 0
BBX 8 8 0 -2
BITMAP
DB
3B
AF
3D
15
3B
AD
D5
ENDCHAR

STARTCHAR jisx0208_3764
ENCODING 14180
SWIDTH 960 0
DWIDTH 8 0
BBX 8 8 0 -2
BITMAP
F5
B6
BF
D9
BF
B6
D5
D5
ENDCHAR

STARTCHAR jisx0208_3765
ENCODING 14181
SWIDTH 960 0
DWIDTH 8 0
BBX 8 8 0 -2
BITMAP
6B
F6
6B
FD
ED
6D
6D
6D
ENDCHAR

STARTCHAR jisx0208_3766
ENCODING 14182
SWIDTH 960 0
DWIDTH 8 0
BBX 8 8 0 -2
BITMAP
3B
5F
EB
57
73
5F
6F
55
ENDCHAR

STARTCHAR jisx0208_3767
ENCODING 14183
SWIDTH 960 0
DWIDTH 8 0
BBX 8 8 0 -2
BITMAP
60
7F
5B
D8
18
2C
66
C3
ENDCHAR

STARTCHAR jisx0208_3768
ENCODING 14184
SWIDTH 960 0
DWIDTH 8 0
BBX 8 8 0 -2
BITMAP
CC
1F
CB
0B
3F
6C
56
B3
ENDCHAR

STARTCHAR jisx0208_3769
ENCODING 14185
SWIDTH 960 0
DWIDTH 8 0
BBX 8 8 0 -2
BITMAP
B0
7F
B5
75
2B
16
BF
AB
ENDCHAR

STARTCHAR jisx0208_376A
ENCODING 14186
SWIDTH 960 0
DWIDTH 8 0
BBX 8 8 0 -2
BITMAP
18
FF
C1
3E
06
36
63
C1
ENDCHAR

STARTCHAR jisx0208_376B
ENCODING 14187
SWIDTH 960 0
DWIDTH 8 0
BBX 8 8 0 -2
BITMAP
63
AF
63
EF
60
EF
ED
6F
ENDCHAR

STARTCHAR jisx0208_376C
ENCODING 14188
SWIDTH 960 0
DWIDTH 8 0
BBX 8 8 0 -2
BITMAP
0C
18
7F
5B
5B
5B
5B
FF
ENDCHAR

STARTCHAR jisx0208_376D
ENCODING 14189
SWIDTH 960 0
DWIDTH 8 0
BBX 8 8 0 -2
BITMAP
66
EF
05
F5
1F
F6
AB
F9
ENDCHAR

STARTCHAR jisx0208_376E
ENCODING 14190
SWIDTH 960 0
DWIDTH 8 0
BBX 8 8 0 -2
BITMAP
7F
63
7F
63
7F
63
63
C7
ENDCHAR

STARTCHAR jisx0208_376F
ENCODING 14191
SWIDTH 960 0
DWIDTH 8 0
BBX 8 8 0 -2
BITMAP
36
56
DF
76
66
5F
66
66
ENDCHAR

STARTCHAR jisx0208_3770
ENCODING 14192
SWIDTH 960 0
DWIDTH 8 0
BBX 8 8 0 -2
BITMAP
36
6B
D5
7F
55
5F
6B
59
ENDCHAR

STARTCHAR jisx0208_3771
ENCODING 14193
SWIDTH 960 0
DWIDTH 8 0
BBX 8 8 0 -2
BITMAP
35
7F
EB
7F
5B
6F
6D
6F
ENDCHAR

STARTCHAR jisx0208_3772
ENCODING 14194
SWIDTH 960 0
DWIDTH 8 0
BBX 8 8 0 -2
BITMAP
36
6F
F5
5F
76
5F
56
6F
ENDCHAR

STARTCHAR jisx0208_3773
ENCODING 14195
SWIDTH 960 0
DWIDTH 8 0
BBX 8 8 0 -2
BITMAP
36
FF
2B
FF
2B
7F
6B
AD
ENDCHAR

STARTCHAR jisx0208_3774
ENCODING 14196
SWIDTH 960 0
DWIDTH 8 0
BBX 8 8 0 -2
BITMAP
56
FF
2C
FF
66
FF
35
6C
ENDCHAR

STARTCHAR jisx0208_3775
ENCODING 14197
SWIDTH 960 0
DWIDTH 8 0
BBX 8 8 0 -2
BITMAP
31
55
AD
FD
AD
FD
59
CB
ENDCHAR

STARTCHAR jisx0208_3776
ENCODING 14198
SWIDTH 960 0
DWIDTH 8 0
BBX 8 8 0 -2
BITMAP
06
FF
B9
AF
AB
AF
EB
1F
ENDCHAR

STARTCHAR jisx0208_3777
ENCODING 14199
SWIDTH 960 0
DWIDTH 8 0
BBX 8 8 0 -2
BITMAP
FF
D5
FF
BD
EB
BD
B5
FF
ENDCHAR

STARTCHAR jisx0208_3778
ENCODING 14200
SWIDTH 960 0
DWIDTH 8 0
BBX 8 8 0 -2
BITMAP
FF
B5
F5
B3
ED
7F
0C
FF
ENDCHAR

STARTCHAR jisx0208_3779
ENCODING 14201
SWIDTH 960 0
DWIDTH 8 0
BBX 8 8 0 -2
BITMAP
6B
5F
EB
7F
AB
DF
5B
AB
ENDCHAR

STARTCHAR jisx0208_377A
ENCODING 14202
SWIDTH 960 0
DWIDTH 8 0
BBX 8 8 0 -2
BITMAP
F6
2F
65
FF
36
DF
66
BF
ENDCHAR

STARTCHAR jisx0208_377B
ENCODING 14203
SWIDTH 960 0
DWIDTH 8 0
BBX 8 8 0 -2
BITMAP
18
FF
BD
5B
7F
0C
B1
BD
ENDCHAR

STARTCHAR jisx0208_377C
ENCODING 14204
SWIDTH 960 0
DWIDTH 8 0
BBX 8 8 0 -2
BITMAP
77
DB
D5
FF
AB
17
B3
BD
ENDCHAR

STARTCHAR jisx0208_377D
ENCODING 14205
SWIDTH 960 0
DWIDTH 8 0
BBX 8 8 0 -2
BITMAP
56
FF
36
FF
6B
BD
7F
0C
ENDCHAR

STARTCHAR jisx0208_377E
ENCODING 14206
SWIDTH 960 0
DWIDTH 8 0
BBX 8 8 0 -2
BITMAP
55
FF
6B
7F
D7
7D
5B
DF
ENDCHAR

STARTCHAR jisx0208_3821
ENCODING 14369
SWIDTH 960 0
DWIDTH 8 0
BBX 8 8 0 -2
BITMAP
66
EB
55
FF
D5
5F
6B
59
ENDCHAR

STARTCHAR jisx0208_3822
ENCODING 14370
SWIDTH 960 0
DWIDTH 8 0
BBX 8 8 0 -2
BITMAP
6C
EF
56
EF
DB
6F
6B
6F
ENDCHAR

STARTCHAR jisx0208_3823
ENCODING 14371
SWIDTH 960 0
DWIDTH 8 0
BBX 8 8 0 -2
BITMAP
0C
FF
56
FF
BD
6C
FF
0C
ENDCHAR

STARTCHAR jisx0208_3824
ENCODING 14372
SWIDTH 960 0
DWIDTH 8 0
BBX 8 8 0 -2
BITMAP
1B
18
FF
18
2C
2C
66
C3
ENDCHAR

STARTCHAR jisx0208_3825
ENCODING 14373
SWIDTH 960 0
DWIDTH 8 0
BBX 8 8 0 -2
BITMAP
33
FB
33
FF
DB
AB
FD
AD
ENDCHAR

STARTCHAR jisx0208_3826
ENCODING 14374
SWIDTH 960 0
DWIDTH 8 0
BBX 8 8 0 -2
BITMAP
FF
65
65
75
DF
55
55
7D
ENDCHAR

STARTCHAR jisx0208_3827
ENCODING 14375
SWIDTH 960 0
DWIDTH 8 0
BBX 8 8 0 -2
BITMAP
F7
65
67
75
D5
57
57
7B
ENDCHAR

STARTCHAR jisx0208_3828
ENCODING 14376
SWIDTH 960 0
DWIDTH 8 0
BBX 8 8 0 -2
BITMAP
6F
AD
6F
F0
6F
ED
EF
6D
ENDCHAR

STARTCHAR jisx0208_3829
ENCODING 14377
SWIDTH 960 0
DWIDTH 8 0
BBX 8 8 0 -2
BITMAP
3F
B3
BF
B3
FF
0C
6B
CD
ENDCHAR

STARTCHAR jisx0208_382A
ENCODING 14378
SWIDTH 960 0
DWIDTH 8 0
BBX 8 8 0 -2
BITMAP
7F
61
7F
59
5F
59
5F
D9
ENDCHAR

STARTCHAR jisx0208_382B
ENCODING 14379
SWIDTH 960 0
DWIDTH 8 0
BBX 8 8 0 -2
BITMAP
7F
63
7F
63
7F
2C
6D
CF
ENDCHAR

STARTCHAR jisx0208_382C
ENCODING 14380
SWIDTH 960 0
DWIDTH 8 0
BBX 8 8 0 -2
BITMAP
6B
FF
0B
FF
1F
EB
BB
EB
ENDCHAR

STARTCHAR jisx0208_382D
ENCODING 14381
SWIDTH 960 0
DWIDTH 8 0
BBX 8 8 0 -2
BITMAP
FF
B5
BB
FF
33
33
3F
E3
ENDCHAR

STARTCHAR jisx0208_382E
ENCODING 14382
SWIDTH 960 0
DWIDTH 8 0
BBX 8 8 0 -2
BITMAP
60
FF
66
F6
FF
66
F6
66
ENDCHAR

STARTCHAR jisx0208_382F
ENCODING 14383
SWIDTH 960 0
DWIDTH 8 0
BBX 8 8 0 -2
BITMAP
CC
3F
2B
3F
D6
5F
5B
BF
ENDCHAR

STARTCHAR jisx0208_3830
ENCODING 14384
SWIDTH 960 0
DWIDTH 8 0
BBX 8 8 0 -2
BITMAP
56
AF
F5
5F
F6
6F
F6
EF
ENDCHAR

STARTCHAR jisx0208_3831
ENCODING 14385
SWIDTH 960 0
DWIDTH 8 0
BBX 8 8 0 -2
BITMAP
F6
AB
B5
DF
B5
BF
EB
D9
ENDCHAR

STARTCHAR jisx0208_3832
ENCODING 14386
SWIDTH 960 0
DWIDTH 8 0
BBX 8 8 0 -2
BITMAP
F7
FB
D7
F5
57
DD
57
ED
ENDCHAR

STARTCHAR jisx0208_3833
ENCODING 14387
SWIDTH 960 0
DWIDTH 8 0
BBX 8 8 0 -2
BITMAP
F6
AB
F5
AF
F5
1F
DB
39
ENDCHAR

STARTCHAR jisx0208_3834
ENCODING 14388
SWIDTH 960 0
DWIDTH 8 0
BBX 8 8 0 -2
BITMAP
76
6B
FF
B5
DF
B6
DB
F9
ENDCHAR

STARTCHAR jisx0208_3835
ENCODING 14389
SWIDTH 960 0
DWIDTH 8 0
BBX 8 8 0 -2
BITMAP
7F
00
00
FF
2C
2C
6D
CF
ENDCHAR

STARTCHAR jisx0208_3836
ENCODING 14390
SWIDTH 960 0
DWIDTH 8 0
BBX 8 8 0 -2
BITMAP
7F
6C
5F
59
5F
66
55
D5
ENDCHAR

STARTCHAR jisx0208_3837
ENCODING 14391
SWIDTH 960 0
DWIDTH 8 0
BBX 8 8 0 -2
BITMAP
2B
7F
56
7F
6D
6D
7B
CD
ENDCHAR

STARTCHAR jisx0208_3838
ENCODING 14392
SWIDTH 960 0
DWIDTH 8 0
BBX 8 8 0 -2
BITMAP
30
6F
D9
71
31
61
D9
EB
ENDCHAR

STARTCHAR jisx0208_3839
ENCODING 14393
SWIDTH 960 0
DWIDTH 8 0
BBX 8 8 0 -2
BITMAP
F6
3F
EC
DB
EE
2C
3B
DD
ENDCHAR

STARTCHAR jisx0208_383A
ENCODING 14394
SWIDTH 960 0
DWIDTH 8 0
BBX 8 8 0 -2
BITMAP
C5
3F
B6
3D
3D
2B
BB
E5
ENDCHAR

STARTCHAR jisx0208_383B
ENCODING 14395
SWIDTH 960 0
DWIDTH 8 0
BBX 8 8 0 -2
BITMAP
BF
2C
BF
39
3F
36
B5
D5
ENDCHAR

STARTCHAR jisx0208_383C
ENCODING 14396
SWIDTH 960 0
DWIDTH 8 0
BBX 8 8 0 -2
BITMAP
18
FF
18
36
6C
38
33
FD
ENDCHAR

STARTCHAR jisx0208_383D
ENCODING 14397
SWIDTH 960 0
DWIDTH 8 0
BBX 8 8 0 -2
BITMAP
FF
5B
5F
FB
5B
7F
D6
37
ENDCHAR

STARTCHAR jisx0208_383E
ENCODING 14398
SWIDTH 960 0
DWIDTH 8 0
BBX 8 8 0 -2
BITMAP
66
BF
66
EC
6B
F6
EB
5D
ENDCHAR

STARTCHAR jisx0208_383F
ENCODING 14399
SWIDTH 960 0
DWIDTH 8 0
BBX 8 8 0 -2
BITMAP
66
FF
B6
EB
B6
F6
AB
BD
ENDCHAR

STARTCHAR jisx0208_3840
ENCODING 14400
SWIDTH 960 0
DWIDTH 8 0
BBX 8 8 0 -2
BITMAP
3E
FF
00
7F
00
7F
63
7F
ENDCHAR

STARTCHAR jisx0208_3841
ENCODING 14401
SWIDTH 960 0
DWIDTH 8 0
BBX 8 8 0 -2
BITMAP
66
FF
0B
FF
19
F7
B9
F7
ENDCHAR

STARTCHAR jisx0208_3842
ENCODING 14402
SWIDTH 960 0
DWIDTH 8 0
BBX 8 8 0 -2
BITMAP
EF
AB
AF
EB
AF
AD
EB
DD
ENDCHAR

STARTCHAR jisx0208_3843
ENCODING 14403
SWIDTH 960 0
DWIDTH 8 0
BBX 8 8 0 -2
BITMAP
07
7C
6D
2B
FF
0C
0C
1C
ENDCHAR

STARTCHAR jisx0208_3844
ENCODING 14404
SWIDTH 960 0
DWIDTH 8 0
BBX 8 8 0 -2
BITMAP
3F
55
DF
55
5B
5F
59
5F
ENDCHAR

STARTCHAR jisx0208_3845
ENCODING 14405
SWIDTH 960 0
DWIDTH 8 0
BBX 8 8 0 -2
BITMAP
18
FF
18
18
7F
63
63
7F
ENDCHAR

STARTCHAR jisx0208_3846
ENCODING 14406
SWIDTH 960 0
DWIDTH 8 0
BBX 8 8 0 -2
BITMAP
03
EE
B5
B6
BF
B6
F6
0E
ENDCHAR

STARTCHAR jisx0208_3847
ENCODING 14407
SWIDTH 960 0
DWIDTH 8 0
BBX 8 8 0 -2
BITMAP
FF
D9
BD
D9
BD
B5
BD
FF
ENDCHAR

STARTCHAR jisx0208_3848
ENCODING 14408
SWIDTH 960 0
DWIDTH 8 0
BBX 8 8 0 -2
BITMAP
66
5F
F6
76
BF
D9
59
BF
ENDCHAR

STARTCHAR jisx0208_3849
ENCODING 14409
SWIDTH 960 0
DWIDTH 8 0
BBX 8 8 0 -2
BITMAP
F1
3F
57
77
D7
55
55
ED
ENDCHAR

STARTCHAR jisx0208_384A
ENCODING 14410
SWIDTH 960 0
DWIDTH 8 0
BBX 8 8 0 -2
BITMAP
FF
03
03
FF
C0
C0
C1
FF
ENDCHAR

STARTCHAR jisx0208_384B
ENCODING 14411
SWIDTH 960 0
DWIDTH 8 0
BBX 8 8 0 -2
BITMAP
0C
7F
7F
55
5F
55
7F
C6
ENDCHAR

STARTCHAR jisx0208_384C
ENCODING 14412
SWIDTH 960 0
DWIDTH 8 0
BBX 8 8 0 -2
BITMAP
F1
3F
F7
D7
F7
35
35
ED
ENDCHAR

STARTCHAR jisx0208_384D
ENCODING 14413
SWIDTH 960 0
DWIDTH 8 0
BBX 8 8 0 -2
BITMAP
FF
00
7F
63
7F
60
60
C0
ENDCHAR

STARTCHAR jisx0208_384E
ENCODING 14414
SWIDTH 960 0
DWIDTH 8 0
BBX 8 8 0 -2
BITMAP
6C
EC
6F
5B
EB
B6
AB
F9
ENDCHAR

STARTCHAR jisx0208_384F
ENCODING 14415
SWIDTH 960 0
DWIDTH 8 0
BBX 8 8 0 -2
BITMAP
66
FF
66
F6
DF
59
59
5F
ENDCHAR

STARTCHAR jisx0208_3850
ENCODING 14416
SWIDTH 960 0
DWIDTH 8 0
BBX 8 8 0 -2
BITMAP
D7
3D
D7
15
3F
2D
AD
BD
ENDCHAR

STARTCHAR jisx0208_3851
ENCODING 14417
SWIDTH 960 0
DWIDTH 8 0
BBX 8 8 0 -2
BITMAP
61
3F
77
B7
77
B5
35
6D
ENDCHAR

STARTCHAR jisx0208_3852
ENCODING 14418
SWIDTH 960 0
DWIDTH 8 0
BBX 8 8 0 -2
BITMAP
6F
FD
6F
ED
5F
F5
55
5D
ENDCHAR

STARTCHAR jisx0208_3853
ENCODING 14419
SWIDTH 960 0
DWIDTH 8 0
BBX 8 8 0 -2
BITMAP
66
FF
2B
5F
F6
6F
61
67
ENDCHAR

STARTCHAR jisx0208_3854
ENCODING 14420
SWIDTH 960 0
DWIDTH 8 0
BBX 8 8 0 -2
BITMAP
EF
AB
EB
B8
EF
AD
B7
AD
ENDCHAR

STARTCHAR jisx0208_3855
ENCODING 14421
SWIDTH 960 0
DWIDTH 8 0
BBX 8 8 0 -2
BITMAP
67
F5
67
65
F7
D5
D5
FD
ENDCHAR

STARTCHAR jisx0208_3856
ENCODING 14422
SWIDTH 960 0
DWIDTH 8 0
BBX 8 8 0 -2
BITMAP
36
FF
35
DF
77
D7
55
ED
ENDCHAR

STARTCHAR jisx0208_3857
ENCODING 14423
SWIDTH 960 0
DWIDTH 8 0
BBX 8 8 0 -2
BITMAP
0F
7F
6D
7F
6C
5F
55
B7
ENDCHAR

STARTCHAR jisx0208_3858
ENCODING 14424
SWIDTH 960 0
DWIDTH 8 0
BBX 8 8 0 -2
BITMAP
66
FF
0B
EF
1C
EF
B1
F7
ENDCHAR

STARTCHAR jisx0208_3859
ENCODING 14425
SWIDTH 960 0
DWIDTH 8 0
BBX 8 8 0 -2
BITMAP
F6
BF
EB
5F
6C
EF
E1
F7
ENDCHAR

STARTCHAR jisx0208_385A
ENCODING 14426
SWIDTH 960 0
DWIDTH 8 0
BBX 8 8 0 -2
BITMAP
63
AF
F3
63
EF
6D
ED
EF
ENDCHAR

STARTCHAR jisx0208_385B
ENCODING 14427
SWIDTH 960 0
DWIDTH 8 0
BBX 8 8 0 -2
BITMAP
FF
63
7F
5F
76
5F
56
DF
ENDCHAR

STARTCHAR jisx0208_385C
ENCODING 14428
SWIDTH 960 0
DWIDTH 8 0
BBX 8 8 0 -2
BITMAP
FF
6B
7F
55
7F
D5
57
7D
ENDCHAR

STARTCHAR jisx0208_385D
ENCODING 14429
SWIDTH 960 0
DWIDTH 8 0
BBX 8 8 0 -2
BITMAP
33
FF
33
FF
D5
F5
5B
ED
ENDCHAR

STARTCHAR jisx0208_385E
ENCODING 14430
SWIDTH 960 0
DWIDTH 8 0
BBX 8 8 0 -2
BITMAP
FF
18
18
7F
33
33
33
FF
ENDCHAR

STARTCHAR jisx0208_385F
ENCODING 14431
SWIDTH 960 0
DWIDTH 8 0
BBX 8 8 0 -2
BITMAP
FF
30
3E
36
66
7E
0C
FF
ENDCHAR

STARTCHAR jisx0208_3860
ENCODING 14432
SWIDTH 960 0
DWIDTH 8 0
BBX 8 8 0 -2
BITMAP
3F
66
E6
5F
6B
6B
6B
7F
ENDCHAR

STARTCHAR jisx0208_3861
ENCODING 14433
SWIDTH 960 0
DWIDTH 8 0
BBX 8 8 0 -2
BITMAP
30
7F
CC
0C
FF
0C
0C
0C
ENDCHAR

STARTCHAR jisx0208_3862
ENCODING 14434
SWIDTH 960 0
DWIDTH 8 0
BBX 8 8 0 -2
BITMAP
1F
5B
5F
60
7F
03
FF
33
ENDCHAR

STARTCHAR jisx0208_3863
ENCODING 14435
SWIDTH 960 0
DWIDTH 8 0
BBX 8 8 0 -2
BITMAP
FF
18
7E
36
FF
7F
63
7F
ENDCHAR

STARTCHAR jisx0208_3864
ENCODING 14436
SWIDTH 960 0
DWIDTH 8 0
BBX 8 8 0 -2
BITMAP
6F
5B
FF
78
BF
F3
5F
AB
ENDCHAR

STARTCHAR jisx0208_3865
ENCODING 14437
SWIDTH 960 0
DWIDTH 8 0
BBX 8 8 0 -2
BITMAP
66
AB
65
DF
6F
5B
66
5B
ENDCHAR

STARTCHAR jisx0208_3866
ENCODING 14438
SWIDTH 960 0
DWIDTH 8 0
BBX 8 8 0 -2
BITMAP
58
BF
55
FD
55
5D
75
66
ENDCHAR

STARTCHAR jisx0208_3867
ENCODING 14439
SWIDTH 960 0
DWIDTH 8 0
BBX 8 8 0 -2
BITMAP
5F
6C
FF
EB
7F
5F
5B
5F
ENDCHAR

STARTCHAR jisx0208_3868
ENCODING 14440
SWIDTH 960 0
DWIDTH 8 0
BBX 8 8 0 -2
BITMAP
5F
EC
5F
EB
FF
5F
5B
5F
ENDCHAR

STARTCHAR jisx0208_3869
ENCODING 14441
SWIDTH 960 0
DWIDTH 8 0
BBX 8 8 0 -2
BITMAP
66
EB
5F
EB
DF
55
5F
59
ENDCHAR

STARTCHAR jisx0208_386A
ENCODING 14442
SWIDTH 960 0
DWIDTH 8 0
BBX 8 8 0 -2
BITMAP
EF
6D
5F
ED
5F
75
D5
1D
ENDCHAR

STARTCHAR jisx0208_386B
ENCODING 14443
SWIDTH 960 0
DWIDTH 8 0
BBX 8 8 0 -2
BITMAP
36
FF
36
FF
76
BF
75
BE
ENDCHAR

STARTCHAR jisx0208_386C
ENCODING 14444
SWIDTH 960 0
DWIDTH 8 0
BBX 8 8 0 -2
BITMAP
5F
F6
1F
EB
1F
EF
AB
EF
ENDCHAR

STARTCHAR jisx0208_386D
ENCODING 14445
SWIDTH 960 0
DWIDTH 8 0
BBX 8 8 0 -2
BITMAP
67
ED
0F
EF
03
FF
B0
ED
ENDCHAR

STARTCHAR jisx0208_386E
ENCODING 14446
SWIDTH 960 0
DWIDTH 8 0
BBX 8 8 0 -2
BITMAP
6B
FF
0B
FF
1F
EB
B6
EB
ENDCHAR

STARTCHAR jisx0208_386F
ENCODING 14447
SWIDTH 960 0
DWIDTH 8 0
BBX 8 8 0 -2
BITMAP
FF
6D
FF
ED
DF
F5
D5
FD
ENDCHAR

STARTCHAR jisx0208_3870
ENCODING 14448
SWIDTH 960 0
DWIDTH 8 0
BBX 8 8 0 -2
BITMAP
60
7F
C0
3E
18
30
61
7F
ENDCHAR

STARTCHAR jisx0208_3871
ENCODING 14449
SWIDTH 960 0
DWIDTH 8 0
BBX 8 8 0 -2
BITMAP
5F
D5
FF
B5
BF
EF
06
AF
ENDCHAR

STARTCHAR jisx0208_3872
ENCODING 14450
SWIDTH 960 0
DWIDTH 8 0
BBX 8 8 0 -2
BITMAP
18
FF
36
63
B5
1C
36
E3
ENDCHAR

STARTCHAR jisx0208_3873
ENCODING 14451
SWIDTH 960 0
DWIDTH 8 0
BBX 8 8 0 -2
BITMAP
36
5F
EB
59
6B
66
6B
59
ENDCHAR

STARTCHAR jisx0208_3874
ENCODING 14452
SWIDTH 960 0
DWIDTH 8 0
BBX 8 8 0 -2
BITMAP
2F
63
DF
6C
6F
56
5F
6B
ENDCHAR

STARTCHAR jisx0208_3875
ENCODING 14453
SWIDTH 960 0
DWIDTH 8 0
BBX 8 8 0 -2
BITMAP
2F
63
DF
6E
7F
76
7F
6B
ENDCHAR

STARTCHAR jisx0208_3876
ENCODING 14454
SWIDTH 960 0
DWIDTH 8 0
BBX 8 8 0 -2
BITMAP
36
5F
EB
5F
66
5F
66
66
ENDCHAR

STARTCHAR jisx0208_3877
ENCODING 14455
SWIDTH 960 0
DWIDTH 8 0
BBX 8 8 0 -2
BITMAP
18
DB
56
FF
2C
2C
6D
CF
ENDCHAR

STARTCHAR jisx0208_3878
ENCODING 14456
SWIDTH 960 0
DWIDTH 8 0
BBX 8 8 0 -2
BITMAP
1E
66
63
D9
18
36
33
FD
ENDCHAR

STARTCHAR jisx0208_3879
ENCODING 14457
SWIDTH 960 0
DWIDTH 8 0
BBX 8 8 0 -2
BITMAP
06
F6
6F
65
65
75
ED
1B
ENDCHAR

STARTCHAR jisx0208_387A
ENCODING 14458
SWIDTH 960 0
DWIDTH 8 0
BBX 8 8 0 -2
BITMAP
36
F6
5F
CD
55
35
55
CB
ENDCHAR

STARTCHAR jisx0208_387B
ENCODING 14459
SWIDTH 960 0
DWIDTH 8 0
BBX 8 8 0 -2
BITMAP
60
7F
C1
31
31
59
ED
07
ENDCHAR

STARTCHAR jisx0208_387C
ENCODING 14460
SWIDTH 960 0
DWIDTH 8 0
BBX 8 8 0 -2
BITMAP
7F
5F
59
5F
66
7F
66
CE
ENDCHAR

STARTCHAR jisx0208_387D
ENCODING 14461
SWIDTH 960 0
DWIDTH 8 0
BBX 8 8 0 -2
BITMAP
FF
C1
C1
C1
C1
C1
C1
FF
ENDCHAR

STARTCHAR jisx0208_387E
ENCODING 14462
SWIDTH 960 0
DWIDTH 8 0
BBX 8 8 0 -2
BITMAP
30
FF
C1
BD
B5
B5
BD
C1
ENDCHAR

STARTCHAR jisx0208_3921
ENCODING 14625
SWIDTH 960 0
DWIDTH 8 0
BBX 8 8 0 -2
BITMAP
03
7E
60
7F
60
5F
5B
DF
ENDCHAR

STARTCHAR jisx0208_3922
ENCODING 14626
SWIDTH 960 0
DWIDTH 8 0
BBX 8 8 0 -2
BITMAP
17
FB
BF
B6
B7
BB
F7
15
ENDCHAR

STARTCHAR jisx0208_3923
ENCODING 14627
SWIDTH 960 0
DWIDTH 8 0
BBX 8 8 0 -2
BITMAP
66
5F
F0
6F
6B
6B
EB
1B
ENDCHAR

STARTCHAR jisx0208_3924
ENCODING 14628
SWIDTH 960 0
DWIDTH 8 0
BBX 8 8 0 -2
BITMAP
63
5E
F8
5F
58
7F
DD
2F
ENDCHAR

STARTCHAR jisx0208_3925
ENCODING 14629
SWIDTH 960 0
DWIDTH 8 0
BBX 8 8 0 -2
BITMAP
5F
63
F6
76
BF
E6
66
AE
ENDCHAR

STARTCHAR jisx0208_3926
ENCODING 14630
SWIDTH 960 0
DWIDTH 8 0
BBX 8 8 0 -2
BITMAP
F6
16
36
36
F6
36
35
77
ENDCHAR

STARTCHAR jisx0208_3927
ENCODING 14631
SWIDTH 960 0
DWIDTH 8 0
BBX 8 8 0 -2
BITMAP
19
7F
16
FF
36
FF
0C
1C
ENDCHAR

STARTCHAR jisx0208_3928
ENCODING 14632
SWIDTH 960 0
DWIDTH 8 0
BBX 8 8 0 -2
BITMAP
18
FF
D9
18
FF
2C
5B
BD
ENDCHAR

STARTCHAR jisx0208_3929
ENCODING 14633
SWIDTH 960 0
DWIDTH 8 0
BBX 8 8 0 -2
BITMAP
00
7F
18
18
18
18
18
FF
ENDCHAR

STARTCHAR jisx0208_392A
ENCODING 14634
SWIDTH 960 0
DWIDTH 8 0
BBX 8 8 0 -2
BITMAP
1F
EC
6C
6F
6D
71
E1
07
ENDCHAR

STARTCHAR jisx0208_392B
ENCODING 14635
SWIDTH 960 0
DWIDTH 8 0
BBX 8 8 0 -2
BITMAP
36
7F
36
FF
67
BD
33
3F
ENDCHAR

STARTCHAR jisx0208_392C
ENCODING 14636
SWIDTH 960 0
DWIDTH 8 0
BBX 8 8 0 -2
BITMAP
18
FF
66
FF
18
FF
18
18
ENDCHAR

STARTCHAR jisx0208_392D
ENCODING 14637
SWIDTH 960 0
DWIDTH 8 0
BBX 8 8 0 -2
BITMAP
0C
7F
60
6C
6C
58
5B
BD
ENDCHAR

STARTCHAR jisx0208_392E
ENCODING 14638
SWIDTH 960 0
DWIDTH 8 0
BBX 8 8 0 -2
BITMAP
0C
7F
6B
7F
6B
7F
56
B3
ENDCHAR

STARTCHAR jisx0208_392F
ENCODING 14639
SWIDTH 960 0
DWIDTH 8 0
BBX 8 8 0 -2
BITMAP
0C
7F
6B
7F
6B
7F
5B
AD
ENDCHAR

STARTCHAR jisx0208_3930
ENCODING 14640
SWIDTH 960 0
DWIDTH 8 0
BBX 8 8 0 -2
BITMAP
F6
36
F6
C6
EC
2B
2B
DD
ENDCHAR

STARTCHAR jisx0208_3931
ENCODING 14641
SWIDTH 960 0
DWIDTH 8 0
BBX 8 8 0 -2
BITMAP
5F
60
EF
EF
6D
6F
60
5F
ENDCHAR

STARTCHAR jisx0208_3932
ENCODING 14642
SWIDTH 960 0
DWIDTH 8 0
BBX 8 8 0 -2
BITMAP
6B
5F
EC
EF
5B
5B
5B
5B
ENDCHAR

STARTCHAR jisx0208_3933
ENCODING 14643
SWIDTH 960 0
DWIDTH 8 0
BBX 8 8 0 -2
BITMAP
66
FF
60
6F
EB
6B
6B
DB
ENDCHAR

STARTCHAR jisx0208_3934
ENCODING 14644
SWIDTH 960 0
DWIDTH 8 0
BBX 8 8 0 -2
BITMAP
6C
EF
59
7D
D5
5D
61
E7
ENDCHAR

STARTCHAR jisx0208_3935
ENCODING 14645
SWIDTH 960 0
DWIDTH 8 0
BBX 8 8 0 -2
BITMAP
66
FF
55
77
E0
5F
66
DF
ENDCHAR

STARTCHAR jisx0208_3936
ENCODING 14646
SWIDTH 960 0
DWIDTH 8 0
BBX 8 8 0 -2
BITMAP
0C
EC
6F
5B
6B
EB
06
1B
ENDCHAR

STARTCHAR jisx0208_3937
ENCODING 14647
SWIDTH 960 0
DWIDTH 8 0
BBX 8 8 0 -2
BITMAP
7F
63
7F
30
EF
CD
DD
EC
ENDCHAR

STARTCHAR jisx0208_3938
ENCODING 14648
SWIDTH 960 0
DWIDTH 8 0
BBX 8 8 0 -2
BITMAP
7F
63
7F
6D
2B
FF
2C
EF
ENDCHAR

STARTCHAR jisx0208_3939
ENCODING 14649
SWIDTH 960 0
DWIDTH 8 0
BBX 8 8 0 -2
BITMAP
FF
5B
7F
5B
7F
58
38
EF
ENDCHAR

STARTCHAR jisx0208_393A
ENCODING 14650
SWIDTH 960 0
DWIDTH 8 0
BBX 8 8 0 -2
BITMAP
66
FF
60
EF
EB
6B
6B
5B
ENDCHAR

STARTCHAR jisx0208_393B
ENCODING 14651
SWIDTH 960 0
DWIDTH 8 0
BBX 8 8 0 -2
BITMAP
66
FF
6B
F9
EB
6B
66
5B
ENDCHAR

STARTCHAR jisx0208_393C
ENCODING 14652
SWIDTH 960 0
DWIDTH 8 0
BBX 8 8 0 -2
BITMAP
5F
F6
5F
F5
DF
56
6C
57
ENDCHAR

STARTCHAR jisx0208_393D
ENCODING 14653
SWIDTH 960 0
DWIDTH 8 0
BBX 8 8 0 -2
BITMAP
6B
FF
6B
FF
DF
5B
7F
5B
ENDCHAR

STARTCHAR jisx0208_393E
ENCODING 14654
SWIDTH 960 0
DWIDTH 8 0
BBX 8 8 0 -2
BITMAP
C0
1F
C6
06
06
66
66
DF
ENDCHAR

STARTCHAR jisx0208_393F
ENCODING 14655
SWIDTH 960 0
DWIDTH 8 0
BBX 8 8 0 -2
BITMAP
DB
1B
BF
1B
1B
7F
5B
B1
ENDCHAR

STARTCHAR jisx0208_3940
ENCODING 14656
SWIDTH 960 0
DWIDTH 8 0
BBX 8 8 0 -2
BITMAP
D6
1F
36
BF
00
5F
59
DF
ENDCHAR

STARTCHAR jisx0208_3941
ENCODING 14657
SWIDTH 960 0
DWIDTH 8 0
BBX 8 8 0 -2
BITMAP
D6
3F
16
BF
1B
7D
58
DF
ENDCHAR

STARTCHAR jisx0208_3942
ENCODING 14658
SWIDTH 960 0
DWIDTH 8 0
BBX 8 8 0 -2
BITMAP
D6
3F
D6
7F
2B
7F
73
B7
ENDCHAR

STARTCHAR jisx0208_3943
ENCODING 14659
SWIDTH 960 0
DWIDTH 8 0
BBX 8 8 0 -2
BITMAP
FF
DB
FF
DB
FF
18
18
18
ENDCHAR

STARTCHAR jisx0208_3944
ENCODING 14660
SWIDTH 960 0
DWIDTH 8 0
BBX 8 8 0 -2
BITMAP
18
7F
63
FF
18
7F
18
FF
ENDCHAR

STARTCHAR jisx0208_3945
ENCODING 14661
SWIDTH 960 0
DWIDTH 8 0
BBX 8 8 0 -2
BITMAP
FF
66
5F
75
DF
5E
57
7D
ENDCHAR

STARTCHAR jisx0208_3946
ENCODING 14662
SWIDTH 960 0
DWIDTH 8 0
BBX 8 8 0 -2
BITMAP
36
DF
6B
EF
5F
F9
55
59
ENDCHAR

STARTCHAR jisx0208_3947
ENCODING 14663
SWIDTH 960 0
DWIDTH 8 0
BBX 8 8 0 -2
BITMAP
66
FF
56
FF
57
FF
57
75
ENDCHAR

STARTCHAR jisx0208_3948
ENCODING 14664
SWIDTH 960 0
DWIDTH 8 0
BBX 8 8 0 -2
BITMAP
60
AF
66
F6
66
F6
F6
5F
ENDCHAR

STARTCHAR jisx0208_3949
ENCODING 14665
SWIDTH 960 0
DWIDTH 8 0
BBX 8 8 0 -2
BITMAP
66
B6
5F
EC
6B
EB
F5
57
ENDCHAR

STARTCHAR jisx0208_394A
ENCODING 14666
SWIDTH 960 0
DWIDTH 8 0
BBX 8 8 0 -2
BITMAP
66
BF
6B
F9
6B
F6
EB
59
ENDCHAR

STARTCHAR jisx0208_394B
ENCODING 14667
SWIDTH 960 0
DWIDTH 8 0
BBX 8 8 0 -2
BITMAP
5F
BB
55
FF
55
F5
FF
59
ENDCHAR

STARTCHAR jisx0208_394C
ENCODING 14668
SWIDTH 960 0
DWIDTH 8 0
BBX 8 8 0 -2
BITMAP
6B
EB
5F
EB
6B
FF
EB
5B
ENDCHAR

STARTCHAR jisx0208_394D
ENCODING 14669
SWIDTH 960 0
DWIDTH 8 0
BBX 8 8 0 -2
BITMAP
19
FF
16
FF
70
BF
03
0E
ENDCHAR

STARTCHAR jisx0208_394E
ENCODING 14670
SWIDTH 960 0
DWIDTH 8 0
BBX 8 8 0 -2
BITMAP
2F
2C
FF
33
3F
33
3F
33
ENDCHAR

STARTCHAR jisx0208_394F
ENCODING 14671
SWIDTH 960 0
DWIDTH 8 0
BBX 8 8 0 -2
BITMAP
F6
B6
FF
AC
EB
AB
B5
B7
ENDCHAR

STARTCHAR jisx0208_3950
ENCODING 14672
SWIDTH 960 0
DWIDTH 8 0
BBX 8 8 0 -2
BITMAP
F6
BF
ED
B7
F0
BF
B6
BF
ENDCHAR

STARTCHAR jisx0208_3951
ENCODING 14673
SWIDTH 960 0
DWIDTH 8 0
BBX 8 8 0 -2
BITMAP
18
FF
36
FF
BD
63
7F
63
ENDCHAR

STARTCHAR jisx0208_3952
ENCODING 14674
SWIDTH 960 0
DWIDTH 8 0
BBX 8 8 0 -2
BITMAP
66
FF
B0
EF
AB
EB
AB
BB
ENDCHAR

STARTCHAR jisx0208_3953
ENCODING 14675
SWIDTH 960 0
DWIDTH 8 0
BBX 8 8 0 -2
BITMAP
66
FF
56
FF
60
7F
56
D7
ENDCHAR

STARTCHAR jisx0208_3954
ENCODING 14676
SWIDTH 960 0
DWIDTH 8 0
BBX 8 8 0 -2
BITMAP
6F
B0
5F
E3
63
63
63
67
ENDCHAR

STARTCHAR jisx0208_3955
ENCODING 14677
SWIDTH 960 0
DWIDTH 8 0
BBX 8 8 0 -2
BITMAP
6B
BC
5F
D5
5D
6D
5D
55
ENDCHAR

STARTCHAR jisx0208_3956
ENCODING 14678
SWIDTH 960 0
DWIDTH 8 0
BBX 8 8 0 -2
BITMAP
6B
FF
0B
FF
1F
FB
BF
FB
ENDCHAR

STARTCHAR jisx0208_3957
ENCODING 14679
SWIDTH 960 0
DWIDTH 8 0
BBX 8 8 0 -2
BITMAP
7F
0C
FF
63
7F
63
7F
C1
ENDCHAR

STARTCHAR jisx0208_3958
ENCODING 14680
SWIDTH 960 0
DWIDTH 8 0
BBX 8 8 0 -2
BITMAP
EB
BF
EB
BF
BF
FB
3F
DB
ENDCHAR

STARTCHAR jisx0208_3959
ENCODING 14681
SWIDTH 960 0
DWIDTH 8 0
BBX 8 8 0 -2
BITMAP
37
FD
55
CF
55
35
57
CE
ENDCHAR

STARTCHAR jisx0208_395A
ENCODING 14682
SWIDTH 960 0
DWIDTH 8 0
BBX 8 8 0 -2
BITMAP
F5
6F
F7
DF
DD
FB
DF
FB
ENDCHAR

STARTCHAR jisx0208_395B
ENCODING 14683
SWIDTH 960 0
DWIDTH 8 0
BBX 8 8 0 -2
BITMAP
63
AF
EC
6B
EB
6B
F5
D7
ENDCHAR

STARTCHAR jisx0208_395C
ENCODING 14684
SWIDTH 960 0
DWIDTH 8 0
BBX 8 8 0 -2
BITMAP
FB
6F
6C
7B
DB
5B
55
77
ENDCHAR

STARTCHAR jisx0208_395D
ENCODING 14685
SWIDTH 960 0
DWIDTH 8 0
BBX 8 8 0 -2
BITMAP
5F
BB
F5
5F
F5
55
FF
D9
ENDCHAR

STARTCHAR jisx0208_395E
ENCODING 14686
SWIDTH 960 0
DWIDTH 8 0
BBX 8 8 0 -2
BITMAP
F7
B5
F7
D9
AD
FD
AD
BD
ENDCHAR

STARTCHAR jisx0208_395F
ENCODING 14687
SWIDTH 960 0
DWIDTH 8 0
BBX 8 8 0 -2
BITMAP
F7
AD
B7
DB
AF
AB
DF
C3
ENDCHAR

STARTCHAR jisx0208_3960
ENCODING 14688
SWIDTH 960 0
DWIDTH 8 0
BBX 8 8 0 -2
BITMAP
1F
F6
6F
6D
6F
6D
EF
19
ENDCHAR

STARTCHAR jisx0208_3961
ENCODING 14689
SWIDTH 960 0
DWIDTH 8 0
BBX 8 8 0 -2
BITMAP
7F
0C
FF
2B
7F
B3
33
3F
ENDCHAR

STARTCHAR jisx0208_3962
ENCODING 14690
SWIDTH 960 0
DWIDTH 8 0
BBX 8 8 0 -2
BITMAP
18
FF
36
3E
FF
B5
BD
C1
ENDCHAR

STARTCHAR jisx0208_3963
ENCODING 14691
SWIDTH 960 0
DWIDTH 8 0
BBX 8 8 0 -2
BITMAP
C6
7F
AB
2F
3C
6F
61
AB
ENDCHAR

STARTCHAR jisx0208_3964
ENCODING 14692
SWIDTH 960 0
DWIDTH 8 0
BBX 8 8 0 -2
BITMAP
FD
DD
AD
FD
AD
FD
CD
DB
ENDCHAR

STARTCHAR jisx0208_3965
ENCODING 14693
SWIDTH 960 0
DWIDTH 8 0
BBX 8 8 0 -2
BITMAP
36
F6
2F
F5
35
65
55
EB
ENDCHAR

STARTCHAR jisx0208_3966
ENCODING 14694
SWIDTH 960 0
DWIDTH 8 0
BBX 8 8 0 -2
BITMAP
3F
33
3F
FF
30
3F
03
0E
ENDCHAR

STARTCHAR jisx0208_3967
ENCODING 14695
SWIDTH 960 0
DWIDTH 8 0
BBX 8 8 0 -2
BITMAP
1C
36
7F
C1
7F
63
63
7F
ENDCHAR

STARTCHAR jisx0208_3968
ENCODING 14696
SWIDTH 960 0
DWIDTH 8 0
BBX 8 8 0 -2
BITMAP
66
5F
EB
5F
6D
77
EF
15
ENDCHAR

STARTCHAR jisx0208_3969
ENCODING 14697
SWIDTH 960 0
DWIDTH 8 0
BBX 8 8 0 -2
BITMAP
65
EF
67
7F
EE
57
61
E7
ENDCHAR

STARTCHAR jisx0208_396A
ENCODING 14698
SWIDTH 960 0
DWIDTH 8 0
BBX 8 8 0 -2
BITMAP
C6
3F
DB
7F
6D
37
CF
B5
ENDCHAR

STARTCHAR jisx0208_396B
ENCODING 14699
SWIDTH 960 0
DWIDTH 8 0
BBX 8 8 0 -2
BITMAP
18
7F
36
FF
D5
6F
1B
ED
ENDCHAR

STARTCHAR jisx0208_396C
ENCODING 14700
SWIDTH 960 0
DWIDTH 8 0
BBX 8 8 0 -2
BITMAP
18
FF
56
FF
56
AB
FF
66
ENDCHAR

STARTCHAR jisx0208_396D
ENCODING 14701
SWIDTH 960 0
DWIDTH 8 0
BBX 8 8 0 -2
BITMAP
6C
EF
55
FF
55
AB
73
DF
ENDCHAR

STARTCHAR jisx0208_396E
ENCODING 14702
SWIDTH 960 0
DWIDTH 8 0
BBX 8 8 0 -2
BITMAP
18
FF
18
7F
63
7F
2D
EF
ENDCHAR

STARTCHAR jisx0208_396F
ENCODING 14703
SWIDTH 960 0
DWIDTH 8 0
BBX 8 8 0 -2
BITMAP
31
FD
35
55
2D
D9
39
EB
ENDCHAR

STARTCHAR jisx0208_3970
ENCODING 14704
SWIDTH 960 0
DWIDTH 8 0
BBX 8 8 0 -2
BITMAP
58
7F
D8
FF
00
7F
63
7F
ENDCHAR

STARTCHAR jisx0208_3971
ENCODING 14705
SWIDTH 960 0
DWIDTH 8 0
BBX 8 8 0 -2
BITMAP
FF
C1
BD
D9
BD
D5
BD
FF
ENDCHAR

STARTCHAR jisx0208_3972
ENCODING 14706
SWIDTH 960 0
DWIDTH 8 0
BBX 8 8 0 -2
BITMAP
FF
2B
FB
DC
77
35
FB
B5
ENDCHAR

STARTCHAR jisx0208_3973
ENCODING 14707
SWIDTH 960 0
DWIDTH 8 0
BBX 8 8 0 -2
BITMAP
FB
6F
FB
DF
D8
F7
D5
F7
ENDCHAR

STARTCHAR jisx0208_3974
ENCODING 14708
SWIDTH 960 0
DWIDTH 8 0
BBX 8 8 0 -2
BITMAP
73
77
B5
F7
06
F7
D9
FB
ENDCHAR

STARTCHAR jisx0208_3975
ENCODING 14709
SWIDTH 960 0
DWIDTH 8 0
BBX 8 8 0 -2
BITMAP
7F
5B
7F
5B
7F
18
FF
D5
ENDCHAR

STARTCHAR jisx0208_3976
ENCODING 14710
SWIDTH 960 0
DWIDTH 8 0
BBX 8 8 0 -2
BITMAP
5B
3B
77
BB
73
BB
2D
7D
ENDCHAR

STARTCHAR jisx0208_3977
ENCODING 14711
SWIDTH 960 0
DWIDTH 8 0
BBX 8 8 0 -2
BITMAP
C6
3F
AB
3F
2B
2F
AB
DF
ENDCHAR

STARTCHAR jisx0208_3978
ENCODING 14712
SWIDTH 960 0
DWIDTH 8 0
BBX 8 8 0 -2
BITMAP
FF
AB
FF
BF
F6
BF
AB
BF
ENDCHAR

STARTCHAR jisx0208_3979
ENCODING 14713
SWIDTH 960 0
DWIDTH 8 0
BBX 8 8 0 -2
BITMAP
AF
FC
DF
FB
AF
EB
AB
FD
ENDCHAR

STARTCHAR jisx0208_397A
ENCODING 14714
SWIDTH 960 0
DWIDTH 8 0
BBX 8 8 0 -2
BITMAP
60
7F
D5
15
2D
0B
B1
BD
ENDCHAR

STARTCHAR jisx0208_397B
ENCODING 14715
SWIDTH 960 0
DWIDTH 8 0
BBX 8 8 0 -2
BITMAP
58
5F
EB
D5
6B
66
5D
6F
ENDCHAR

STARTCHAR jisx0208_397C
ENCODING 14716
SWIDTH 960 0
DWIDTH 8 0
BBX 8 8 0 -2
BITMAP
7F
6B
FF
B5
3E
36
3E
36
ENDCHAR

STARTCHAR jisx0208_397D
ENCODING 14717
SWIDTH 960 0
DWIDTH 8 0
BBX 8 8 0 -2
BITMAP
63
36
6F
AD
6F
AD
2D
6F
ENDCHAR

STARTCHAR jisx0208_397E
ENCODING 14718
SWIDTH 960 0
DWIDTH 8 0
BBX 8 8 0 -2
BITMAP
CE
06
06
06
EB
6B
59
BF
ENDCHAR

STARTCHAR jisx0208_3A21
ENCODING 14881
SWIDTH 960 0
DWIDTH 8 0
BBX 8 8 0 -2
BITMAP
36
36
35
BF
B6
B6
B5
F7
ENDCHAR

STARTCHAR jisx0208_3A22
ENCODING 14882
SWIDTH 960 0
DWIDTH 8 0
BBX 8 8 0 -2
BITMAP
CF
B6
EF
CD
CF
AD
EF
19
ENDCHAR

STARTCHAR jisx0208_3A23
ENCODING 14883
SWIDTH 960 0
DWIDTH 8 0
BBX 8 8 0 -2
BITMAP
1C
36
5B
C1
3E
06
0C
18
ENDCHAR

STARTCHAR jisx0208_3A24
ENCODING 14884
SWIDTH 960 0
DWIDTH 8 0
BBX 8 8 0 -2
BITMAP
FF
D9
FD
D9
BD
D5
D9
FF
ENDCHAR

STARTCHAR jisx0208_3A25
ENCODING 14885
SWIDTH 960 0
DWIDTH 8 0
BBX 8 8 0 -2
BITMAP
66
5F
F5
5F
55
7F
E6
06
ENDCHAR

STARTCHAR jisx0208_3A26
ENCODING 14886
SWIDTH 960 0
DWIDTH 8 0
BBX 8 8 0 -2
BITMAP
6F
AB
EF
2B
D5
7F
18
FF
ENDCHAR

STARTCHAR jisx0208_3A27
ENCODING 14887
SWIDTH 960 0
DWIDTH 8 0
BBX 8 8 0 -2
BITMAP
5F
56
FF
7B
BF
EB
6B
AF
ENDCHAR

STARTCHAR jisx0208_3A28
ENCODING 14888
SWIDTH 960 0
DWIDTH 8 0
BBX 8 8 0 -2
BITMAP
5F
5B
FF
DB
5F
55
5B
7D
ENDCHAR

STARTCHAR jisx0208_3A29
ENCODING 14889
SWIDTH 960 0
DWIDTH 8 0
BBX 8 8 0 -2
BITMAP
6F
AB
EF
2D
EB
5D
B6
BD
ENDCHAR

STARTCHAR jisx0208_3A2A
ENCODING 14890
SWIDTH 960 0
DWIDTH 8 0
BBX 8 8 0 -2
BITMAP
7F
6C
7F
66
FF
7F
63
7F
ENDCHAR

STARTCHAR jisx0208_3A2B
ENCODING 14891
SWIDTH 960 0
DWIDTH 8 0
BBX 8 8 0 -2
BITMAP
7F
7F
63
7F
6D
7F
6D
EF
ENDCHAR

STARTCHAR jisx0208_3A2C
ENCODING 14892
SWIDTH 960 0
DWIDTH 8 0
BBX 8 8 0 -2
BITMAP
5F
FB
5F
FB
DF
55
5B
7D
ENDCHAR

STARTCHAR jisx0208_3A2D
ENCODING 14893
SWIDTH 960 0
DWIDTH 8 0
BBX 8 8 0 -2
BITMAP
5F
F5
55
FF
D5
5F
55
5F
ENDCHAR

STARTCHAR jisx0208_3A2E
ENCODING 14894
SWIDTH 960 0
DWIDTH 8 0
BBX 8 8 0 -2
BITMAP
BF
3F
B3
3F
35
3F
B5
B7
ENDCHAR

STARTCHAR jisx0208_3A2F
ENCODING 14895
SWIDTH 960 0
DWIDTH 8 0
BBX 8 8 0 -2
BITMAP
06
7F
5B
DF
5B
DF
56
BB
ENDCHAR

STARTCHAR jisx0208_3A30
ENCODING 14896
SWIDTH 960 0
DWIDTH 8 0
BBX 8 8 0 -2
BITMAP
6B
AB
5F
EB
6F
EB
EB
6F
ENDCHAR

STARTCHAR jisx0208_3A31
ENCODING 14897
SWIDTH 960 0
DWIDTH 8 0
BBX 8 8 0 -2
BITMAP
7F
63
7F
63
7F
6D
67
F9
ENDCHAR

STARTCHAR jisx0208_3A32
ENCODING 14898
SWIDTH 960 0
DWIDTH 8 0
BBX 8 8 0 -2
BITMAP
0C
FF
1F
F5
5F
AE
ED
37
ENDCHAR

STARTCHAR jisx0208_3A33
ENCODING 14899
SWIDTH 960 0
DWIDTH 8 0
BBX 8 8 0 -2
BITMAP
2B
BE
AD
FF
00
7F
00
FF
ENDCHAR

STARTCHAR jisx0208_3A34
ENCODING 14900
SWIDTH 960 0
DWIDTH 8 0
BBX 8 8 0 -2
BITMAP
36
66
DF
6C
5F
5B
73
6F
ENDCHAR

STARTCHAR jisx0208_3A35
ENCODING 14901
SWIDTH 960 0
DWIDTH 8 0
BBX 8 8 0 -2
BITMAP
FF
03
5B
66
2C
18
2E
E3
ENDCHAR

STARTCHAR jisx0208_3A36
ENCODING 14902
SWIDTH 960 0
DWIDTH 8 0
BBX 8 8 0 -2
BITMAP
06
EB
BF
AB
B7
AB
F7
1D
ENDCHAR

STARTCHAR jisx0208_3A37
ENCODING 14903
SWIDTH 960 0
DWIDTH 8 0
BBX 8 8 0 -2
BITMAP
6B
5F
B6
BF
AC
EF
1B
2F
ENDCHAR

STARTCHAR jisx0208_3A38
ENCODING 14904
SWIDTH 960 0
DWIDTH 8 0
BBX 8 8 0 -2
BITMAP
18
FF
18
30
3F
66
66
BF
ENDCHAR

STARTCHAR jisx0208_3A39
ENCODING 14905
SWIDTH 960 0
DWIDTH 8 0
BBX 8 8 0 -2
BITMAP
36
FF
0C
FF
30
3F
66
BF
ENDCHAR

STARTCHAR jisx0208_3A3A
ENCODING 14906
SWIDTH 960 0
DWIDTH 8 0
BBX 8 8 0 -2
BITMAP
18
FF
36
7F
B5
3E
36
FF
ENDCHAR

STARTCHAR jisx0208_3A3B
ENCODING 14907
SWIDTH 960 0
DWIDTH 8 0
BBX 8 8 0 -2
BITMAP
C6
06
D7
35
0D
63
66
DC
ENDCHAR

STARTCHAR jisx0208_3A3C
ENCODING 14908
SWIDTH 960 0
DWIDTH 8 0
BBX 8 8 0 -2
BITMAP
EB
5F
66
FF
6C
6F
DB
2F
ENDCHAR

STARTCHAR jisx0208_3A3D
ENCODING 14909
SWIDTH 960 0
DWIDTH 8 0
BBX 8 8 0 -2
BITMAP
F6
66
6F
75
D7
5B
56
7C
ENDCHAR

STARTCHAR jisx0208_3A3E
ENCODING 14910
SWIDTH 960 0
DWIDTH 8 0
BBX 8 8 0 -2
BITMAP
6C
EF
16
F7
06
F7
B6
F6
ENDCHAR

STARTCHAR jisx0208_3A3F
ENCODING 14911
SWIDTH 960 0
DWIDTH 8 0
BBX 8 8 0 -2
BITMAP
55
B6
EF
6D
EF
6D
EF
D9
ENDCHAR

STARTCHAR jisx0208_3A40
ENCODING 14912
SWIDTH 960 0
DWIDTH 8 0
BBX 8 8 0 -2
BITMAP
CC
1B
AB
1E
FF
6B
B6
7B
ENDCHAR

STARTCHAR jisx0208_3A41
ENCODING 14913
SWIDTH 960 0
DWIDTH 8 0
BBX 8 8 0 -2
BITMAP
0C
6B
6B
AD
0C
7F
0C
FF
ENDCHAR

STARTCHAR jisx0208_3A42
ENCODING 14914
SWIDTH 960 0
DWIDTH 8 0
BBX 8 8 0 -2
BITMAP
0C
7F
5B
57
6D
5F
66
BF
ENDCHAR

STARTCHAR jisx0208_3A43
ENCODING 14915
SWIDTH 960 0
DWIDTH 8 0
BBX 8 8 0 -2
BITMAP
66
F5
55
6F
E6
5F
66
DF
ENDCHAR

STARTCHAR jisx0208_3A44
ENCODING 14916
SWIDTH 960 0
DWIDTH 8 0
BBX 8 8 0 -2
BITMAP
36
5F
E6
7F
5F
5B
5F
71
ENDCHAR

STARTCHAR jisx0208_3A45
ENCODING 14917
SWIDTH 960 0
DWIDTH 8 0
BBX 8 8 0 -2
BITMAP
35
5F
D6
5F
76
5F
56
5F
ENDCHAR

STARTCHAR jisx0208_3A46
ENCODING 14918
SWIDTH 960 0
DWIDTH 8 0
BBX 8 8 0 -2
BITMAP
7F
18
7F
5B
7F
5B
FF
63
ENDCHAR

STARTCHAR jisx0208_3A47
ENCODING 14919
SWIDTH 960 0
DWIDTH 8 0
BBX 8 8 0 -2
BITMAP
3F
33
FF
58
7F
55
FB
1D
ENDCHAR

STARTCHAR jisx0208_3A48
ENCODING 14920
SWIDTH 960 0
DWIDTH 8 0
BBX 8 8 0 -2
BITMAP
36
75
36
FF
7B
5B
77
0D
ENDCHAR

STARTCHAR jisx0208_3A49
ENCODING 14921
SWIDTH 960 0
DWIDTH 8 0
BBX 8 8 0 -2
BITMAP
18
FF
BD
2C
FF
5B
BD
7F
ENDCHAR

STARTCHAR jisx0208_3A4A
ENCODING 14922
SWIDTH 960 0
DWIDTH 8 0
BBX 8 8 0 -2
BITMAP
18
FF
7F
1B
FF
36
1E
F3
ENDCHAR

STARTCHAR jisx0208_3A4B
ENCODING 14923
SWIDTH 960 0
DWIDTH 8 0
BBX 8 8 0 -2
BITMAP
18
FF
D9
7F
36
FF
7E
18
ENDCHAR

STARTCHAR jisx0208_3A4C
ENCODING 14924
SWIDTH 960 0
DWIDTH 8 0
BBX 8 8 0 -2
BITMAP
18
ED
B7
31
FF
78
AD
37
ENDCHAR

STARTCHAR jisx0208_3A4D
ENCODING 14925
SWIDTH 960 0
DWIDTH 8 0
BBX 8 8 0 -2
BITMAP
0C
0C
FF
0C
0E
3C
EC
1C
ENDCHAR

STARTCHAR jisx0208_3A4E
ENCODING 14926
SWIDTH 960 0
DWIDTH 8 0
BBX 8 8 0 -2
BITMAP
63
FD
57
76
DF
6F
55
E6
ENDCHAR

STARTCHAR jisx0208_3A4F
ENCODING 14927
SWIDTH 960 0
DWIDTH 8 0
BBX 8 8 0 -2
BITMAP
35
F6
36
FF
33
FB
7B
AD
ENDCHAR

STARTCHAR jisx0208_3A50
ENCODING 14928
SWIDTH 960 0
DWIDTH 8 0
BBX 8 8 0 -2
BITMAP
2F
2C
FF
05
7F
55
5B
B5
ENDCHAR

STARTCHAR jisx0208_3A51
ENCODING 14929
SWIDTH 960 0
DWIDTH 8 0
BBX 8 8 0 -2
BITMAP
CC
7F
DB
0E
3F
5B
5F
B3
ENDCHAR

STARTCHAR jisx0208_3A52
ENCODING 14930
SWIDTH 960 0
DWIDTH 8 0
BBX 8 8 0 -2
BITMAP
6D
DB
6D
18
5B
18
2E
E3
ENDCHAR

STARTCHAR jisx0208_3A53
ENCODING 14931
SWIDTH 960 0
DWIDTH 8 0
BBX 8 8 0 -2
BITMAP
0E
FB
D6
58
FF
3C
56
DB
ENDCHAR

STARTCHAR jisx0208_3A54
ENCODING 14932
SWIDTH 960 0
DWIDTH 8 0
BBX 8 8 0 -2
BITMAP
7F
61
7F
55
7F
66
7F
C6
ENDCHAR

STARTCHAR jisx0208_3A55
ENCODING 14933
SWIDTH 960 0
DWIDTH 8 0
BBX 8 8 0 -2
BITMAP
F6
5F
6B
7B
D6
5F
56
76
ENDCHAR

STARTCHAR jisx0208_3A56
ENCODING 14934
SWIDTH 960 0
DWIDTH 8 0
BBX 8 8 0 -2
BITMAP
2D
BF
AD
FF
30
7F
B3
3F
ENDCHAR

STARTCHAR jisx0208_3A57
ENCODING 14935
SWIDTH 960 0
DWIDTH 8 0
BBX 8 8 0 -2
BITMAP
77
55
B3
5D
C0
7F
0C
6D
ENDCHAR

STARTCHAR jisx0208_3A58
ENCODING 14936
SWIDTH 960 0
DWIDTH 8 0
BBX 8 8 0 -2
BITMAP
18
FF
36
1C
F7
5B
7F
AB
ENDCHAR

STARTCHAR jisx0208_3A59
ENCODING 14937
SWIDTH 960 0
DWIDTH 8 0
BBX 8 8 0 -2
BITMAP
5F
B5
55
FF
55
F5
F5
5F
ENDCHAR

STARTCHAR jisx0208_3A5A
ENCODING 14938
SWIDTH 960 0
DWIDTH 8 0
BBX 8 8 0 -2
BITMAP
36
FF
2E
FB
56
FF
56
DB
ENDCHAR

STARTCHAR jisx0208_3A5B
ENCODING 14939
SWIDTH 960 0
DWIDTH 8 0
BBX 8 8 0 -2
BITMAP
36
F5
36
FF
36
FD
5B
ED
ENDCHAR

STARTCHAR jisx0208_3A5C
ENCODING 14940
SWIDTH 960 0
DWIDTH 8 0
BBX 8 8 0 -2
BITMAP
36
F5
36
FF
76
55
FB
2D
ENDCHAR

STARTCHAR jisx0208_3A5D
ENCODING 14941
SWIDTH 960 0
DWIDTH 8 0
BBX 8 8 0 -2
BITMAP
EB
B5
AB
D5
B0
AF
E6
D5
ENDCHAR

STARTCHAR jisx0208_3A5E
ENCODING 14942
SWIDTH 960 0
DWIDTH 8 0
BBX 8 8 0 -2
BITMAP
31
FD
55
35
DD
75
59
DB
ENDCHAR

STARTCHAR jisx0208_3A5F
ENCODING 14943
SWIDTH 960 0
DWIDTH 8 0
BBX 8 8 0 -2
BITMAP
18
FF
36
36
5F
E6
66
5F
ENDCHAR

STARTCHAR jisx0208_3A60
ENCODING 14944
SWIDTH 960 0
DWIDTH 8 0
BBX 8 8 0 -2
BITMAP
63
EF
63
F7
EB
5B
63
67
ENDCHAR

STARTCHAR jisx0208_3A61
ENCODING 14945
SWIDTH 960 0
DWIDTH 8 0
BBX 8 8 0 -2
BITMAP
FF
B5
FF
16
F7
16
F7
36
ENDCHAR

STARTCHAR jisx0208_3A62
ENCODING 14946
SWIDTH 960 0
DWIDTH 8 0
BBX 8 8 0 -2
BITMAP
F3
B3
EF
B3
B7
EB
03
B7
ENDCHAR

STARTCHAR jisx0208_3A63
ENCODING 14947
SWIDTH 960 0
DWIDTH 8 0
BBX 8 8 0 -2
BITMAP
DF
6B
0B
1F
07
6B
5B
B7
ENDCHAR

STARTCHAR jisx0208_3A64
ENCODING 14948
SWIDTH 960 0
DWIDTH 8 0
BBX 8 8 0 -2
BITMAP
6F
6C
EF
6D
6D
D7
17
2D
ENDCHAR

STARTCHAR jisx0208_3A65
ENCODING 14949
SWIDTH 960 0
DWIDTH 8 0
BBX 8 8 0 -2
BITMAP
EF
AC
AF
ED
AD
B7
D7
AD
ENDCHAR

STARTCHAR jisx0208_3A66
ENCODING 14950
SWIDTH 960 0
DWIDTH 8 0
BBX 8 8 0 -2
BITMAP
5F
55
F5
5F
5B
6B
EB
1B
ENDCHAR

STARTCHAR jisx0208_3A67
ENCODING 14951
SWIDTH 960 0
DWIDTH 8 0
BBX 8 8 0 -2
BITMAP
5B
FF
6D
D7
FD
57
5B
5B
ENDCHAR

STARTCHAR jisx0208_3A68
ENCODING 14952
SWIDTH 960 0
DWIDTH 8 0
BBX 8 8 0 -2
BITMAP
36
1C
FF
33
7F
B3
3F
33
ENDCHAR

STARTCHAR jisx0208_3A69
ENCODING 14953
SWIDTH 960 0
DWIDTH 8 0
BBX 8 8 0 -2
BITMAP
19
EB
BF
B6
BF
B6
EB
19
ENDCHAR

STARTCHAR jisx0208_3A6A
ENCODING 14954
SWIDTH 960 0
DWIDTH 8 0
BBX 8 8 0 -2
BITMAP
66
5F
66
AB
BF
B5
FD
03
ENDCHAR

STARTCHAR jisx0208_3A6B
ENCODING 14955
SWIDTH 960 0
DWIDTH 8 0
BBX 8 8 0 -2
BITMAP
66
5F
EB
59
5F
75
DD
03
ENDCHAR

STARTCHAR jisx0208_3A6C
ENCODING 14956
SWIDTH 960 0
DWIDTH 8 0
BBX 8 8 0 -2
BITMAP
F6
5F
6B
79
DF
55
5D
7B
ENDCHAR

STARTCHAR jisx0208_3A6D
ENCODING 14957
SWIDTH 960 0
DWIDTH 8 0
BBX 8 8 0 -2
BITMAP
F7
DD
F7
6D
FF
33
3F
AB
ENDCHAR

STARTCHAR jisx0208_3A6E
ENCODING 14958
SWIDTH 960 0
DWIDTH 8 0
BBX 8 8 0 -2
BITMAP
2C
6C
EF
56
67
66
67
66
ENDCHAR

STARTCHAR jisx0208_3A6F
ENCODING 14959
SWIDTH 960 0
DWIDTH 8 0
BBX 8 8 0 -2
BITMAP
AD
35
F5
D5
F5
D5
F9
DB
ENDCHAR

STARTCHAR jisx0208_3A70
ENCODING 14960
SWIDTH 960 0
DWIDTH 8 0
BBX 8 8 0 -2
BITMAP
06
EC
BF
B6
B7
B6
F7
06
ENDCHAR

STARTCHAR jisx0208_3A71
ENCODING 14961
SWIDTH 960 0
DWIDTH 8 0
BBX 8 8 0 -2
BITMAP
66
FF
55
6E
D7
66
67
E6
ENDCHAR

STARTCHAR jisx0208_3A72
ENCODING 14962
SWIDTH 960 0
DWIDTH 8 0
BBX 8 8 0 -2
BITMAP
0C
EC
AF
F6
B7
B6
F7
06
ENDCHAR

STARTCHAR jisx0208_3A73
ENCODING 14963
SWIDTH 960 0
DWIDTH 8 0
BBX 8 8 0 -2
BITMAP
CF
55
FF
35
AF
FD
35
E5
ENDCHAR

STARTCHAR jisx0208_3A74
ENCODING 14964
SWIDTH 960 0
DWIDTH 8 0
BBX 8 8 0 -2
BITMAP
5F
F5
55
FF
D5
55
55
55
ENDCHAR

STARTCHAR jisx0208_3A75
ENCODING 14965
SWIDTH 960 0
DWIDTH 8 0
BBX 8 8 0 -2
BITMAP
18
FF
B5
67
7F
D8
1F
18
ENDCHAR

STARTCHAR jisx0208_3A76
ENCODING 14966
SWIDTH 960 0
DWIDTH 8 0
BBX 8 8 0 -2
BITMAP
66
7F
AB
FF
6D
5D
2B
ED
ENDCHAR

STARTCHAR jisx0208_3A77
ENCODING 14967
SWIDTH 960 0
DWIDTH 8 0
BBX 8 8 0 -2
BITMAP
18
7F
18
FF
D5
2B
FF
5B
ENDCHAR

STARTCHAR jisx0208_3A78
ENCODING 14968
SWIDTH 960 0
DWIDTH 8 0
BBX 8 8 0 -2
BITMAP
6B
BF
EB
5F
EB
6F
EB
EF
ENDCHAR

STARTCHAR jisx0208_3A79
ENCODING 14969
SWIDTH 960 0
DWIDTH 8 0
BBX 8 8 0 -2
BITMAP
55
EB
66
FF
EB
6B
67
5D
ENDCHAR

STARTCHAR jisx0208_3A7A
ENCODING 14970
SWIDTH 960 0
DWIDTH 8 0
BBX 8 8 0 -2
BITMAP
66
DF
F6
BF
B6
FF
06
BF
ENDCHAR

STARTCHAR jisx0208_3A7B
ENCODING 14971
SWIDTH 960 0
DWIDTH 8 0
BBX 8 8 0 -2
BITMAP
66
7F
DB
6B
FF
6B
6F
7F
ENDCHAR

STARTCHAR jisx0208_3A7C
ENCODING 14972
SWIDTH 960 0
DWIDTH 8 0
BBX 8 8 0 -2
BITMAP
F6
D5
F7
FE
35
B7
F0
BF
ENDCHAR

STARTCHAR jisx0208_3A7D
ENCODING 14973
SWIDTH 960 0
DWIDTH 8 0
BBX 8 8 0 -2
BITMAP
7F
5B
5B
FF
5B
5B
5B
63
ENDCHAR

STARTCHAR jisx0208_3A7E
ENCODING 14974
SWIDTH 960 0
DWIDTH 8 0
BBX 8 8 0 -2
BITMAP
FD
CD
FD
B5
FD
AD
AD
33
ENDCHAR

STARTCHAR jisx0208_3B21
ENCODING 15137
SWIDTH 960 0
DWIDTH 8 0
BBX 8 8 0 -2
BITMAP
18
FF
B5
DB
3D
FF
18
DB
ENDCHAR

STARTCHAR jisx0208_3B22
ENCODING 15138
SWIDTH 960 0
DWIDTH 8 0
BBX 8 8 0 -2
BITMAP
55
EB
55
70
E7
5D
67
DC
ENDCHAR

STARTCHAR jisx0208_3B23
ENCODING 15139
SWIDTH 960 0
DWIDTH 8 0
BBX 8 8 0 -2
BITMAP
5F
FB
5F
76
DF
55
7F
E5
ENDCHAR

STARTCHAR jisx0208_3B24
ENCODING 15140
SWIDTH 960 0
DWIDTH 8 0
BBX 8 8 0 -2
BITMAP
66
FF
55
6F
D9
7F
66
D5
ENDCHAR

STARTCHAR jisx0208_3B25
ENCODING 15141
SWIDTH 960 0
DWIDTH 8 0
BBX 8 8 0 -2
BITMAP
6C
EC
6C
EC
EC
6C
6D
6F
ENDCHAR

STARTCHAR jisx0208_3B26
ENCODING 15142
SWIDTH 960 0
DWIDTH 8 0
BBX 8 8 0 -2
BITMAP
5F
2B
DB
30
FF
75
BB
2D
ENDCHAR

STARTCHAR jisx0208_3B27
ENCODING 15143
SWIDTH 960 0
DWIDTH 8 0
BBX 8 8 0 -2
BITMAP
36
FF
36
FF
B6
DF
B6
DF
ENDCHAR

STARTCHAR jisx0208_3B28
ENCODING 15144
SWIDTH 960 0
DWIDTH 8 0
BBX 8 8 0 -2
BITMAP
6B
EF
6B
BF
6B
FF
6B
DF
ENDCHAR

STARTCHAR jisx0208_3B29
ENCODING 15145
SWIDTH 960 0
DWIDTH 8 0
BBX 8 8 0 -2
BITMAP
30
7F
63
7F
18
77
FF
18
ENDCHAR

STARTCHAR jisx0208_3B2A
ENCODING 15146
SWIDTH 960 0
DWIDTH 8 0
BBX 8 8 0 -2
BITMAP
66
EF
F6
BF
AD
EF
0D
AD
ENDCHAR

STARTCHAR jisx0208_3B2B
ENCODING 15147
SWIDTH 960 0
DWIDTH 8 0
BBX 8 8 0 -2
BITMAP
5D
F5
5F
6B
DF
57
55
ED
ENDCHAR

STARTCHAR jisx0208_3B2C
ENCODING 15148
SWIDTH 960 0
DWIDTH 8 0
BBX 8 8 0 -2
BITMAP
66
AF
F6
5F
ED
6F
ED
ED
ENDCHAR

STARTCHAR jisx0208_3B2D
ENCODING 15149
SWIDTH 960 0
DWIDTH 8 0
BBX 8 8 0 -2
BITMAP
66
DF
EB
B9
AB
F6
0B
B9
ENDCHAR

STARTCHAR jisx0208_3B2E
ENCODING 15150
SWIDTH 960 0
DWIDTH 8 0
BBX 8 8 0 -2
BITMAP
00
7F
5B
5B
5B
5B
5B
FF
ENDCHAR

STARTCHAR jisx0208_3B2F
ENCODING 15151
SWIDTH 960 0
DWIDTH 8 0
BBX 8 8 0 -2
BITMAP
1F
EE
BF
ED
B7
B9
F9
1F
ENDCHAR

STARTCHAR jisx0208_3B30
ENCODING 15152
SWIDTH 960 0
DWIDTH 8 0
BBX 8 8 0 -2
BITMAP
00
FF
00
00
7F
00
00
FF
ENDCHAR

STARTCHAR jisx0208_3B31
ENCODING 15153
SWIDTH 960 0
DWIDTH 8 0
BBX 8 8 0 -2
BITMAP
1C
36
DB
56
BB
56
FF
18
ENDCHAR

STARTCHAR jisx0208_3B32
ENCODING 15154
SWIDTH 960 0
DWIDTH 8 0
BBX 8 8 0 -2
BITMAP
36
7F
18
FF
6B
B9
06
3C
ENDCHAR

STARTCHAR jisx0208_3B33
ENCODING 15155
SWIDTH 960 0
DWIDTH 8 0
BBX 8 8 0 -2
BITMAP
18
18
DB
DB
DB
DB
DB
FF
ENDCHAR

STARTCHAR jisx0208_3B34
ENCODING 15156
SWIDTH 960 0
DWIDTH 8 0
BBX 8 8 0 -2
BITMAP
6B
5F
F6
DF
5B
75
5B
6E
ENDCHAR

STARTCHAR jisx0208_3B35
ENCODING 15157
SWIDTH 960 0
DWIDTH 8 0
BBX 8 8 0 -2
BITMAP
57
FF
57
7D
D5
5F
57
D5
ENDCHAR

STARTCHAR jisx0208_3B36
ENCODING 15158
SWIDTH 960 0
DWIDTH 8 0
BBX 8 8 0 -2
BITMAP
56
FE
57
FD
55
7B
5B
55
ENDCHAR

STARTCHAR jisx0208_3B37
ENCODING 15159
SWIDTH 960 0
DWIDTH 8 0
BBX 8 8 0 -2
BITMAP
65
FF
66
FF
E6
5F
67
5D
ENDCHAR

STARTCHAR jisx0208_3B38
ENCODING 15160
SWIDTH 960 0
DWIDTH 8 0
BBX 8 8 0 -2
BITMAP
6B
5D
F5
6B
55
5F
AF
D5
ENDCHAR

STARTCHAR jisx0208_3B39
ENCODING 15161
SWIDTH 960 0
DWIDTH 8 0
BBX 8 8 0 -2
BITMAP
FF
55
55
FF
55
75
D5
19
ENDCHAR

STARTCHAR jisx0208_3B3A
ENCODING 15162
SWIDTH 960 0
DWIDTH 8 0
BBX 8 8 0 -2
BITMAP
0C
7F
16
7F
56
7F
66
BF
ENDCHAR

STARTCHAR jisx0208_3B3B
ENCODING 15163
SWIDTH 960 0
DWIDTH 8 0
BBX 8 8 0 -2
BITMAP
66
7F
FF
63
7F
36
FF
66
ENDCHAR

STARTCHAR jisx0208_3B3C
ENCODING 15164
SWIDTH 960 0
DWIDTH 8 0
BBX 8 8 0 -2
BITMAP
66
7F
BF
33
FF
57
BD
2B
ENDCHAR

STARTCHAR jisx0208_3B3D
ENCODING 15165
SWIDTH 960 0
DWIDTH 8 0
BBX 8 8 0 -2
BITMAP
FF
18
FF
7F
DB
7F
1B
FD
ENDCHAR

STARTCHAR jisx0208_3B3E
ENCODING 15166
SWIDTH 960 0
DWIDTH 8 0
BBX 8 8 0 -2
BITMAP
6B
FF
0B
F5
0F
EB
AF
F9
ENDCHAR

STARTCHAR jisx0208_3B3F
ENCODING 15167
SWIDTH 960 0
DWIDTH 8 0
BBX 8 8 0 -2
BITMAP
63
F7
63
BF
3F
33
3F
E1
ENDCHAR

STARTCHAR jisx0208_3B40
ENCODING 15168
SWIDTH 960 0
DWIDTH 8 0
BBX 8 8 0 -2
BITMAP
FB
65
FF
D5
DB
F5
DB
FD
ENDCHAR

STARTCHAR jisx0208_3B41
ENCODING 15169
SWIDTH 960 0
DWIDTH 8 0
BBX 8 8 0 -2
BITMAP
77
F5
AB
55
FF
33
3E
F3
ENDCHAR

STARTCHAR jisx0208_3B42
ENCODING 15170
SWIDTH 960 0
DWIDTH 8 0
BBX 8 8 0 -2
BITMAP
61
EF
6C
EF
EB
6B
EB
5B
ENDCHAR

STARTCHAR jisx0208_3B43
ENCODING 15171
SWIDTH 960 0
DWIDTH 8 0
BBX 8 8 0 -2
BITMAP
2F
FC
5F
FB
2B
7F
63
7F
ENDCHAR

STARTCHAR jisx0208_3B44
ENCODING 15172
SWIDTH 960 0
DWIDTH 8 0
BBX 8 8 0 -2
BITMAP
F5
6F
76
5F
B6
2F
67
DD
ENDCHAR

STARTCHAR jisx0208_3B45
ENCODING 15173
SWIDTH 960 0
DWIDTH 8 0
BBX 8 8 0 -2
BITMAP
2C
6C
EC
7F
6C
6C
6C
7F
ENDCHAR

STARTCHAR jisx0208_3B46
ENCODING 15174
SWIDTH 960 0
DWIDTH 8 0
BBX 8 8 0 -2
BITMAP
2F
63
E6
66
5F
66
66
6E
ENDCHAR

STARTCHAR jisx0208_3B47
ENCODING 15175
SWIDTH 960 0
DWIDTH 8 0
BBX 8 8 0 -2
BITMAP
2F
61
DD
61
5D
55
5D
61
ENDCHAR

STARTCHAR jisx0208_3B48
ENCODING 15176
SWIDTH 960 0
DWIDTH 8 0
BBX 8 8 0 -2
BITMAP
36
7F
DF
55
5F
56
6E
5B
ENDCHAR

STARTCHAR jisx0208_3B49
ENCODING 15177
SWIDTH 960 0
DWIDTH 8 0
BBX 8 8 0 -2
BITMAP
31
FD
35
FD
AD
AD
79
AB
ENDCHAR

STARTCHAR jisx0208_3B4A
ENCODING 15178
SWIDTH 960 0
DWIDTH 8 0
BBX 8 8 0 -2
BITMAP
FF
01
7D
01
7D
6D
7D
03
ENDCHAR

STARTCHAR jisx0208_3B4B
ENCODING 15179
SWIDTH 960 0
DWIDTH 8 0
BBX 8 8 0 -2
BITMAP
18
FF
DB
FF
58
38
2C
E7
ENDCHAR

STARTCHAR jisx0208_3B4C
ENCODING 15180
SWIDTH 960 0
DWIDTH 8 0
BBX 8 8 0 -2
BITMAP
7F
59
FF
AD
AF
FB
AF
AD
ENDCHAR

STARTCHAR jisx0208_3B4D
ENCODING 15181
SWIDTH 960 0
DWIDTH 8 0
BBX 8 8 0 -2
BITMAP
FF
AD
AD
AD
EF
C1
C1
FF
ENDCHAR

STARTCHAR jisx0208_3B4E
ENCODING 15182
SWIDTH 960 0
DWIDTH 8 0
BBX 8 8 0 -2
BITMAP
18
18
18
FF
18
18
18
FF
ENDCHAR

STARTCHAR jisx0208_3B4F
ENCODING 15183
SWIDTH 960 0
DWIDTH 8 0
BBX 8 8 0 -2
BITMAP
66
66
ED
6F
B0
EF
6D
AF
ENDCHAR

STARTCHAR jisx0208_3B50
ENCODING 15184
SWIDTH 960 0
DWIDTH 8 0
BBX 8 8 0 -2
BITMAP
66
5F
F6
7F
B5
D5
55
B6
ENDCHAR

STARTCHAR jisx0208_3B51
ENCODING 15185
SWIDTH 960 0
DWIDTH 8 0
BBX 8 8 0 -2
BITMAP
CC
0F
55
CB
19
FF
36
FB
ENDCHAR

STARTCHAR jisx0208_3B52
ENCODING 15186
SWIDTH 960 0
DWIDTH 8 0
BBX 8 8 0 -2
BITMAP
7F
06
0C
0C
FF
0C
0C
1C
ENDCHAR

STARTCHAR jisx0208_3B53
ENCODING 15187
SWIDTH 960 0
DWIDTH 8 0
BBX 8 8 0 -2
BITMAP
7F
63
7F
7F
56
6F
56
B7
ENDCHAR

STARTCHAR jisx0208_3B54
ENCODING 15188
SWIDTH 960 0
DWIDTH 8 0
BBX 8 8 0 -2
BITMAP
18
FF
18
FF
DB
DB
DB
18
ENDCHAR

STARTCHAR jisx0208_3B55
ENCODING 15189
SWIDTH 960 0
DWIDTH 8 0
BBX 8 8 0 -2
BITMAP
5F
F6
BF
F5
D5
F5
B5
F6
ENDCHAR

STARTCHAR jisx0208_3B56
ENCODING 15190
SWIDTH 960 0
DWIDTH 8 0
BBX 8 8 0 -2
BITMAP
18
FF
18
7F
00
2C
B1
BD
ENDCHAR

STARTCHAR jisx0208_3B57
ENCODING 15191
SWIDTH 960 0
DWIDTH 8 0
BBX 8 8 0 -2
BITMAP
7F
5B
7F
5B
7F
2C
B1
BD
ENDCHAR

STARTCHAR jisx0208_3B58
ENCODING 15192
SWIDTH 960 0
DWIDTH 8 0
BBX 8 8 0 -2
BITMAP
6D
EF
6C
6F
ED
6F
6D
EF
ENDCHAR

STARTCHAR jisx0208_3B59
ENCODING 15193
SWIDTH 960 0
DWIDTH 8 0
BBX 8 8 0 -2
BITMAP
18
FF
18
FF
63
36
3C
E7
ENDCHAR

STARTCHAR jisx0208_3B5A
ENCODING 15194
SWIDTH 960 0
DWIDTH 8 0
BBX 8 8 0 -2
BITMAP
F6
16
37
3D
F5
33
37
6D
ENDCHAR

STARTCHAR jisx0208_3B5B
ENCODING 15195
SWIDTH 960 0
DWIDTH 8 0
BBX 8 8 0 -2
BITMAP
59
FF
5C
7F
5B
FB
5B
CB
ENDCHAR

STARTCHAR jisx0208_3B5C
ENCODING 15196
SWIDTH 960 0
DWIDTH 8 0
BBX 8 8 0 -2
BITMAP
66
F7
6C
77
5D
55
58
AF
ENDCHAR

STARTCHAR jisx0208_3B5D
ENCODING 15197
SWIDTH 960 0
DWIDTH 8 0
BBX 8 8 0 -2
BITMAP
C7
FC
C1
FF
63
7F
63
7F
ENDCHAR

STARTCHAR jisx0208_3B5E
ENCODING 15198
SWIDTH 960 0
DWIDTH 8 0
BBX 8 8 0 -2
BITMAP
66
FF
66
FF
ED
67
67
5D
ENDCHAR

STARTCHAR jisx0208_3B5F
ENCODING 15199
SWIDTH 960 0
DWIDTH 8 0
BBX 8 8 0 -2
BITMAP
0C
0C
6C
6F
6C
6C
6C
FF
ENDCHAR

STARTCHAR jisx0208_3B60
ENCODING 15200
SWIDTH 960 0
DWIDTH 8 0
BBX 8 8 0 -2
BITMAP
FF
6C
7D
DF
6C
2C
6D
CF
ENDCHAR

STARTCHAR jisx0208_3B61
ENCODING 15201
SWIDTH 960 0
DWIDTH 8 0
BBX 8 8 0 -2
BITMAP
07
7C
6C
6C
7F
66
63
F9
ENDCHAR

STARTCHAR jisx0208_3B62
ENCODING 15202
SWIDTH 960 0
DWIDTH 8 0
BBX 8 8 0 -2
BITMAP
57
3B
6F
BB
6B
BB
2B
7B
ENDCHAR

STARTCHAR jisx0208_3B63
ENCODING 15203
SWIDTH 960 0
DWIDTH 8 0
BBX 8 8 0 -2
BITMAP
66
F6
36
57
F6
56
56
5F
ENDCHAR

STARTCHAR jisx0208_3B64
ENCODING 15204
SWIDTH 960 0
DWIDTH 8 0
BBX 8 8 0 -2
BITMAP
36
E6
66
F6
6C
EB
6B
5D
ENDCHAR

STARTCHAR jisx0208_3B65
ENCODING 15205
SWIDTH 960 0
DWIDTH 8 0
BBX 8 8 0 -2
BITMAP
18
76
2C
1B
FD
18
5B
D9
ENDCHAR

STARTCHAR jisx0208_3B66
ENCODING 15206
SWIDTH 960 0
DWIDTH 8 0
BBX 8 8 0 -2
BITMAP
61
AF
6B
EB
6F
EB
ED
5D
ENDCHAR

STARTCHAR jisx0208_3B67
ENCODING 15207
SWIDTH 960 0
DWIDTH 8 0
BBX 8 8 0 -2
BITMAP
2C
BF
AD
FF
36
1B
FF
DB
ENDCHAR

STARTCHAR jisx0208_3B68
ENCODING 15208
SWIDTH 960 0
DWIDTH 8 0
BBX 8 8 0 -2
BITMAP
F6
BF
F6
BF
F9
AB
B6
BB
ENDCHAR

STARTCHAR jisx0208_3B69
ENCODING 15209
SWIDTH 960 0
DWIDTH 8 0
BBX 8 8 0 -2
BITMAP
ED
AF
EC
AF
ED
AF
AD
AF
ENDCHAR

STARTCHAR jisx0208_3B6A
ENCODING 15210
SWIDTH 960 0
DWIDTH 8 0
BBX 8 8 0 -2
BITMAP
FF
18
36
FF
18
7F
18
FF
ENDCHAR

STARTCHAR jisx0208_3B6B
ENCODING 15211
SWIDTH 960 0
DWIDTH 8 0
BBX 8 8 0 -2
BITMAP
6F
EB
2F
6B
EB
6F
6E
57
ENDCHAR

STARTCHAR jisx0208_3B6C
ENCODING 15212
SWIDTH 960 0
DWIDTH 8 0
BBX 8 8 0 -2
BITMAP
6F
F1
0F
F1
0F
EB
AF
F1
ENDCHAR

STARTCHAR jisx0208_3B6D
ENCODING 15213
SWIDTH 960 0
DWIDTH 8 0
BBX 8 8 0 -2
BITMAP
66
EF
06
EF
03
EF
B3
EB
ENDCHAR

STARTCHAR jisx0208_3B6E
ENCODING 15214
SWIDTH 960 0
DWIDTH 8 0
BBX 8 8 0 -2
BITMAP
65
F6
1F
F3
1F
EB
AD
FD
ENDCHAR

STARTCHAR jisx0208_3B6F
ENCODING 15215
SWIDTH 960 0
DWIDTH 8 0
BBX 8 8 0 -2
BITMAP
66
FF
06
EF
06
ED
BC
EF
ENDCHAR

STARTCHAR jisx0208_3B70
ENCODING 15216
SWIDTH 960 0
DWIDTH 8 0
BBX 8 8 0 -2
BITMAP
56
EF
15
F7
1D
EF
AD
EF
ENDCHAR

ENDFONT
